DaiBannaSIL-BoldItalic.ufo
<glyph name="exclam" format="2">
  <advance width="503"/>
  <unicode hex="0021"/>
  <outline>
    <contour>
      <point x="153" y="360" type="line" smooth="yes"/>
      <point x="152" y="327"/>
      <point x="247" y="326"/>
      <point x="258" y="360" type="curve" smooth="yes"/>
      <point x="400" y="757" type="line" smooth="yes"/>
      <point x="408" y="778"/>
      <point x="431" y="882"/>
      <point x="438" y="918" type="curve" smooth="yes"/>
      <point x="444" y="949"/>
      <point x="434" y="968"/>
      <point x="324" y="968" type="curve" smooth="yes"/>
      <point x="218" y="968"/>
      <point x="198" y="956"/>
      <point x="190" y="923" type="curve" smooth="yes"/>
      <point x="183" y="887"/>
      <point x="167" y="794"/>
      <point x="166" y="757" type="curve" smooth="yes"/>
    </contour>
    <contour>
      <point x="133" y="-16" type="curve" smooth="yes"/>
      <point x="224" y="-16"/>
      <point x="282" y="71"/>
      <point x="282" y="154" type="curve" smooth="yes"/>
      <point x="282" y="222"/>
      <point x="246" y="273"/>
      <point x="189" y="273" type="curve" smooth="yes"/>
      <point x="95" y="273"/>
      <point x="41" y="193"/>
      <point x="41" y="107" type="curve" smooth="yes"/>
      <point x="41" y="35"/>
      <point x="80" y="-16"/>
    </contour>
  </outline>
</glyph>
<glyph name="quotedbl" format="2">
  <advance width="933"/>
  <unicode hex="0022"/>
  <outline>
    <contour>
      <point x="723" y="765" type="line" smooth="yes"/>
      <point x="723" y="754"/>
      <point x="761" y="752"/>
      <point x="768" y="765" type="curve" smooth="yes"/>
      <point x="907" y="1093" type="line" smooth="yes"/>
      <point x="952" y="1196"/>
      <point x="976" y="1283"/>
      <point x="982" y="1310" type="curve" smooth="yes"/>
      <point x="1000" y="1408"/>
      <point x="952" y="1457"/>
      <point x="880" y="1457" type="curve" smooth="yes"/>
      <point x="811" y="1457"/>
      <point x="750" y="1421"/>
      <point x="726" y="1298" type="curve" smooth="yes"/>
      <point x="719" y="1263"/>
      <point x="707" y="1183"/>
      <point x="711" y="1095" type="curve" smooth="yes"/>
    </contour>
    <contour>
      <point x="281" y="765" type="line" smooth="yes"/>
      <point x="281" y="754"/>
      <point x="319" y="752"/>
      <point x="325" y="765" type="curve" smooth="yes"/>
      <point x="464" y="1093" type="line" smooth="yes"/>
      <point x="509" y="1196"/>
      <point x="534" y="1283"/>
      <point x="540" y="1310" type="curve" smooth="yes"/>
      <point x="557" y="1408"/>
      <point x="509" y="1457"/>
      <point x="438" y="1457" type="curve" smooth="yes"/>
      <point x="368" y="1457"/>
      <point x="307" y="1421"/>
      <point x="283" y="1298" type="curve" smooth="yes"/>
      <point x="276" y="1263"/>
      <point x="265" y="1183"/>
      <point x="268" y="1095" type="curve" smooth="yes"/>
    </contour>
  </outline>
</glyph>
<glyph name="numbersign" format="2">
  <advance width="890"/>
  <unicode hex="0023"/>
  <outline>
    <contour>
      <point x="945" y="879" type="curve"/>
      <point x="927" y="902" type="line"/>
      <point x="231" y="902" type="line"/>
      <point x="219" y="877"/>
      <point x="180" y="808"/>
      <point x="172" y="782" type="curve"/>
      <point x="190" y="759" type="line"/>
      <point x="885" y="759" type="line"/>
      <point x="897" y="780"/>
      <point x="936" y="852"/>
    </contour>
    <contour>
      <point x="901" y="1168" type="line"/>
      <point x="880" y="1188" type="line"/>
      <point x="853" y="1177"/>
      <point x="792" y="1170"/>
      <point x="765" y="1150" type="curve"/>
      <point x="356" y="135" type="line"/>
      <point x="376" y="116" type="line"/>
      <point x="407" y="127"/>
      <point x="471" y="139"/>
      <point x="494" y="156" type="curve"/>
    </contour>
    <contour>
      <point x="628" y="1168" type="line"/>
      <point x="606" y="1188" type="line"/>
      <point x="580" y="1177"/>
      <point x="519" y="1170"/>
      <point x="492" y="1150" type="curve"/>
      <point x="83" y="135" type="line"/>
      <point x="103" y="116" type="line"/>
      <point x="135" y="127"/>
      <point x="196" y="139"/>
      <point x="219" y="156" type="curve"/>
    </contour>
    <contour>
      <point x="805" y="536" type="curve"/>
      <point x="790" y="561" type="line"/>
      <point x="93" y="561" type="line"/>
      <point x="80" y="536"/>
      <point x="43" y="465"/>
      <point x="34" y="441" type="curve"/>
      <point x="50" y="418" type="line"/>
      <point x="748" y="418" type="line"/>
      <point x="759" y="439"/>
      <point x="797" y="512"/>
    </contour>
  </outline>
</glyph>
<glyph name="dollar" format="2">
  <advance width="998"/>
  <unicode hex="0024"/>
  <outline>
    <contour>
      <point x="365" y="-171" type="curve" smooth="yes"/>
      <point x="401" y="-171"/>
      <point x="446" y="-169"/>
      <point x="450" y="-150" type="curve" smooth="yes"/>
      <point x="459" y="-103"/>
      <point x="467" y="-57"/>
      <point x="476" y="-12" type="curve"/>
      <point x="743" y="22"/>
      <point x="932" y="204"/>
      <point x="932" y="484" type="curve" smooth="yes"/>
      <point x="932" y="670"/>
      <point x="777" y="790"/>
      <point x="646" y="901" type="curve"/>
      <point x="680" y="1068"/>
      <point x="724" y="1272"/>
      <point x="756" y="1427" type="curve"/>
      <point x="832" y="1376"/>
      <point x="820" y="1222"/>
      <point x="830" y="1205" type="curve" smooth="yes"/>
      <point x="843" y="1172"/>
      <point x="870" y="1164"/>
      <point x="1002" y="1245" type="curve" smooth="yes"/>
      <point x="1062" y="1281"/>
      <point x="1071" y="1300"/>
      <point x="1061" y="1332" type="curve" smooth="yes"/>
      <point x="1037" y="1415"/>
      <point x="910" y="1475"/>
      <point x="768" y="1493" type="curve"/>
      <point x="776" y="1533"/>
      <point x="784" y="1568"/>
      <point x="789" y="1595" type="curve" smooth="yes"/>
      <point x="793" y="1614"/>
      <point x="749" y="1615"/>
      <point x="712" y="1615" type="curve" smooth="yes"/>
      <point x="674" y="1615"/>
      <point x="631" y="1614"/>
      <point x="627" y="1595" type="curve" smooth="yes"/>
      <point x="622" y="1567"/>
      <point x="615" y="1532"/>
      <point x="608" y="1491" type="curve"/>
      <point x="381" y="1455"/>
      <point x="202" y="1299"/>
      <point x="202" y="1063" type="curve" smooth="yes"/>
      <point x="202" y="878"/>
      <point x="324" y="774"/>
      <point x="453" y="656" type="curve"/>
      <point x="423" y="509"/>
      <point x="370" y="253"/>
      <point x="330" y="57" type="curve"/>
      <point x="258" y="112"/>
      <point x="292" y="265"/>
      <point x="280" y="305" type="curve" smooth="yes"/>
      <point x="277" y="316"/>
      <point x="236" y="321"/>
      <point x="118" y="263" type="curve" smooth="yes"/>
      <point x="36" y="224"/>
      <point x="14" y="197"/>
      <point x="25" y="165" type="curve" smooth="yes"/>
      <point x="46" y="99"/>
      <point x="150" y="7"/>
      <point x="315" y="-13" type="curve"/>
      <point x="304" y="-65"/>
      <point x="295" y="-112"/>
      <point x="288" y="-150" type="curve" smooth="yes"/>
      <point x="284" y="-169"/>
      <point x="328" y="-171"/>
    </contour>
    <contour>
      <point x="486" y="50" type="curve"/>
      <point x="514" y="206"/>
      <point x="549" y="394"/>
      <point x="577" y="547" type="curve"/>
      <point x="686" y="449"/>
      <point x="738" y="395"/>
      <point x="738" y="317" type="curve" smooth="yes"/>
      <point x="738" y="184"/>
      <point x="605" y="81"/>
    </contour>
    <contour>
      <point x="520" y="1008" type="curve"/>
      <point x="428" y="1087"/>
      <point x="391" y="1128"/>
      <point x="391" y="1193" type="curve" smooth="yes"/>
      <point x="391" y="1321"/>
      <point x="480" y="1394"/>
      <point x="595" y="1429" type="curve"/>
      <point x="570" y="1286"/>
      <point x="546" y="1151"/>
    </contour>
  </outline>
</glyph>
<glyph name="percent" format="2">
  <advance width="1482"/>
  <unicode hex="0025"/>
  <outline>
    <contour>
      <point x="276" y="-17" type="curve" smooth="yes"/>
      <point x="351" y="-17"/>
      <point x="361" y="-15"/>
      <point x="374" y="3" type="curve" smooth="yes"/>
      <point x="1383" y="1478" type="line" smooth="yes"/>
      <point x="1395" y="1496"/>
      <point x="1378" y="1498"/>
      <point x="1310" y="1498" type="curve" smooth="yes"/>
      <point x="1246" y="1498"/>
      <point x="1228" y="1495"/>
      <point x="1216" y="1478" type="curve" smooth="yes"/>
      <point x="202" y="3" type="line" smooth="yes"/>
      <point x="190" y="-14"/>
      <point x="198" y="-17"/>
    </contour>
    <contour>
      <point x="977" y="-17" type="curve" smooth="yes"/>
      <point x="1178" y="-17"/>
      <point x="1352" y="155"/>
      <point x="1352" y="370" type="curve" smooth="yes"/>
      <point x="1352" y="532"/>
      <point x="1273" y="668"/>
      <point x="1090" y="668" type="curve" smooth="yes"/>
      <point x="888" y="668"/>
      <point x="715" y="484"/>
      <point x="715" y="268" type="curve" smooth="yes" name="hr01"/>
      <point x="715" y="116"/>
      <point x="806" y="-17"/>
    </contour>
    <contour>
      <point x="978" y="40" type="curve" smooth="yes"/>
      <point x="937" y="40"/>
      <point x="929" y="83"/>
      <point x="929" y="145" type="curve" smooth="yes" name="hr03"/>
      <point x="929" y="244"/>
      <point x="981" y="611"/>
      <point x="1089" y="611" type="curve" smooth="yes"/>
      <point x="1134" y="611"/>
      <point x="1144" y="577"/>
      <point x="1144" y="523" type="curve" smooth="yes"/>
      <point x="1144" y="419"/>
      <point x="1095" y="40"/>
    </contour>
    <contour>
      <point x="480" y="813" type="curve" smooth="yes"/>
      <point x="681" y="813"/>
      <point x="855" y="985"/>
      <point x="855" y="1200" type="curve" smooth="yes"/>
      <point x="855" y="1362"/>
      <point x="776" y="1498"/>
      <point x="593" y="1498" type="curve" smooth="yes"/>
      <point x="391" y="1498"/>
      <point x="218" y="1314"/>
      <point x="218" y="1098" type="curve" smooth="yes"/>
      <point x="218" y="946"/>
      <point x="309" y="813"/>
    </contour>
    <contour>
      <point x="481" y="870" type="curve" smooth="yes"/>
      <point x="440" y="870"/>
      <point x="431" y="913"/>
      <point x="431" y="975" type="curve" smooth="yes"/>
      <point x="431" y="1074"/>
      <point x="484" y="1441"/>
      <point x="592" y="1441" type="curve" smooth="yes"/>
      <point x="637" y="1441"/>
      <point x="647" y="1407"/>
      <point x="647" y="1353" type="curve" smooth="yes" name="hr02"/>
      <point x="647" y="1249"/>
      <point x="598" y="870"/>
    </contour>
  </outline>
</glyph>
<glyph name="ampersand" format="2">
  <advance width="1267"/>
  <unicode hex="0026"/>
  <outline>
    <contour>
      <point x="369" y="-17" type="curve" smooth="yes"/>
      <point x="492" y="-17"/>
      <point x="604" y="43"/>
      <point x="717" y="135" type="curve"/>
      <point x="762" y="79"/>
      <point x="810" y="28"/>
      <point x="856" y="-15" type="curve" smooth="yes" name="hr01"/>
      <point x="870" y="-28"/>
      <point x="979" y="-3"/>
      <point x="1048" y="52" type="curve" smooth="yes"/>
      <point x="1134" y="121"/>
      <point x="1142" y="145"/>
      <point x="1130" y="152" type="curve" smooth="yes"/>
      <point x="1033" y="204"/>
      <point x="956" y="257"/>
      <point x="893" y="308" type="curve"/>
      <point x="1030" y="470"/>
      <point x="1141" y="665"/>
      <point x="1210" y="824" type="curve" smooth="yes"/>
      <point x="1214" y="834"/>
      <point x="1211" y="850"/>
      <point x="1088" y="895" type="curve" smooth="yes"/>
      <point x="974" y="937"/>
      <point x="961" y="930"/>
      <point x="963" y="910" type="curve" smooth="yes"/>
      <point x="972" y="807"/>
      <point x="914" y="573"/>
      <point x="807" y="390" type="curve"/>
      <point x="685" y="521"/>
      <point x="625" y="655"/>
      <point x="602" y="783" type="curve"/>
      <point x="748" y="907"/>
      <point x="1051" y="1057"/>
      <point x="1051" y="1276" type="curve" smooth="yes"/>
      <point x="1051" y="1414"/>
      <point x="934" y="1498"/>
      <point x="775" y="1498" type="curve" smooth="yes"/>
      <point x="516" y="1498"/>
      <point x="358" y="1264"/>
      <point x="358" y="1026" type="curve" smooth="yes"/>
      <point x="358" y="945"/>
      <point x="370" y="856"/>
      <point x="392" y="770" type="curve"/>
      <point x="200" y="634"/>
      <point x="28" y="469"/>
      <point x="28" y="211" type="curve" smooth="yes"/>
      <point x="28" y="34"/>
      <point x="196" y="-17"/>
    </contour>
    <contour>
      <point x="494" y="146" type="curve" smooth="yes"/>
      <point x="381" y="146"/>
      <point x="327" y="202"/>
      <point x="327" y="303" type="curve" smooth="yes"/>
      <point x="327" y="418"/>
      <point x="370" y="550"/>
      <point x="440" y="620" type="curve"/>
      <point x="496" y="477"/>
      <point x="572" y="334"/>
      <point x="660" y="210" type="curve"/>
      <point x="610" y="170"/>
      <point x="555" y="146"/>
    </contour>
    <contour>
      <point x="588" y="908" type="curve"/>
      <point x="588" y="931"/>
      <point x="589" y="953"/>
      <point x="591" y="976" type="curve" smooth="yes"/>
      <point x="599" y="1100"/>
      <point x="634" y="1442"/>
      <point x="777" y="1442" type="curve" smooth="yes"/>
      <point x="815" y="1442"/>
      <point x="818" y="1403"/>
      <point x="818" y="1347" type="curve" smooth="yes"/>
      <point x="818" y="1139"/>
      <point x="758" y="1035"/>
    </contour>
  </outline>
</glyph>
<glyph name="quotesingle" format="2">
  <advance width="412"/>
  <unicode hex="0027"/>
  <outline>
    <contour>
      <point x="231" y="765" type="line" smooth="yes"/>
      <point x="231" y="754"/>
      <point x="269" y="752"/>
      <point x="275" y="765" type="curve" smooth="yes"/>
      <point x="414" y="1093" type="line" smooth="yes"/>
      <point x="459" y="1196"/>
      <point x="484" y="1283"/>
      <point x="490" y="1310" type="curve" smooth="yes"/>
      <point x="507" y="1408"/>
      <point x="459" y="1457"/>
      <point x="388" y="1457" type="curve" smooth="yes"/>
      <point x="318" y="1457"/>
      <point x="257" y="1421"/>
      <point x="233" y="1298" type="curve" smooth="yes"/>
      <point x="226" y="1263"/>
      <point x="215" y="1183"/>
      <point x="218" y="1095" type="curve" smooth="yes"/>
    </contour>
  </outline>
</glyph>
<glyph name="parenleft" format="2">
  <advance width="733"/>
  <unicode hex="0028"/>
  <outline>
    <contour>
      <point x="616" y="-609" type="curve" smooth="yes"/>
      <point x="634" y="-597"/>
      <point x="615" y="-572"/>
      <point x="554" y="-541" type="curve" smooth="yes"/>
      <point x="472" y="-497"/>
      <point x="377" y="-266"/>
      <point x="377" y="65" type="curve" smooth="yes"/>
      <point x="377" y="478"/>
      <point x="606" y="1335"/>
      <point x="956" y="1527" type="curve" smooth="yes"/>
      <point x="1033" y="1569"/>
      <point x="1049" y="1577"/>
      <point x="1045" y="1589" type="curve" smooth="yes"/>
      <point x="1038" y="1611"/>
      <point x="971" y="1610"/>
      <point x="915" y="1583" type="curve" smooth="yes"/>
      <point x="396" y="1326"/>
      <point x="117" y="756"/>
      <point x="117" y="194" type="curve" smooth="yes"/>
      <point x="117" y="-248"/>
      <point x="306" y="-507"/>
      <point x="492" y="-595" type="curve" smooth="yes"/>
      <point x="546" y="-620"/>
      <point x="587" y="-627"/>
    </contour>
  </outline>
</glyph>
<glyph name="parenright" format="2">
  <advance width="733"/>
  <unicode hex="0029"/>
  <outline>
    <contour>
      <point x="-326" y="-608" type="curve" smooth="yes"/>
      <point x="-318" y="-630"/>
      <point x="-249" y="-629"/>
      <point x="-194" y="-602" type="curve" smooth="yes"/>
      <point x="351" y="-332"/>
      <point x="602" y="308"/>
      <point x="602" y="901" type="curve" smooth="yes"/>
      <point x="602" y="1275"/>
      <point x="400" y="1497"/>
      <point x="231" y="1576" type="curve" smooth="yes"/>
      <point x="176" y="1601"/>
      <point x="133" y="1608"/>
      <point x="104" y="1590" type="curve" smooth="yes"/>
      <point x="86" y="1578"/>
      <point x="106" y="1553"/>
      <point x="166" y="1522" type="curve" smooth="yes"/>
      <point x="250" y="1478"/>
      <point x="345" y="1238"/>
      <point x="345" y="895" type="curve" smooth="yes"/>
      <point x="345" y="488"/>
      <point x="110" y="-356"/>
      <point x="-236" y="-546" type="curve" smooth="yes"/>
      <point x="-311" y="-588"/>
      <point x="-330" y="-596"/>
    </contour>
  </outline>
</glyph>
<glyph name="asterisk" format="2">
  <advance width="1025"/>
  <unicode hex="002A"/>
  <outline>
    <contour>
      <point x="676" y="723" type="curve" smooth="yes"/>
      <point x="689" y="698"/>
      <point x="716" y="687"/>
      <point x="821" y="754" type="curve" smooth="yes"/>
      <point x="923" y="820"/>
      <point x="930" y="852"/>
      <point x="917" y="877" type="curve" smooth="yes"/>
      <point x="863" y="979"/>
      <point x="727" y="998"/>
      <point x="674" y="1104" type="curve"/>
      <point x="804" y="1151"/>
      <point x="915" y="1077"/>
      <point x="1045" y="1116" type="curve" smooth="yes"/>
      <point x="1076" y="1126"/>
      <point x="1099" y="1153"/>
      <point x="1085" y="1261" type="curve" smooth="yes"/>
      <point x="1072" y="1366"/>
      <point x="1043" y="1375"/>
      <point x="1012" y="1365" type="curve" smooth="yes"/>
      <point x="884" y="1326"/>
      <point x="798" y="1199"/>
      <point x="669" y="1162" type="curve"/>
      <point x="686" y="1292"/>
      <point x="815" y="1387"/>
      <point x="840" y="1516" type="curve" smooth="yes"/>
      <point x="846" y="1547"/>
      <point x="830" y="1572"/>
      <point x="716" y="1572" type="curve" smooth="yes" name="hr02"/>
      <point x="605" y="1572"/>
      <point x="584" y="1547"/>
      <point x="578" y="1516" type="curve" smooth="yes"/>
      <point x="552" y="1389"/>
      <point x="636" y="1293"/>
      <point x="608" y="1164" type="curve"/>
      <point x="489" y="1197"/>
      <point x="457" y="1331"/>
      <point x="343" y="1370" type="curve" smooth="yes"/>
      <point x="316" y="1380"/>
      <point x="282" y="1369"/>
      <point x="226" y="1260" type="curve" smooth="yes"/>
      <point x="172" y="1155"/>
      <point x="186" y="1131"/>
      <point x="214" y="1121" type="curve" smooth="yes"/>
      <point x="327" y="1082"/>
      <point x="464" y="1149"/>
      <point x="575" y="1106" type="curve"/>
      <point x="486" y="998"/>
      <point x="337" y="985"/>
      <point x="241" y="880" type="curve" smooth="yes"/>
      <point x="218" y="855"/>
      <point x="215" y="822"/>
      <point x="293" y="755" type="curve" smooth="yes"/>
      <point x="371" y="689"/>
      <point x="400" y="701"/>
      <point x="423" y="726" type="curve" smooth="yes"/>
      <point x="518" y="829"/>
      <point x="520" y="967"/>
      <point x="617" y="1069" type="curve" name="hr01"/>
      <point x="680" y="969"/>
      <point x="620" y="826"/>
    </contour>
  </outline>
</glyph>
<glyph name="plus" format="2">
  <advance width="780"/>
  <unicode hex="002B"/>
  <outline>
    <contour>
      <point x="515" y="835" type="line"/>
      <point x="488" y="867" type="line"/>
      <point x="459" y="860"/>
      <point x="389" y="837"/>
      <point x="364" y="830" type="curve"/>
      <point x="276" y="198" type="line"/>
      <point x="303" y="166" type="line"/>
      <point x="332" y="172"/>
      <point x="399" y="194"/>
      <point x="426" y="206" type="curve"/>
    </contour>
    <contour>
      <point x="734" y="559" type="curve"/>
      <point x="706" y="591" type="line"/>
      <point x="107" y="591" type="line"/>
      <point x="94" y="567"/>
      <point x="56" y="502"/>
      <point x="46" y="475" type="curve"/>
      <point x="72" y="442" type="line"/>
      <point x="672" y="442" type="line"/>
      <point x="682" y="462"/>
      <point x="723" y="531"/>
    </contour>
  </outline>
</glyph>
<glyph name="comma" format="2">
  <advance width="457"/>
  <unicode hex="002C"/>
  <outline>
    <contour>
      <point x="-50" y="-397" type="curve" smooth="yes"/>
      <point x="-48" y="-423"/>
      <point x="209" y="-303"/>
      <point x="279" y="57" type="curve" smooth="yes"/>
      <point x="286" y="87"/>
      <point x="287" y="116"/>
      <point x="287" y="144" type="curve" smooth="yes"/>
      <point x="287" y="239"/>
      <point x="247" y="310"/>
      <point x="172" y="310" type="curve" smooth="yes"/>
      <point x="71" y="310"/>
      <point x="20" y="203"/>
      <point x="20" y="110" type="curve" smooth="yes"/>
      <point x="20" y="32"/>
      <point x="70" y="-17"/>
      <point x="118" y="-17" type="curve" smooth="yes"/>
      <point x="149" y="-17"/>
      <point x="156" y="10"/>
      <point x="166" y="10" type="curve" smooth="yes"/>
      <point x="171" y="10"/>
      <point x="171" y="6"/>
      <point x="170" y="-9" type="curve" smooth="yes"/>
      <point x="168" y="-21"/>
      <point x="167" y="-43"/>
      <point x="164" y="-60" type="curve" smooth="yes"/>
      <point x="123" y="-242"/>
      <point x="-52" y="-378"/>
    </contour>
  </outline>
</glyph>
<glyph name="hyphen" format="2">
  <advance width="756"/>
  <unicode hex="002D"/>
  <outline>
    <contour>
      <point x="126" y="465" type="curve" smooth="yes"/>
      <point x="610" y="465" type="line" smooth="yes"/>
      <point x="624" y="465"/>
      <point x="634" y="490"/>
      <point x="645" y="551" type="curve" smooth="yes"/>
      <point x="656" y="607"/>
      <point x="656" y="637"/>
      <point x="641" y="637" type="curve" smooth="yes"/>
      <point x="162" y="637" type="line" smooth="yes"/>
      <point x="146" y="637"/>
      <point x="135" y="607"/>
      <point x="125" y="551" type="curve" smooth="yes"/>
      <point x="113" y="490"/>
      <point x="111" y="465"/>
    </contour>
  </outline>
</glyph>
<glyph name="period" format="2">
  <advance width="422"/>
  <unicode hex="002E"/>
  <outline>
    <contour>
      <point x="108" y="-17" type="curve" smooth="yes"/>
      <point x="201" y="-17"/>
      <point x="262" y="88"/>
      <point x="262" y="169" type="curve" smooth="yes"/>
      <point x="262" y="246"/>
      <point x="222" y="295"/>
      <point x="168" y="295" type="curve" smooth="yes"/>
      <point x="76" y="295"/>
      <point x="14" y="192"/>
      <point x="14" y="113" type="curve" smooth="yes"/>
      <point x="14" y="24"/>
      <point x="57" y="-17"/>
    </contour>
  </outline>
</glyph>
<glyph name="slash" format="2">
  <advance width="855"/>
  <unicode hex="002F"/>
  <outline>
    <contour>
      <point x="945" y="1439" type="line"/>
      <point x="906" y="1471" type="line"/>
      <point x="870" y="1461"/>
      <point x="754" y="1424"/>
      <point x="721" y="1403" type="curve"/>
      <point x="-102" y="-274" type="line"/>
      <point x="-64" y="-309" type="line"/>
      <point x="-33" y="-299"/>
      <point x="100" y="-256"/>
      <point x="125" y="-239" type="curve"/>
    </contour>
  </outline>
</glyph>
<glyph name="zero" format="2">
  <advance width="956"/>
  <unicode hex="0030"/>
  <outline>
    <contour>
      <point x="385" y="-17" type="curve" smooth="yes"/>
      <point x="802" y="-17"/>
      <point x="975" y="664"/>
      <point x="975" y="1009" type="curve" smooth="yes"/>
      <point x="975" y="1282"/>
      <point x="892" y="1498"/>
      <point x="659" y="1498" type="curve" smooth="yes"/>
      <point x="266" y="1498"/>
      <point x="75" y="829"/>
      <point x="75" y="496" type="curve" smooth="yes"/>
      <point x="75" y="226"/>
      <point x="162" y="-17"/>
    </contour>
    <contour>
      <point x="385" y="39" type="curve" smooth="yes"/>
      <point x="328" y="39"/>
      <point x="311" y="99"/>
      <point x="311" y="205" type="curve" smooth="yes"/>
      <point x="311" y="427"/>
      <point x="468" y="1442"/>
      <point x="659" y="1442" type="curve" smooth="yes"/>
      <point x="719" y="1442"/>
      <point x="736" y="1382"/>
      <point x="736" y="1277" type="curve" smooth="yes"/>
      <point x="736" y="1058"/>
      <point x="575" y="39"/>
    </contour>
  </outline>
</glyph>
<glyph name="one" format="2">
  <advance width="956"/>
  <unicode hex="0031"/>
  <outline>
    <contour>
      <point x="485" y="-17" type="curve" smooth="yes"/>
      <point x="537" y="-17"/>
      <point x="609" y="-17"/>
      <point x="617" y="24" type="curve" smooth="yes"/>
      <point x="627" y="76"/>
      <point x="687" y="504"/>
      <point x="738" y="768" type="curve" smooth="yes"/>
      <point x="791" y="1040"/>
      <point x="889" y="1422"/>
      <point x="893" y="1447" type="curve" smooth="yes"/>
      <point x="901" y="1488"/>
      <point x="827" y="1488"/>
      <point x="777" y="1488" type="curve" smooth="yes"/>
      <point x="727" y="1488"/>
      <point x="657" y="1488"/>
      <point x="645" y="1447" type="curve" smooth="yes"/>
      <point x="631" y="1400"/>
      <point x="326" y="1065"/>
      <point x="267" y="1018" type="curve" smooth="yes"/>
      <point x="249" y="1005"/>
      <point x="260" y="982"/>
      <point x="322" y="929" type="curve" smooth="yes"/>
      <point x="362" y="894"/>
      <point x="398" y="891"/>
      <point x="407" y="912" type="curve" smooth="yes"/>
      <point x="456" y="1024"/>
      <point x="543" y="1172"/>
      <point x="621" y="1285" type="curve"/>
      <point x="599" y="1141"/>
      <point x="568" y="939"/>
      <point x="535" y="768" type="curve" smooth="yes"/>
      <point x="484" y="504"/>
      <point x="379" y="76"/>
      <point x="369" y="24" type="curve" smooth="yes"/>
      <point x="361" y="-17"/>
      <point x="433" y="-17"/>
    </contour>
  </outline>
</glyph>
<glyph name="two" format="2">
  <advance width="956"/>
  <unicode hex="0032"/>
  <outline>
    <contour>
      <point x="32" y="-16" type="curve" smooth="yes"/>
      <point x="447" y="-16" type="line" smooth="yes"/>
      <point x="588" y="-16"/>
      <point x="672" y="-16"/>
      <point x="754" y="0" type="curve" smooth="yes"/>
      <point x="766" y="2"/>
      <point x="785" y="15"/>
      <point x="787" y="93" type="curve" smooth="yes"/>
      <point x="789" y="167"/>
      <point x="774" y="188"/>
      <point x="765" y="185" type="curve" smooth="yes"/>
      <point x="706" y="164"/>
      <point x="654" y="124"/>
      <point x="505" y="124" type="curve" smooth="yes"/>
      <point x="347" y="124" type="line" smooth="yes"/>
      <point x="323" y="124"/>
      <point x="292" y="153"/>
      <point x="307" y="229" type="curve" smooth="yes"/>
      <point x="344" y="419"/>
      <point x="401" y="514"/>
      <point x="516" y="622" type="curve" smooth="yes"/>
      <point x="932" y="1009"/>
      <point x="1011" y="1087"/>
      <point x="1011" y="1263" type="curve" smooth="yes"/>
      <point x="1011" y="1432"/>
      <point x="863" y="1498"/>
      <point x="670" y="1498" type="curve" smooth="yes"/>
      <point x="464" y="1498"/>
      <point x="351" y="1430"/>
      <point x="266" y="1342" type="curve" smooth="yes"/>
      <point x="252" y="1328"/>
      <point x="241" y="1294"/>
      <point x="306" y="1237" type="curve" smooth="yes"/>
      <point x="374" y="1177"/>
      <point x="438" y="1186"/>
      <point x="448" y="1211" type="curve" smooth="yes"/>
      <point x="509" y="1365"/>
      <point x="535" y="1443"/>
      <point x="650" y="1443" type="curve" smooth="yes"/>
      <point x="714" y="1443"/>
      <point x="734" y="1392"/>
      <point x="734" y="1309" type="curve" smooth="yes"/>
      <point x="734" y="1093"/>
      <point x="651" y="891"/>
      <point x="403" y="654" type="curve" smooth="yes"/>
      <point x="136" y="401"/>
      <point x="38" y="304"/>
      <point x="-1" y="106" type="curve" smooth="yes"/>
      <point x="-22" y="0"/>
      <point x="-6" y="-16"/>
    </contour>
  </outline>
</glyph>
<glyph name="three" format="2">
  <advance width="956"/>
  <unicode hex="0033"/>
  <outline>
    <contour>
      <point x="363" y="-17" type="curve" smooth="yes"/>
      <point x="684" y="-17"/>
      <point x="889" y="256"/>
      <point x="889" y="558" type="curve" smooth="yes" name="hr01"/>
      <point x="889" y="721"/>
      <point x="808" y="832"/>
      <point x="692" y="857" type="curve"/>
      <point x="855" y="895"/>
      <point x="967" y="1066"/>
      <point x="967" y="1228" type="curve" smooth="yes"/>
      <point x="967" y="1378"/>
      <point x="865" y="1498"/>
      <point x="652" y="1498" type="curve" smooth="yes"/>
      <point x="518" y="1498"/>
      <point x="353" y="1429"/>
      <point x="284" y="1332" type="curve" smooth="yes"/>
      <point x="259" y="1298"/>
      <point x="264" y="1282"/>
      <point x="311" y="1243" type="curve" smooth="yes"/>
      <point x="412" y="1162"/>
      <point x="441" y="1172"/>
      <point x="469" y="1206" type="curve" smooth="yes"/>
      <point x="486" y="1223"/>
      <point x="493" y="1443"/>
      <point x="632" y="1443" type="curve" smooth="yes"/>
      <point x="685" y="1443"/>
      <point x="700" y="1396"/>
      <point x="700" y="1327" type="curve" smooth="yes" name="hr02"/>
      <point x="700" y="1198"/>
      <point x="686" y="913"/>
      <point x="515" y="913" type="curve" smooth="yes"/>
      <point x="493" y="913"/>
      <point x="479" y="891"/>
      <point x="474" y="854" type="curve" smooth="yes"/>
      <point x="464" y="793"/>
      <point x="476" y="786"/>
      <point x="481" y="787" type="curve" smooth="yes"/>
      <point x="580" y="806"/>
      <point x="615" y="759"/>
      <point x="615" y="660" type="curve" smooth="yes"/>
      <point x="615" y="509"/>
      <point x="528" y="39"/>
      <point x="355" y="39" type="curve" smooth="yes"/>
      <point x="245" y="39"/>
      <point x="300" y="258"/>
      <point x="287" y="311" type="curve" smooth="yes"/>
      <point x="285" y="322"/>
      <point x="247" y="329"/>
      <point x="128" y="271" type="curve" smooth="yes"/>
      <point x="43" y="230"/>
      <point x="22" y="204"/>
      <point x="33" y="170" type="curve" smooth="yes"/>
      <point x="57" y="92"/>
      <point x="163" y="-17"/>
    </contour>
  </outline>
</glyph>
<glyph name="four" format="2">
  <advance width="956"/>
  <unicode hex="0034"/>
  <outline>
    <contour>
      <point x="585" y="-17" type="curve" smooth="yes"/>
      <point x="637" y="-17"/>
      <point x="709" y="-17"/>
      <point x="717" y="24" type="curve" smooth="yes"/>
      <point x="723" y="55"/>
      <point x="747" y="223"/>
      <point x="777" y="410" type="curve"/>
      <point x="818" y="412"/>
      <point x="854" y="416"/>
      <point x="881" y="421" type="curve" smooth="yes"/>
      <point x="893" y="423"/>
      <point x="910" y="462"/>
      <point x="916" y="526" type="curve" smooth="yes"/>
      <point x="922" y="600"/>
      <point x="904" y="637"/>
      <point x="896" y="630" type="curve" smooth="yes"/>
      <point x="871" y="609"/>
      <point x="840" y="592"/>
      <point x="805" y="578" type="curve"/>
      <point x="817" y="649"/>
      <point x="829" y="719"/>
      <point x="841" y="779" type="curve" smooth="yes"/>
      <point x="892" y="1043"/>
      <point x="982" y="1401"/>
      <point x="993" y="1459" type="curve" smooth="yes"/>
      <point x="1001" y="1500"/>
      <point x="928" y="1500"/>
      <point x="878" y="1500" type="curve" smooth="yes"/>
      <point x="820" y="1500"/>
      <point x="764" y="1494"/>
      <point x="747" y="1456" type="curve" smooth="yes"/>
      <point x="711" y="1369"/>
      <point x="407" y="992"/>
      <point x="416" y="1002" type="curve" smooth="yes"/>
      <point x="210" y="756"/>
      <point x="88" y="633"/>
      <point x="56" y="467" type="curve" smooth="yes"/>
      <point x="47" y="420"/>
      <point x="67" y="405"/>
      <point x="113" y="405" type="curve" smooth="yes"/>
      <point x="557" y="405" type="line" name="hr01"/>
      <point x="514" y="220"/>
      <point x="475" y="55"/>
      <point x="469" y="24" type="curve" smooth="yes"/>
      <point x="461" y="-17"/>
      <point x="533" y="-17"/>
    </contour>
    <contour>
      <point x="363" y="543" type="line" smooth="yes"/>
      <point x="341" y="543"/>
      <point x="331" y="576"/>
      <point x="336" y="601" type="curve" smooth="yes"/>
      <point x="374" y="798"/>
      <point x="452" y="876"/>
      <point x="666" y="1183" type="curve" smooth="yes"/>
      <point x="677" y="1204"/>
      <point x="697" y="1237"/>
      <point x="719" y="1272" type="curve"/>
      <point x="698" y="1131"/>
      <point x="668" y="938"/>
      <point x="637" y="779" type="curve" smooth="yes"/>
      <point x="624" y="709"/>
      <point x="606" y="627"/>
      <point x="588" y="543" type="curve"/>
    </contour>
  </outline>
</glyph>
<glyph name="five" format="2">
  <advance width="956"/>
  <unicode hex="0035"/>
  <outline>
    <contour>
      <point x="373" y="-17" type="curve" smooth="yes"/>
      <point x="727" y="-17"/>
      <point x="908" y="307"/>
      <point x="908" y="626" type="curve" smooth="yes"/>
      <point x="908" y="875"/>
      <point x="750" y="969"/>
      <point x="575" y="969" type="curve" smooth="yes" name="hr01"/>
      <point x="473" y="969"/>
      <point x="492" y="957"/>
      <point x="484" y="957" type="curve" smooth="yes"/>
      <point x="475" y="957"/>
      <point x="473" y="957"/>
      <point x="478" y="974" type="curve" smooth="yes"/>
      <point x="508" y="1069"/>
      <point x="593" y="1315"/>
      <point x="601" y="1334" type="curve" smooth="yes"/>
      <point x="609" y="1354"/>
      <point x="620" y="1353"/>
      <point x="641" y="1353" type="curve" smooth="yes"/>
      <point x="810" y="1353" type="line" smooth="yes"/>
      <point x="882" y="1353"/>
      <point x="931" y="1307"/>
      <point x="952" y="1302" type="curve" smooth="yes"/>
      <point x="961" y="1299"/>
      <point x="970" y="1302"/>
      <point x="1008" y="1385" type="curve" smooth="yes"/>
      <point x="1036" y="1446"/>
      <point x="1035" y="1474"/>
      <point x="1024" y="1478" type="curve" smooth="yes"/>
      <point x="999" y="1488"/>
      <point x="933" y="1491"/>
      <point x="830" y="1491" type="curve" smooth="yes"/>
      <point x="441" y="1491" type="line" smooth="yes"/>
      <point x="408" y="1491"/>
      <point x="396" y="1481"/>
      <point x="392" y="1462" type="curve" smooth="yes"/>
      <point x="384" y="1420"/>
      <point x="222" y="960"/>
      <point x="194" y="890" type="curve" smooth="yes"/>
      <point x="188" y="872"/>
      <point x="199" y="856"/>
      <point x="267" y="821" type="curve" smooth="yes"/>
      <point x="325" y="792"/>
      <point x="367" y="783"/>
      <point x="381" y="783" type="curve" smooth="yes"/>
      <point x="451" y="783"/>
      <point x="451" y="916"/>
      <point x="566" y="916" type="curve" smooth="yes"/>
      <point x="623" y="916"/>
      <point x="642" y="865"/>
      <point x="642" y="765" type="curve" smooth="yes"/>
      <point x="642" y="613"/>
      <point x="558" y="39"/>
      <point x="365" y="39" type="curve" smooth="yes"/>
      <point x="240" y="39"/>
      <point x="315" y="172"/>
      <point x="285" y="305" type="curve" smooth="yes"/>
      <point x="281" y="325"/>
      <point x="229" y="320"/>
      <point x="141" y="271" type="curve" smooth="yes"/>
      <point x="39" y="216"/>
      <point x="17" y="173"/>
      <point x="35" y="152" type="curve" smooth="yes"/>
      <point x="96" y="80"/>
      <point x="202" y="-17"/>
    </contour>
  </outline>
</glyph>
<glyph name="six" format="2">
  <advance width="956"/>
  <unicode hex="0036"/>
  <outline>
    <contour>
      <point x="385" y="-17" type="curve" smooth="yes"/>
      <point x="693" y="-17"/>
      <point x="907" y="313"/>
      <point x="907" y="598" type="curve" smooth="yes" name="hr01"/>
      <point x="907" y="783"/>
      <point x="803" y="968"/>
      <point x="556" y="968" type="curve" smooth="yes"/>
      <point x="511" y="968"/>
      <point x="477" y="958"/>
      <point x="429" y="936" type="curve"/>
      <point x="505" y="1274"/>
      <point x="568" y="1443"/>
      <point x="707" y="1443" type="curve" smooth="yes"/>
      <point x="785" y="1443"/>
      <point x="793" y="1305"/>
      <point x="764" y="1218" type="curve" smooth="yes"/>
      <point x="756" y="1181"/>
      <point x="782" y="1157"/>
      <point x="892" y="1217" type="curve" smooth="yes"/>
      <point x="981" y="1264"/>
      <point x="1010" y="1310"/>
      <point x="1001" y="1328" type="curve" smooth="yes"/>
      <point x="956" y="1423"/>
      <point x="844" y="1499"/>
      <point x="719" y="1499" type="curve" smooth="yes"/>
      <point x="260" y="1499"/>
      <point x="61" y="794"/>
      <point x="61" y="404" type="curve" smooth="yes"/>
      <point x="61" y="127"/>
      <point x="196" y="-17"/>
    </contour>
    <contour>
      <point x="385" y="39" type="curve" smooth="yes"/>
      <point x="321" y="39"/>
      <point x="299" y="90"/>
      <point x="299" y="185" type="curve" smooth="yes"/>
      <point x="299" y="283"/>
      <point x="321" y="418"/>
      <point x="358" y="592" type="curve" smooth="yes"/>
      <point x="390" y="782"/>
      <point x="460" y="912"/>
      <point x="555" y="912" type="curve" smooth="yes"/>
      <point x="620" y="912"/>
      <point x="640" y="848"/>
      <point x="640" y="759" type="curve" smooth="yes"/>
      <point x="640" y="600"/>
      <point x="563" y="39"/>
    </contour>
  </outline>
</glyph>
<glyph name="seven" format="2">
  <advance width="956"/>
  <unicode hex="0037"/>
  <outline>
    <contour>
      <point x="240" y="-4" type="curve" smooth="yes"/>
      <point x="342" y="-22"/>
      <point x="375" y="-22"/>
      <point x="379" y="0" type="curve" smooth="yes"/>
      <point x="395" y="83"/>
      <point x="436" y="390"/>
      <point x="662" y="733" type="curve" smooth="yes"/>
      <point x="990" y="1230"/>
      <point x="1039" y="1310"/>
      <point x="1053" y="1382" type="curve" smooth="yes"/>
      <point x="1057" y="1405"/>
      <point x="1057" y="1415"/>
      <point x="1056" y="1434" type="curve" smooth="yes"/>
      <point x="1053" y="1486"/>
      <point x="1055" y="1491"/>
      <point x="1038" y="1491" type="curve" smooth="yes"/>
      <point x="588" y="1491" type="line" smooth="yes"/>
      <point x="448" y="1491"/>
      <point x="343" y="1490"/>
      <point x="261" y="1474" type="curve" smooth="yes"/>
      <point x="249" y="1472"/>
      <point x="238" y="1447"/>
      <point x="243" y="1390" type="curve" smooth="yes"/>
      <point x="250" y="1314"/>
      <point x="263" y="1297"/>
      <point x="272" y="1301" type="curve" smooth="yes"/>
      <point x="371" y="1350"/>
      <point x="443" y="1361"/>
      <point x="573" y="1361" type="curve" smooth="yes"/>
      <point x="781" y="1361" type="line" smooth="yes"/>
      <point x="803" y="1361"/>
      <point x="830" y="1343"/>
      <point x="814" y="1263" type="curve" smooth="yes"/>
      <point x="792" y="1150"/>
      <point x="710" y="994"/>
      <point x="568" y="780" type="curve" smooth="yes"/>
      <point x="364" y="472"/>
      <point x="162" y="138"/>
      <point x="135" y="54" type="curve" smooth="yes"/>
      <point x="127" y="30"/>
      <point x="165" y="9"/>
    </contour>
  </outline>
</glyph>
<glyph name="eight" format="2">
  <advance width="956"/>
  <unicode hex="0038"/>
  <outline>
    <contour>
      <point x="385" y="-17" type="curve" smooth="yes"/>
      <point x="718" y="-17"/>
      <point x="896" y="252"/>
      <point x="896" y="553" type="curve" smooth="yes" name="hr01"/>
      <point x="896" y="693"/>
      <point x="847" y="815"/>
      <point x="719" y="866" type="curve"/>
      <point x="869" y="918"/>
      <point x="981" y="1049"/>
      <point x="981" y="1209" type="curve" smooth="yes"/>
      <point x="981" y="1349"/>
      <point x="888" y="1498"/>
      <point x="659" y="1498" type="curve" smooth="yes"/>
      <point x="442" y="1498"/>
      <point x="226" y="1323"/>
      <point x="226" y="1096" type="curve" smooth="yes" name="hr02"/>
      <point x="226" y="999"/>
      <point x="273" y="906"/>
      <point x="381" y="864" type="curve"/>
      <point x="180" y="789"/>
      <point x="29" y="574"/>
      <point x="29" y="362" type="curve" smooth="yes"/>
      <point x="29" y="201"/>
      <point x="94" y="-17"/>
    </contour>
    <contour>
      <point x="385" y="39" type="curve" smooth="yes"/>
      <point x="316" y="39"/>
      <point x="298" y="105"/>
      <point x="298" y="201" type="curve" smooth="yes"/>
      <point x="298" y="352"/>
      <point x="371" y="838"/>
      <point x="541" y="838" type="curve" smooth="yes"/>
      <point x="610" y="838"/>
      <point x="628" y="776"/>
      <point x="628" y="678" type="curve" smooth="yes" name="hr03"/>
      <point x="628" y="529"/>
      <point x="563" y="39"/>
    </contour>
    <contour>
      <point x="552" y="894" type="curve" smooth="yes"/>
      <point x="517" y="894"/>
      <point x="500" y="925"/>
      <point x="500" y="975" type="curve" smooth="yes"/>
      <point x="500" y="1079"/>
      <point x="542" y="1442"/>
      <point x="659" y="1442" type="curve" smooth="yes"/>
      <point x="702" y="1442"/>
      <point x="716" y="1387"/>
      <point x="716" y="1312" type="curve" smooth="yes"/>
      <point x="716" y="1211"/>
      <point x="676" y="894"/>
    </contour>
  </outline>
</glyph>
<glyph name="nine" format="2">
  <advance width="956"/>
  <unicode hex="0039"/>
  <outline>
    <contour>
      <point x="363" y="-17" type="curve" smooth="yes"/>
      <point x="772" y="-17"/>
      <point x="980" y="701"/>
      <point x="980" y="1046" type="curve" smooth="yes"/>
      <point x="980" y="1343"/>
      <point x="855" y="1499"/>
      <point x="659" y="1499" type="curve" smooth="yes"/>
      <point x="352" y="1499"/>
      <point x="148" y="1191"/>
      <point x="148" y="905" type="curve" smooth="yes" name="hr01"/>
      <point x="148" y="700"/>
      <point x="290" y="574"/>
      <point x="510" y="574" type="curve" smooth="yes"/>
      <point x="565" y="574"/>
      <point x="605" y="588"/>
      <point x="649" y="611" type="curve"/>
      <point x="573" y="261"/>
      <point x="493" y="43"/>
      <point x="352" y="43" type="curve" smooth="yes"/>
      <point x="238" y="43"/>
      <point x="281" y="238"/>
      <point x="273" y="284" type="curve" smooth="yes"/>
      <point x="268" y="314"/>
      <point x="244" y="314"/>
      <point x="135" y="259" type="curve" smooth="yes"/>
      <point x="54" y="218"/>
      <point x="27" y="196"/>
      <point x="42" y="164" type="curve" smooth="yes"/>
      <point x="89" y="63"/>
      <point x="182" y="-17"/>
    </contour>
    <contour>
      <point x="505" y="655" type="curve" smooth="yes"/>
      <point x="423" y="655"/>
      <point x="395" y="713"/>
      <point x="395" y="813" type="curve" smooth="yes"/>
      <point x="395" y="969"/>
      <point x="482" y="1439"/>
      <point x="658" y="1439" type="curve" smooth="yes"/>
      <point x="722" y="1439"/>
      <point x="751" y="1382"/>
      <point x="751" y="1275" type="curve" smooth="yes"/>
      <point x="751" y="1192"/>
      <point x="737" y="1077"/>
      <point x="712" y="934" type="curve"/>
      <point x="668" y="771"/>
      <point x="603" y="655"/>
    </contour>
  </outline>
</glyph>
<glyph name="colon" format="2">
  <advance width="431"/>
  <unicode hex="003A"/>
  <outline>
    <contour>
      <point x="215" y="511" type="curve" smooth="yes"/>
      <point x="311" y="511"/>
      <point x="374" y="620"/>
      <point x="374" y="704" type="curve" smooth="yes"/>
      <point x="374" y="785"/>
      <point x="334" y="836"/>
      <point x="277" y="836" type="curve" smooth="yes"/>
      <point x="182" y="836"/>
      <point x="117" y="728"/>
      <point x="117" y="647" type="curve" smooth="yes"/>
      <point x="117" y="552"/>
      <point x="162" y="511"/>
    </contour>
    <contour>
      <point x="113" y="-17" type="curve" smooth="yes"/>
      <point x="209" y="-17"/>
      <point x="272" y="92"/>
      <point x="272" y="176" type="curve" smooth="yes" name="hr01"/>
      <point x="272" y="257"/>
      <point x="232" y="308"/>
      <point x="175" y="308" type="curve" smooth="yes"/>
      <point x="80" y="308"/>
      <point x="15" y="200"/>
      <point x="15" y="119" type="curve" smooth="yes"/>
      <point x="15" y="24"/>
      <point x="60" y="-17"/>
    </contour>
  </outline>
</glyph>
<glyph name="semicolon" format="2">
  <advance width="459"/>
  <unicode hex="003B"/>
  <outline>
    <contour>
      <point x="-50" y="-397" type="curve" smooth="yes"/>
      <point x="-48" y="-423"/>
      <point x="209" y="-304"/>
      <point x="279" y="57" type="curve" smooth="yes"/>
      <point x="286" y="87"/>
      <point x="287" y="116"/>
      <point x="287" y="144" type="curve" smooth="yes" name="hr01"/>
      <point x="287" y="239"/>
      <point x="247" y="310"/>
      <point x="172" y="310" type="curve" smooth="yes"/>
      <point x="71" y="310"/>
      <point x="20" y="203"/>
      <point x="20" y="110" type="curve" smooth="yes"/>
      <point x="20" y="32"/>
      <point x="70" y="-17"/>
      <point x="118" y="-17" type="curve" smooth="yes"/>
      <point x="149" y="-17"/>
      <point x="156" y="10"/>
      <point x="166" y="10" type="curve" smooth="yes"/>
      <point x="171" y="10"/>
      <point x="171" y="6"/>
      <point x="170" y="-9" type="curve" smooth="yes"/>
      <point x="168" y="-21"/>
      <point x="167" y="-43"/>
      <point x="164" y="-60" type="curve" smooth="yes"/>
      <point x="123" y="-242"/>
      <point x="-52" y="-378"/>
    </contour>
    <contour>
      <point x="213" y="511" type="curve" smooth="yes"/>
      <point x="309" y="511"/>
      <point x="372" y="621"/>
      <point x="372" y="704" type="curve" smooth="yes"/>
      <point x="372" y="785"/>
      <point x="332" y="836"/>
      <point x="275" y="836" type="curve" smooth="yes"/>
      <point x="180" y="836"/>
      <point x="115" y="728"/>
      <point x="115" y="647" type="curve" smooth="yes"/>
      <point x="115" y="552"/>
      <point x="160" y="511"/>
    </contour>
  </outline>
</glyph>
<glyph name="less" format="2">
  <advance width="828"/>
  <unicode hex="003C"/>
  <outline>
    <contour>
      <point x="620" y="217" type="line"/>
      <point x="656" y="240"/>
      <point x="700" y="284"/>
      <point x="727" y="309" type="curve"/>
      <point x="711" y="351" type="line"/>
      <point x="295" y="523" type="line"/>
      <point x="747" y="693" type="line"/>
      <point x="757" y="716"/>
      <point x="788" y="794"/>
      <point x="797" y="820" type="curve"/>
      <point x="771" y="852" type="line"/>
      <point x="105" y="601" type="line"/>
      <point x="91" y="571"/>
      <point x="67" y="515"/>
      <point x="55" y="483" type="curve"/>
      <point x="78" y="441" type="line"/>
    </contour>
  </outline>
</glyph>
<glyph name="greater" format="2">
  <advance width="839"/>
  <unicode hex="003E"/>
  <outline>
    <contour>
      <point x="748" y="634" type="line"/>
      <point x="203" y="857" type="line"/>
      <point x="166" y="834"/>
      <point x="117" y="783"/>
      <point x="90" y="758" type="curve"/>
      <point x="107" y="714" type="line"/>
      <point x="517" y="547" type="line"/>
      <point x="74" y="381" type="line"/>
      <point x="64" y="358"/>
      <point x="30" y="274"/>
      <point x="22" y="247" type="curve"/>
      <point x="46" y="213" type="line"/>
      <point x="718" y="464" type="line"/>
      <point x="735" y="496"/>
      <point x="759" y="553"/>
      <point x="772" y="588" type="curve"/>
    </contour>
  </outline>
</glyph>
<glyph name="question" format="2">
  <advance width="806"/>
  <unicode hex="003F"/>
  <outline>
    <contour>
      <point x="370" y="347" type="curve" smooth="yes"/>
      <point x="402" y="346"/>
      <point x="468" y="344"/>
      <point x="469" y="353" type="curve" smooth="yes"/>
      <point x="471" y="374"/>
      <point x="477" y="429"/>
      <point x="490" y="442" type="curve" smooth="yes"/>
      <point x="504" y="453"/>
      <point x="707" y="486"/>
      <point x="752" y="713" type="curve" smooth="yes"/>
      <point x="756" y="734"/>
      <point x="755" y="754"/>
      <point x="755" y="772" type="curve" smooth="yes"/>
      <point x="755" y="908"/>
      <point x="628" y="969"/>
      <point x="485" y="969" type="curve" smooth="yes"/>
      <point x="303" y="969"/>
      <point x="216" y="879"/>
      <point x="166" y="808" type="curve" smooth="yes"/>
      <point x="151" y="786"/>
      <point x="144" y="762"/>
      <point x="218" y="737" type="curve" smooth="yes"/>
      <point x="316" y="704"/>
      <point x="339" y="714"/>
      <point x="348" y="748" type="curve" smooth="yes"/>
      <point x="364" y="812"/>
      <point x="408" y="912"/>
      <point x="467" y="912" type="curve" smooth="yes" name="hr01"/>
      <point x="514" y="912"/>
      <point x="531" y="881"/>
      <point x="531" y="816" type="curve" smooth="yes"/>
      <point x="531" y="789"/>
      <point x="525" y="758"/>
      <point x="518" y="718" type="curve" smooth="yes"/>
      <point x="484" y="544"/>
      <point x="328" y="499"/>
      <point x="317" y="487" type="curve" smooth="yes"/>
      <point x="303" y="472"/>
      <point x="278" y="392"/>
      <point x="278" y="370" type="curve" smooth="yes"/>
      <point x="278" y="357"/>
      <point x="328" y="348"/>
    </contour>
    <contour>
      <point x="297" y="-16" type="curve" smooth="yes"/>
      <point x="398" y="-16"/>
      <point x="450" y="77"/>
      <point x="450" y="167" type="curve" smooth="yes"/>
      <point x="450" y="235"/>
      <point x="414" y="286"/>
      <point x="358" y="286" type="curve" smooth="yes"/>
      <point x="257" y="286"/>
      <point x="204" y="200"/>
      <point x="204" y="109" type="curve" smooth="yes"/>
      <point x="204" y="36"/>
      <point x="244" y="-16"/>
    </contour>
  </outline>
</glyph>
<glyph name="at" format="2">
  <advance width="1615"/>
  <unicode hex="0040"/>
  <outline>
    <contour>
      <point x="1555" y="505" type="curve"/>
      <point x="1621" y="965"/>
      <point x="1329" y="1226"/>
      <point x="969" y="1226" type="curve" smooth="yes"/>
      <point x="488" y="1226"/>
      <point x="109" y="841"/>
      <point x="51" y="427" type="curve" smooth="yes"/>
      <point x="-15" y="-43"/>
      <point x="330" y="-345"/>
      <point x="758" y="-345" type="curve" smooth="yes"/>
      <point x="1049" y="-345"/>
      <point x="1276" y="-186"/>
      <point x="1370" y="-92" type="curve"/>
      <point x="1333" y="14" type="line"/>
      <point x="1255" y="-49"/>
      <point x="1045" y="-180"/>
      <point x="839" y="-180" type="curve" smooth="yes"/>
      <point x="562" y="-180"/>
      <point x="257" y="18"/>
      <point x="318" y="463" type="curve"/>
      <point x="366" y="794"/>
      <point x="602" y="1073"/>
      <point x="887" y="1073" type="curve" smooth="yes"/>
      <point x="1159" y="1073"/>
      <point x="1375" y="884"/>
      <point x="1313" y="469" type="curve" smooth="yes"/>
      <point x="1282" y="260"/>
      <point x="1252" y="186"/>
      <point x="1189" y="186" type="curve" smooth="yes"/>
      <point x="1160" y="186"/>
      <point x="1139" y="226"/>
      <point x="1139" y="290" type="curve" smooth="yes"/>
      <point x="1139" y="344"/>
      <point x="1156" y="479"/>
      <point x="1194" y="655" type="curve"/>
      <point x="1210" y="738"/>
      <point x="1225" y="751"/>
      <point x="1267" y="785" type="curve"/>
      <point x="1232" y="861" type="line"/>
      <point x="1150" y="821"/>
      <point x="952" y="764"/>
      <point x="940" y="708" type="curve"/>
      <point x="927" y="636"/>
      <point x="871" y="329"/>
      <point x="871" y="258" type="curve" smooth="yes"/>
      <point x="871" y="12"/>
      <point x="976" y="-37"/>
      <point x="1019" y="-37" type="curve" smooth="yes"/>
      <point x="1163" y="-37"/>
      <point x="1512" y="186"/>
    </contour>
    <contour>
      <point x="1176" y="780" type="curve"/>
      <point x="1133" y="785"/>
      <point x="1044" y="861"/>
      <point x="961" y="861" type="curve" smooth="yes"/>
      <point x="884" y="861"/>
      <point x="756" y="819"/>
      <point x="689" y="774" type="curve" smooth="yes"/>
      <point x="516" y="655"/>
      <point x="409" y="474"/>
      <point x="409" y="280" type="curve" smooth="yes"/>
      <point x="409" y="50"/>
      <point x="545" y="-37"/>
      <point x="628" y="-37" type="curve" smooth="yes"/>
      <point x="713" y="-37"/>
      <point x="836" y="45"/>
      <point x="897" y="156" type="curve"/>
      <point x="910" y="343" type="line"/>
      <point x="808" y="194"/>
      <point x="750" y="176"/>
      <point x="718" y="176" type="curve" smooth="yes"/>
      <point x="703" y="176"/>
      <point x="668" y="224"/>
      <point x="668" y="348" type="curve" smooth="yes"/>
      <point x="668" y="494"/>
      <point x="722" y="709"/>
      <point x="856" y="709" type="curve" smooth="yes"/>
      <point x="934" y="709"/>
      <point x="1033" y="542"/>
      <point x="1067" y="542" type="curve" smooth="yes"/>
      <point x="1097" y="542"/>
      <point x="1123" y="744"/>
    </contour>
  </outline>
</glyph>
<glyph name="A" format="2">
  <advance width="1125"/>
  <unicode hex="0041"/>
  <anchor x="508" y="0" name="H"/>
  <anchor x="496" y="-92" name="L"/>
  <anchor x="812" y="0" name="O"/>
  <anchor x="663" y="1214" name="U"/>
  <outline>
    <contour>
      <point x="397" y="514" type="line"/>
      <point x="569" y="908" type="line"/>
      <point x="650" y="514" type="line"/>
    </contour>
    <contour>
      <point x="675" y="386" type="line"/>
      <point x="722" y="145" type="line" smooth="yes"/>
      <point x="730" y="105"/>
      <point x="700" y="88"/>
      <point x="611" y="83" type="curve"/>
      <point x="599" y="0" type="line"/>
      <point x="1065" y="0" type="line"/>
      <point x="1076" y="83" type="line"/>
      <point x="1006" y="92"/>
      <point x="989" y="111"/>
      <point x="982" y="145" type="curve" smooth="yes"/>
      <point x="768" y="1211" type="line"/>
      <point x="688" y="1192"/>
      <point x="588" y="1157"/>
      <point x="509" y="1095" type="curve"/>
      <point x="90" y="145" type="line" smooth="yes"/>
      <point x="74" y="109"/>
      <point x="36" y="98"/>
      <point x="-43" y="83" type="curve"/>
      <point x="-54" y="0" type="line"/>
      <point x="332" y="0" type="line"/>
      <point x="342" y="83" type="line"/>
      <point x="252" y="94"/>
      <point x="216" y="110"/>
      <point x="233" y="145" type="curve" smooth="yes"/>
      <point x="341" y="386" type="line"/>
    </contour>
  </outline>
</glyph>
<glyph name="B" format="2">
  <advance width="1042"/>
  <unicode hex="0042"/>
  <anchor x="441" y="-92" name="L"/>
  <anchor x="609" y="1214" name="U"/>
  <outline>
    <contour>
      <point x="992" y="377" type="curve" smooth="yes"/>
      <point x="992" y="523"/>
      <point x="887" y="650"/>
      <point x="739" y="665" type="curve"/>
      <point x="907" y="723"/>
      <point x="987" y="828"/>
      <point x="987" y="956" type="curve" smooth="yes"/>
      <point x="987" y="1100"/>
      <point x="861" y="1186"/>
      <point x="577" y="1186" type="curve" smooth="yes"/>
      <point x="407" y="1186"/>
      <point x="232" y="1161"/>
      <point x="119" y="1128" type="curve"/>
      <point x="119" y="1039" type="line"/>
      <point x="212" y="1060"/>
      <point x="332" y="1075"/>
      <point x="530" y="1075" type="curve" smooth="yes"/>
      <point x="614" y="1075"/>
      <point x="711" y="1035"/>
      <point x="711" y="908" type="curve" smooth="yes"/>
      <point x="711" y="760"/>
      <point x="586" y="689"/>
      <point x="483" y="689" type="curve" smooth="yes"/>
      <point x="399" y="689" type="line"/>
      <point x="399" y="554" type="line"/>
      <point x="434" y="568"/>
      <point x="448" y="574"/>
      <point x="522" y="574" type="curve" smooth="yes"/>
      <point x="673" y="574"/>
      <point x="716" y="467"/>
      <point x="716" y="345" type="curve" smooth="yes"/>
      <point x="716" y="195"/>
      <point x="651" y="92"/>
      <point x="515" y="92" type="curve" smooth="yes"/>
      <point x="455" y="92"/>
      <point x="409" y="101"/>
      <point x="366" y="133" type="curve"/>
      <point x="40" y="0" type="line"/>
      <point x="155" y="-10"/>
      <point x="372" y="-28"/>
      <point x="468" y="-28" type="curve"/>
      <point x="765" y="-28"/>
      <point x="992" y="138"/>
    </contour>
    <contour>
      <point x="516" y="1136" type="line"/>
      <point x="255" y="1136" type="line"/>
      <point x="113" y="139" type="line" smooth="yes"/>
      <point x="111" y="122"/>
      <point x="72" y="99"/>
      <point x="-3" y="83" type="curve"/>
      <point x="-10" y="0" type="line"/>
      <point x="483" y="0" type="line"/>
      <point x="489" y="83" type="line"/>
      <point x="411" y="99"/>
      <point x="374" y="123"/>
      <point x="375" y="139" type="curve" smooth="yes"/>
    </contour>
  </outline>
</glyph>
<glyph name="C" format="2">
  <advance width="981"/>
  <unicode hex="0043"/>
  <anchor x="461" y="0" name="H"/>
  <anchor x="485" y="-92" name="L"/>
  <anchor x="653" y="1214" name="U"/>
  <outline>
    <contour>
      <point x="1023" y="1094" type="curve" smooth="yes"/>
      <point x="970" y="1145"/>
      <point x="828" y="1186"/>
      <point x="706" y="1186" type="curve" smooth="yes"/>
      <point x="591" y="1186"/>
      <point x="443" y="1143"/>
      <point x="354" y="1073" type="curve" smooth="yes"/>
      <point x="147" y="909"/>
      <point x="47" y="654"/>
      <point x="47" y="422" type="curve" smooth="yes"/>
      <point x="47" y="138"/>
      <point x="224" y="-24"/>
      <point x="454" y="-24" type="curve" smooth="yes"/>
      <point x="569" y="-24"/>
      <point x="745" y="30"/>
      <point x="913" y="194" type="curve"/>
      <point x="912" y="211"/>
      <point x="886" y="258"/>
      <point x="875" y="269" type="curve"/>
      <point x="716" y="158"/>
      <point x="623" y="143"/>
      <point x="565" y="143" type="curve" smooth="yes"/>
      <point x="467" y="143"/>
      <point x="318" y="207"/>
      <point x="318" y="474" type="curve" smooth="yes"/>
      <point x="318" y="629"/>
      <point x="358" y="891"/>
      <point x="512" y="1012" type="curve" smooth="yes"/>
      <point x="561" y="1049"/>
      <point x="590" y="1053"/>
      <point x="639" y="1053" type="curve" smooth="yes"/>
      <point x="739" y="1053"/>
      <point x="800" y="961"/>
      <point x="821" y="869" type="curve"/>
      <point x="893" y="851" type="line"/>
      <point x="925" y="878"/>
      <point x="1033" y="1084"/>
    </contour>
  </outline>
</glyph>
<glyph name="E" format="2">
  <advance width="962"/>
  <unicode hex="0045"/>
  <anchor x="430" y="0" name="H"/>
  <anchor x="417" y="-92" name="L"/>
  <anchor x="623" y="0" name="O"/>
  <anchor x="1000" y="986" name="R"/>
  <anchor x="584" y="1214" name="U"/>
  <outline>
    <contour>
      <point x="975" y="1125" type="curve"/>
      <point x="941" y="1159" type="line"/>
      <point x="502" y="1159" type="line"/>
      <point x="460" y="1032" type="line"/>
      <point x="777" y="1032" type="line" smooth="yes"/>
      <point x="819" y="1032"/>
      <point x="832" y="953"/>
      <point x="823" y="840" type="curve"/>
      <point x="902" y="840" type="line"/>
      <point x="922" y="887"/>
      <point x="963" y="1062"/>
    </contour>
    <contour>
      <point x="820" y="639" type="curve"/>
      <point x="792" y="676" type="line"/>
      <point x="417" y="676" type="line"/>
      <point x="383" y="558" type="line"/>
      <point x="571" y="558" type="line" smooth="yes"/>
      <point x="659" y="558"/>
      <point x="695" y="543"/>
      <point x="722" y="508" type="curve"/>
      <point x="751" y="526"/>
      <point x="800" y="605"/>
    </contour>
    <contour>
      <point x="920" y="313" type="curve"/>
      <point x="847" y="339" type="line"/>
      <point x="778" y="197"/>
      <point x="730" y="126"/>
      <point x="624" y="126" type="curve" smooth="yes"/>
      <point x="556" y="126" type="line" smooth="yes"/>
      <point x="404" y="126"/>
      <point x="384" y="150"/>
      <point x="388" y="185" type="curve" smooth="yes"/>
      <point x="505" y="1039" type="line" smooth="yes"/>
      <point x="508" y="1056"/>
      <point x="555" y="1067"/>
      <point x="635" y="1075" type="curve"/>
      <point x="646" y="1159" type="line"/>
      <point x="147" y="1159" type="line"/>
      <point x="135" y="1075" type="line"/>
      <point x="215" y="1058"/>
      <point x="243" y="1033"/>
      <point x="241" y="1018" type="curve" smooth="yes"/>
      <point x="122" y="139" type="line" smooth="yes"/>
      <point x="120" y="122"/>
      <point x="80" y="99"/>
      <point x="-1" y="83" type="curve"/>
      <point x="-11" y="0" type="line"/>
      <point x="843" y="0" type="line"/>
      <point x="857" y="35"/>
      <point x="898" y="207"/>
    </contour>
  </outline>
</glyph>
<glyph name="F" format="2">
  <advance width="911"/>
  <unicode hex="0046"/>
  <anchor x="393" y="-92" name="L"/>
  <anchor x="561" y="1214" name="U"/>
  <outline>
    <contour>
      <point x="982" y="1125" type="curve"/>
      <point x="949" y="1159" type="line"/>
      <point x="502" y="1159" type="line"/>
      <point x="460" y="1032" type="line"/>
      <point x="784" y="1032" type="line" smooth="yes"/>
      <point x="827" y="1032"/>
      <point x="840" y="953"/>
      <point x="828" y="840" type="curve"/>
      <point x="910" y="840" type="line"/>
      <point x="930" y="887"/>
      <point x="972" y="1062"/>
    </contour>
    <contour>
      <point x="801" y="639" type="curve"/>
      <point x="770" y="676" type="line"/>
      <point x="388" y="676" type="line"/>
      <point x="227" y="558" type="line"/>
      <point x="541" y="558" type="line" smooth="yes"/>
      <point x="640" y="558"/>
      <point x="676" y="543"/>
      <point x="701" y="508" type="curve"/>
      <point x="728" y="526"/>
      <point x="774" y="594"/>
    </contour>
    <contour>
      <point x="646" y="1159" type="line"/>
      <point x="147" y="1159" type="line"/>
      <point x="135" y="1075" type="line"/>
      <point x="215" y="1058"/>
      <point x="243" y="1033"/>
      <point x="241" y="1018" type="curve" smooth="yes"/>
      <point x="122" y="139" type="line" smooth="yes"/>
      <point x="120" y="122"/>
      <point x="80" y="99"/>
      <point x="-1" y="83" type="curve"/>
      <point x="-11" y="0" type="line"/>
      <point x="504" y="0" type="line"/>
      <point x="515" y="83" type="line"/>
      <point x="405" y="106"/>
      <point x="380" y="124"/>
      <point x="382" y="139" type="curve" smooth="yes"/>
      <point x="505" y="1039" type="line" smooth="yes"/>
      <point x="507" y="1055"/>
      <point x="555" y="1067"/>
      <point x="635" y="1075" type="curve"/>
    </contour>
  </outline>
</glyph>
<glyph name="G" format="2">
  <advance width="1057"/>
  <unicode hex="0047"/>
  <anchor x="512" y="0" name="H"/>
  <anchor x="518" y="-92" name="L"/>
  <anchor x="686" y="1214" name="U"/>
  <outline>
    <contour>
      <point x="1069" y="590" type="line"/>
      <point x="535" y="590" type="line"/>
      <point x="529" y="507" type="line"/>
      <point x="714" y="478"/>
      <point x="721" y="457"/>
      <point x="718" y="431" type="curve" smooth="yes"/>
      <point x="677" y="165" type="line"/>
      <point x="635" y="134"/>
      <point x="593" y="133"/>
      <point x="567" y="133" type="curve" smooth="yes"/>
      <point x="450" y="133"/>
      <point x="317" y="234"/>
      <point x="317" y="497" type="curve" smooth="yes"/>
      <point x="317" y="668"/>
      <point x="386" y="893"/>
      <point x="465" y="977" type="curve" smooth="yes"/>
      <point x="524" y="1040"/>
      <point x="580" y="1066"/>
      <point x="639" y="1066" type="curve" smooth="yes"/>
      <point x="768" y="1066"/>
      <point x="826" y="965"/>
      <point x="857" y="867" type="curve"/>
      <point x="927" y="851" type="line"/>
      <point x="961" y="878"/>
      <point x="1073" y="1080"/>
      <point x="1059" y="1092" type="curve"/>
      <point x="996" y="1152"/>
      <point x="836" y="1186"/>
      <point x="740" y="1186" type="curve" smooth="yes"/>
      <point x="544" y="1186"/>
      <point x="422" y="1132"/>
      <point x="316" y="1040" type="curve" smooth="yes"/>
      <point x="156" y="901"/>
      <point x="47" y="691"/>
      <point x="47" y="457" type="curve" smooth="yes"/>
      <point x="47" y="162"/>
      <point x="258" y="-28"/>
      <point x="495" y="-28" type="curve" smooth="yes"/>
      <point x="593" y="-28"/>
      <point x="750" y="15"/>
      <point x="936" y="164" type="curve"/>
      <point x="941" y="211"/>
      <point x="959" y="366"/>
      <point x="968" y="431" type="curve" smooth="yes"/>
      <point x="971" y="459"/>
      <point x="997" y="487"/>
      <point x="1063" y="507" type="curve"/>
    </contour>
  </outline>
</glyph>
<glyph name="H" format="2">
  <advance width="1239"/>
  <unicode hex="0048"/>
  <anchor x="230" y="0" name="H"/>
  <anchor x="562" y="-92" name="L"/>
  <anchor x="734" y="1214" name="U"/>
  <outline>
    <contour>
      <point x="1296" y="1159" type="line"/>
      <point x="806" y="1159" type="line"/>
      <point x="795" y="1075" type="line"/>
      <point x="876" y="1058"/>
      <point x="904" y="1033"/>
      <point x="902" y="1018" type="curve" smooth="yes"/>
      <point x="782" y="139" type="line" smooth="yes"/>
      <point x="780" y="122"/>
      <point x="739" y="99"/>
      <point x="659" y="83" type="curve"/>
      <point x="649" y="0" type="line"/>
      <point x="1138" y="0" type="line"/>
      <point x="1149" y="83" type="line"/>
      <point x="1069" y="99"/>
      <point x="1041" y="124"/>
      <point x="1043" y="139" type="curve" smooth="yes"/>
      <point x="1162" y="1018" type="line" smooth="yes"/>
      <point x="1165" y="1036"/>
      <point x="1204" y="1058"/>
      <point x="1285" y="1075" type="curve"/>
    </contour>
    <contour>
      <point x="872" y="671" type="line"/>
      <point x="430" y="671" type="line"/>
      <point x="413" y="544" type="line"/>
      <point x="854" y="544" type="line"/>
    </contour>
    <contour>
      <point x="635" y="1159" type="line"/>
      <point x="146" y="1159" type="line"/>
      <point x="135" y="1075" type="line"/>
      <point x="214" y="1058"/>
      <point x="242" y="1033"/>
      <point x="240" y="1018" type="curve" smooth="yes"/>
      <point x="121" y="139" type="line" smooth="yes"/>
      <point x="119" y="122"/>
      <point x="78" y="99"/>
      <point x="-1" y="83" type="curve"/>
      <point x="-12" y="0" type="line"/>
      <point x="477" y="0" type="line"/>
      <point x="489" y="83" type="line"/>
      <point x="406" y="99"/>
      <point x="379" y="124"/>
      <point x="381" y="139" type="curve" smooth="yes"/>
      <point x="501" y="1018" type="line" smooth="yes"/>
      <point x="504" y="1036"/>
      <point x="544" y="1058"/>
      <point x="625" y="1075" type="curve"/>
    </contour>
  </outline>
</glyph>
<glyph name="I" format="2">
  <advance width="613"/>
  <unicode hex="0049"/>
  <anchor x="255" y="0" name="H"/>
  <anchor x="237" y="-92" name="L"/>
  <anchor x="305" y="0" name="O"/>
  <anchor x="611" y="986" name="R"/>
  <anchor x="405" y="1214" name="U"/>
  <outline>
    <contour>
      <point x="653" y="1159" type="line"/>
      <point x="165" y="1159" type="line"/>
      <point x="154" y="1075" type="line"/>
      <point x="233" y="1058"/>
      <point x="261" y="1033"/>
      <point x="260" y="1018" type="curve" smooth="yes"/>
      <point x="138" y="139" type="line" smooth="yes"/>
      <point x="137" y="122"/>
      <point x="96" y="99"/>
      <point x="18" y="83" type="curve"/>
      <point x="7" y="0" type="line"/>
      <point x="496" y="0" type="line"/>
      <point x="507" y="83" type="line"/>
      <point x="426" y="99"/>
      <point x="398" y="124"/>
      <point x="400" y="139" type="curve" smooth="yes"/>
      <point x="521" y="1018" type="line" smooth="yes"/>
      <point x="523" y="1036"/>
      <point x="563" y="1058"/>
      <point x="642" y="1075" type="curve"/>
    </contour>
  </outline>
</glyph>
<glyph name="J" format="2">
  <advance width="620"/>
  <unicode hex="004A"/>
  <anchor x="196" y="-552" name="L"/>
  <anchor x="438" y="1214" name="U"/>
  <outline>
    <contour>
      <point x="678" y="1159" type="line"/>
      <point x="142" y="1159" type="line"/>
      <point x="131" y="1075" type="line"/>
      <point x="262" y="1054"/>
      <point x="282" y="1033"/>
      <point x="281" y="1018" type="curve" smooth="yes"/>
      <point x="158" y="122" type="line" smooth="yes"/>
      <point x="119" y="-165"/>
      <point x="59" y="-193"/>
      <point x="2" y="-193" type="curve" smooth="yes"/>
      <point x="-73" y="-193"/>
      <point x="-141" y="-96"/>
      <point x="-165" y="-96" type="curve" smooth="yes"/>
      <point x="-195" y="-96"/>
      <point x="-352" y="-250"/>
      <point x="-352" y="-276" type="curve" smooth="yes"/>
      <point x="-352" y="-309"/>
      <point x="-239" y="-372"/>
      <point x="-137" y="-372" type="curve" smooth="yes"/>
      <point x="-43" y="-372"/>
      <point x="80" y="-317"/>
      <point x="147" y="-265" type="curve" smooth="yes"/>
      <point x="247" y="-188"/>
      <point x="397" y="-76"/>
      <point x="432" y="188" type="curve" smooth="yes"/>
      <point x="542" y="1018" type="line" smooth="yes"/>
      <point x="545" y="1036"/>
      <point x="587" y="1058"/>
      <point x="664" y="1075" type="curve"/>
    </contour>
  </outline>
</glyph>
<glyph name="K" format="2">
  <advance width="1164"/>
  <unicode hex="004B"/>
  <anchor x="239" y="0" name="H"/>
  <anchor x="528" y="-92" name="L"/>
  <anchor x="697" y="1214" name="U"/>
  <outline>
    <contour>
      <point x="1187" y="1159" type="line"/>
      <point x="785" y="1159" type="line"/>
      <point x="774" y="1075" type="line"/>
      <point x="862" y="1067"/>
      <point x="857" y="1060"/>
      <point x="796" y="993" type="curve" smooth="yes"/>
      <point x="427" y="591" type="line"/>
      <point x="595" y="591" type="line"/>
      <point x="1042" y="1018" type="line" smooth="yes"/>
      <point x="1083" y="1059"/>
      <point x="1100" y="1065"/>
      <point x="1176" y="1075" type="curve"/>
    </contour>
    <contour>
      <point x="1152" y="124" type="curve"/>
      <point x="1123" y="208" type="line"/>
      <point x="1081" y="190"/>
      <point x="988" y="175"/>
      <point x="956" y="211" type="curve"/>
      <point x="598" y="663" type="line"/>
      <point x="427" y="591" type="line"/>
      <point x="764" y="22" type="line"/>
      <point x="782" y="-3"/>
      <point x="806" y="-12"/>
      <point x="839" y="-12" type="curve" smooth="yes"/>
      <point x="894" y="-12"/>
      <point x="1087" y="65"/>
    </contour>
    <contour>
      <point x="637" y="1159" type="line"/>
      <point x="147" y="1159" type="line"/>
      <point x="135" y="1075" type="line"/>
      <point x="215" y="1058"/>
      <point x="243" y="1033"/>
      <point x="241" y="1018" type="curve" smooth="yes"/>
      <point x="122" y="139" type="line" smooth="yes"/>
      <point x="120" y="122"/>
      <point x="80" y="99"/>
      <point x="-1" y="83" type="curve"/>
      <point x="-11" y="0" type="line"/>
      <point x="478" y="0" type="line"/>
      <point x="489" y="83" type="line"/>
      <point x="407" y="99"/>
      <point x="380" y="124"/>
      <point x="382" y="139" type="curve" smooth="yes"/>
      <point x="502" y="1018" type="line" smooth="yes"/>
      <point x="505" y="1036"/>
      <point x="544" y="1058"/>
      <point x="625" y="1075" type="curve"/>
    </contour>
  </outline>
</glyph>
<glyph name="L" format="2">
  <advance width="954"/>
  <unicode hex="004C"/>
  <anchor x="453" y="0" name="H"/>
  <anchor x="422" y="-92" name="L"/>
  <anchor x="683" y="800" name="R"/>
  <anchor x="561" y="1214" name="U"/>
  <outline>
    <contour>
      <point x="912" y="313" type="curve"/>
      <point x="839" y="339" type="line"/>
      <point x="770" y="197"/>
      <point x="727" y="126"/>
      <point x="623" y="126" type="curve" smooth="yes"/>
      <point x="539" y="126" type="line" smooth="yes"/>
      <point x="414" y="126"/>
      <point x="384" y="153"/>
      <point x="389" y="196" type="curve" smooth="yes"/>
      <point x="502" y="1018" type="line" smooth="yes"/>
      <point x="505" y="1036"/>
      <point x="544" y="1058"/>
      <point x="625" y="1075" type="curve"/>
      <point x="637" y="1159" type="line"/>
      <point x="147" y="1159" type="line"/>
      <point x="135" y="1075" type="line"/>
      <point x="215" y="1058"/>
      <point x="243" y="1033"/>
      <point x="241" y="1018" type="curve" smooth="yes"/>
      <point x="122" y="139" type="line" smooth="yes"/>
      <point x="120" y="122"/>
      <point x="80" y="99"/>
      <point x="-1" y="83" type="curve"/>
      <point x="-11" y="0" type="line"/>
      <point x="836" y="0" type="line"/>
      <point x="848" y="35"/>
      <point x="889" y="207"/>
    </contour>
  </outline>
</glyph>
<glyph name="M" format="2">
  <advance width="1529"/>
  <unicode hex="004D"/>
  <anchor x="1189" y="0" name="H"/>
  <anchor x="711" y="-92" name="L"/>
  <anchor x="879" y="1214" name="U"/>
  <outline>
    <contour>
      <point x="1444" y="83" type="line"/>
      <point x="1363" y="99"/>
      <point x="1325" y="124"/>
      <point x="1327" y="139" type="curve" smooth="yes"/>
      <point x="1451" y="1073" type="line"/>
      <point x="1208" y="1020" type="line"/>
      <point x="1093" y="139" type="line" smooth="yes"/>
      <point x="1091" y="122"/>
      <point x="1041" y="99"/>
      <point x="961" y="83" type="curve"/>
      <point x="951" y="0" type="line"/>
      <point x="1433" y="0" type="line"/>
    </contour>
    <contour>
      <point x="1567" y="1159" type="line"/>
      <point x="1250" y="1159" type="line" smooth="yes"/>
      <point x="1228" y="1159"/>
      <point x="1215" y="1153"/>
      <point x="1174" y="1081" type="curve" smooth="yes"/>
      <point x="692" y="241" type="line"/>
      <point x="670" y="201"/>
      <point x="701" y="154"/>
      <point x="707" y="0" type="curve"/>
      <point x="710" y="0" type="line"/>
      <point x="1231" y="909" type="line" smooth="yes"/>
      <point x="1287" y="1008"/>
      <point x="1478" y="1075"/>
      <point x="1555" y="1075" type="curve"/>
    </contour>
    <contour>
      <point x="785" y="242" type="curve"/>
      <point x="555" y="1081" type="line"/>
      <point x="535" y="1148"/>
      <point x="522" y="1159"/>
      <point x="499" y="1159" type="curve" smooth="yes"/>
      <point x="172" y="1159" type="line"/>
      <point x="161" y="1075" type="line"/>
      <point x="224" y="1075"/>
      <point x="314" y="1052"/>
      <point x="344" y="942" type="curve" smooth="yes"/>
      <point x="606" y="0" type="line"/>
      <point x="707" y="0" type="line"/>
      <point x="757" y="154"/>
      <point x="795" y="205"/>
    </contour>
    <contour>
      <point x="414" y="1079" type="line"/>
      <point x="273" y="1056" type="line"/>
      <point x="138" y="139" type="line" smooth="yes"/>
      <point x="136" y="122"/>
      <point x="96" y="99"/>
      <point x="16" y="83" type="curve"/>
      <point x="5" y="0" type="line"/>
      <point x="372" y="0" type="line"/>
      <point x="383" y="83" type="line"/>
      <point x="303" y="99"/>
      <point x="273" y="124"/>
      <point x="275" y="139" type="curve" smooth="yes"/>
    </contour>
  </outline>
</glyph>
<glyph name="N" format="2">
  <advance width="1177"/>
  <unicode hex="004E"/>
  <anchor x="892" y="0" name="H"/>
  <anchor x="538" y="-92" name="L"/>
  <anchor x="706" y="1214" name="U"/>
  <outline>
    <contour>
      <point x="1273" y="1159" type="line"/>
      <point x="898" y="1159" type="line"/>
      <point x="887" y="1075" type="line"/>
      <point x="978" y="1062"/>
      <point x="995" y="1033"/>
      <point x="994" y="1018" type="curve" smooth="yes"/>
      <point x="900" y="341" type="line"/>
      <point x="501" y="1087" type="line" smooth="yes"/>
      <point x="469" y="1149"/>
      <point x="463" y="1159"/>
      <point x="434" y="1159" type="curve" smooth="yes"/>
      <point x="156" y="1159" type="line"/>
      <point x="145" y="1075" type="line"/>
      <point x="180" y="1069"/>
      <point x="216" y="1040"/>
      <point x="248" y="1003" type="curve"/>
      <point x="130" y="139" type="line" smooth="yes"/>
      <point x="128" y="122"/>
      <point x="93" y="94"/>
      <point x="7" y="83" type="curve"/>
      <point x="-2" y="0" type="line"/>
      <point x="371" y="0" type="line"/>
      <point x="382" y="83" type="line"/>
      <point x="294" y="96"/>
      <point x="272" y="124"/>
      <point x="274" y="139" type="curve" smooth="yes"/>
      <point x="366" y="803" type="line"/>
      <point x="750" y="91" type="line" smooth="yes"/>
      <point x="778" y="38"/>
      <point x="857" y="-16"/>
      <point x="994" y="-27" type="curve"/>
      <point x="1138" y="1018" type="line" smooth="yes"/>
      <point x="1140" y="1035"/>
      <point x="1177" y="1063"/>
      <point x="1262" y="1075" type="curve"/>
    </contour>
  </outline>
</glyph>
<glyph name="O" format="2">
  <advance width="1109"/>
  <unicode hex="004F"/>
  <anchor x="503" y="0" name="H"/>
  <anchor x="508" y="-92" name="L"/>
  <anchor x="576" y="0" name="O"/>
  <anchor x="1157" y="986" name="R"/>
  <anchor x="675" y="1214" name="U"/>
  <outline>
    <contour>
      <point x="1102" y="712" type="curve" smooth="yes"/>
      <point x="1102" y="970"/>
      <point x="967" y="1186"/>
      <point x="692" y="1186" type="curve" smooth="yes"/>
      <point x="485" y="1186"/>
      <point x="329" y="1073"/>
      <point x="226" y="936" type="curve" smooth="yes"/>
      <point x="126" y="804"/>
      <point x="60" y="644"/>
      <point x="60" y="446" type="curve" smooth="yes"/>
      <point x="60" y="188"/>
      <point x="220" y="-28"/>
      <point x="477" y="-28" type="curve" smooth="yes"/>
      <point x="640" y="-28"/>
      <point x="812" y="75"/>
      <point x="917" y="207" type="curve" smooth="yes"/>
      <point x="1028" y="346"/>
      <point x="1102" y="539"/>
    </contour>
    <contour>
      <point x="833" y="695" type="curve" smooth="yes"/>
      <point x="833" y="461"/>
      <point x="745" y="103"/>
      <point x="540" y="103" type="curve" smooth="yes"/>
      <point x="401" y="103"/>
      <point x="332" y="260"/>
      <point x="332" y="489" type="curve" smooth="yes"/>
      <point x="332" y="721"/>
      <point x="429" y="1060"/>
      <point x="620" y="1060" type="curve" smooth="yes"/>
      <point x="759" y="1060"/>
      <point x="833" y="902"/>
    </contour>
  </outline>
</glyph>
<glyph name="P" format="2">
  <advance width="1031"/>
  <unicode hex="0050"/>
  <anchor x="442" y="-92" name="L"/>
  <anchor x="610" y="1214" name="U"/>
  <outline>
    <contour>
      <point x="1063" y="866" type="curve" smooth="yes"/>
      <point x="1063" y="1077"/>
      <point x="885" y="1186"/>
      <point x="569" y="1186" type="curve" smooth="yes"/>
      <point x="446" y="1186"/>
      <point x="251" y="1160"/>
      <point x="118" y="1127" type="curve"/>
      <point x="118" y="1028" type="line"/>
      <point x="274" y="1058"/>
      <point x="448" y="1075"/>
      <point x="533" y="1075" type="curve" smooth="yes"/>
      <point x="661" y="1075"/>
      <point x="786" y="1037"/>
      <point x="786" y="832" type="curve" smooth="yes"/>
      <point x="786" y="672"/>
      <point x="712" y="583"/>
      <point x="578" y="583" type="curve" smooth="yes"/>
      <point x="532" y="583"/>
      <point x="509" y="594"/>
      <point x="468" y="613" type="curve"/>
      <point x="487" y="501" type="line"/>
      <point x="520" y="482"/>
      <point x="571" y="469"/>
      <point x="618" y="469" type="curve" smooth="yes"/>
      <point x="859" y="469"/>
      <point x="1063" y="657"/>
    </contour>
    <contour>
      <point x="521" y="1115" type="line"/>
      <point x="254" y="1115" type="line"/>
      <point x="117" y="139" type="line" smooth="yes"/>
      <point x="114" y="122"/>
      <point x="76" y="99"/>
      <point x="-1" y="83" type="curve"/>
      <point x="-11" y="0" type="line"/>
      <point x="512" y="0" type="line"/>
      <point x="523" y="83" type="line"/>
      <point x="408" y="104"/>
      <point x="382" y="124"/>
      <point x="384" y="139" type="curve" smooth="yes"/>
    </contour>
  </outline>
</glyph>
<glyph name="Q" format="2">
  <advance width="1139"/>
  <unicode hex="0051"/>
  <anchor x="550" y="-63" name="L"/>
  <anchor x="714" y="1214" name="U"/>
  <outline>
    <contour>
      <point x="1102" y="712" type="curve" smooth="yes"/>
      <point x="1102" y="970"/>
      <point x="967" y="1186"/>
      <point x="692" y="1186" type="curve" smooth="yes"/>
      <point x="485" y="1186"/>
      <point x="328" y="1073"/>
      <point x="226" y="936" type="curve"/>
      <point x="128" y="802"/>
      <point x="60" y="644"/>
      <point x="60" y="446" type="curve" smooth="yes"/>
      <point x="60" y="188"/>
      <point x="220" y="-28"/>
      <point x="477" y="-28" type="curve" smooth="yes"/>
      <point x="640" y="-28"/>
      <point x="813" y="75"/>
      <point x="917" y="207" type="curve" smooth="yes"/>
      <point x="1028" y="346"/>
      <point x="1102" y="539"/>
    </contour>
    <contour>
      <point x="1233" y="-118" type="curve"/>
      <point x="1190" y="-41" type="line"/>
      <point x="1114" y="-97"/>
      <point x="1094" y="-103"/>
      <point x="1066" y="-103" type="curve" smooth="yes"/>
      <point x="939" y="-103"/>
      <point x="830" y="7"/>
      <point x="662" y="45" type="curve" smooth="yes"/>
      <point x="632" y="50"/>
      <point x="427" y="18"/>
      <point x="427" y="18" type="curve"/>
      <point x="637" y="-14"/>
      <point x="823" y="-315"/>
      <point x="1032" y="-315" type="curve" smooth="yes"/>
      <point x="1067" y="-315"/>
      <point x="1165" y="-225"/>
    </contour>
    <contour>
      <point x="833" y="695" type="curve" smooth="yes"/>
      <point x="833" y="461"/>
      <point x="745" y="103"/>
      <point x="540" y="103" type="curve" smooth="yes"/>
      <point x="401" y="103"/>
      <point x="332" y="260"/>
      <point x="332" y="489" type="curve" smooth="yes"/>
      <point x="332" y="721"/>
      <point x="429" y="1060"/>
      <point x="620" y="1060" type="curve" smooth="yes"/>
      <point x="759" y="1060"/>
      <point x="833" y="902"/>
    </contour>
  </outline>
</glyph>
<glyph name="R" format="2">
  <advance width="1073"/>
  <unicode hex="0052"/>
  <anchor x="230" y="0" name="H"/>
  <anchor x="435" y="-92" name="L"/>
  <anchor x="605" y="1214" name="U"/>
  <outline>
    <contour>
      <point x="1000" y="893" type="curve" smooth="yes"/>
      <point x="1000" y="1083"/>
      <point x="851" y="1186"/>
      <point x="578" y="1186" type="curve" smooth="yes"/>
      <point x="411" y="1186"/>
      <point x="231" y="1161"/>
      <point x="120" y="1128" type="curve"/>
      <point x="119" y="1035" type="line"/>
      <point x="230" y="1059"/>
      <point x="407" y="1081"/>
      <point x="531" y="1081" type="curve" smooth="yes"/>
      <point x="628" y="1081"/>
      <point x="749" y="1047"/>
      <point x="749" y="866" type="curve" smooth="yes"/>
      <point x="749" y="727"/>
      <point x="639" y="645"/>
      <point x="519" y="645" type="curve" smooth="yes"/>
      <point x="482" y="645"/>
      <point x="451" y="648"/>
      <point x="414" y="664" type="curve"/>
      <point x="397" y="550" type="line"/>
      <point x="437" y="534"/>
      <point x="499" y="531"/>
      <point x="542" y="531" type="curve" smooth="yes"/>
      <point x="817" y="531"/>
      <point x="1000" y="733"/>
    </contour>
    <contour>
      <point x="1092" y="109" type="curve"/>
      <point x="1066" y="181" type="line"/>
      <point x="976" y="154"/>
      <point x="939" y="149"/>
      <point x="907" y="206" type="curve" smooth="yes"/>
      <point x="678" y="609" type="line"/>
      <point x="519" y="563" type="line"/>
      <point x="682" y="107" type="line" smooth="yes"/>
      <point x="720" y="2"/>
      <point x="761" y="-12"/>
      <point x="804" y="-12" type="curve" smooth="yes"/>
      <point x="837" y="-12"/>
      <point x="996" y="45"/>
    </contour>
    <contour>
      <point x="501" y="1131" type="line"/>
      <point x="256" y="1131" type="line"/>
      <point x="121" y="132" type="line" smooth="yes"/>
      <point x="119" y="115"/>
      <point x="78" y="92"/>
      <point x="0" y="76" type="curve"/>
      <point x="-9" y="0" type="line"/>
      <point x="469" y="0" type="line"/>
      <point x="479" y="76" type="line"/>
      <point x="402" y="92"/>
      <point x="362" y="117"/>
      <point x="366" y="132" type="curve"/>
    </contour>
  </outline>
</glyph>
<glyph name="S" format="2">
  <advance width="939"/>
  <unicode hex="0053"/>
  <anchor x="410" y="0" name="H"/>
  <anchor x="398" y="-92" name="L"/>
  <anchor x="565" y="1214" name="U"/>
  <outline>
    <contour>
      <point x="934" y="1102" type="curve" smooth="yes"/>
      <point x="875" y="1147"/>
      <point x="765" y="1186"/>
      <point x="633" y="1186" type="curve" smooth="yes"/>
      <point x="352" y="1186"/>
      <point x="169" y="1015"/>
      <point x="169" y="853" type="curve" smooth="yes"/>
      <point x="169" y="730"/>
      <point x="211" y="644"/>
      <point x="373" y="567" type="curve" smooth="yes"/>
      <point x="559" y="480"/>
      <point x="634" y="409"/>
      <point x="634" y="297" type="curve" smooth="yes"/>
      <point x="634" y="175"/>
      <point x="552" y="110"/>
      <point x="452" y="110" type="curve" smooth="yes"/>
      <point x="286" y="110"/>
      <point x="208" y="322"/>
      <point x="164" y="322" type="curve" smooth="yes"/>
      <point x="120" y="322"/>
      <point x="9" y="157"/>
      <point x="9" y="117" type="curve" smooth="yes"/>
      <point x="9" y="41"/>
      <point x="234" y="-28"/>
      <point x="379" y="-28" type="curve" smooth="yes"/>
      <point x="665" y="-28"/>
      <point x="887" y="163"/>
      <point x="887" y="393" type="curve" smooth="yes"/>
      <point x="887" y="531"/>
      <point x="794" y="618"/>
      <point x="601" y="717" type="curve" smooth="yes"/>
      <point x="438" y="801"/>
      <point x="411" y="861"/>
      <point x="411" y="915" type="curve" smooth="yes"/>
      <point x="411" y="996"/>
      <point x="459" y="1068"/>
      <point x="580" y="1068" type="curve" smooth="yes"/>
      <point x="654" y="1068"/>
      <point x="735" y="1020"/>
      <point x="759" y="891" type="curve"/>
      <point x="829" y="885" type="line"/>
      <point x="856" y="900"/>
      <point x="950" y="1090"/>
    </contour>
  </outline>
</glyph>
<glyph name="T" format="2">
  <advance width="1043"/>
  <unicode hex="0054"/>
  <anchor x="466" y="0" name="H"/>
  <anchor x="453" y="-92" name="L"/>
  <anchor x="632" y="1214" name="U"/>
  <outline>
    <contour>
      <point x="1138" y="1125" type="curve"/>
      <point x="1108" y="1159" type="line"/>
      <point x="756" y="1159" type="line"/>
      <point x="710" y="1032" type="line"/>
      <point x="941" y="1032" type="line" smooth="yes"/>
      <point x="989" y="1032"/>
      <point x="975" y="944"/>
      <point x="984" y="831" type="curve"/>
      <point x="1062" y="831" type="line"/>
      <point x="1087" y="912"/>
      <point x="1128" y="1061"/>
    </contour>
    <contour>
      <point x="511" y="1032" type="line"/>
      <point x="520" y="1159" type="line"/>
      <point x="158" y="1159" type="line"/>
      <point x="138" y="1093"/>
      <point x="93" y="923"/>
      <point x="75" y="849" type="curve"/>
      <point x="150" y="821" type="line"/>
      <point x="222" y="964"/>
      <point x="256" y="1032"/>
      <point x="292" y="1032" type="curve" smooth="yes"/>
    </contour>
    <contour>
      <point x="749" y="83" type="line"/>
      <point x="647" y="106"/>
      <point x="627" y="133"/>
      <point x="629" y="149" type="curve" smooth="yes"/>
      <point x="750" y="1039" type="line" smooth="yes"/>
      <point x="753" y="1056"/>
      <point x="797" y="1067"/>
      <point x="877" y="1075" type="curve"/>
      <point x="888" y="1159" type="line"/>
      <point x="401" y="1159" type="line"/>
      <point x="390" y="1075" type="line"/>
      <point x="469" y="1067"/>
      <point x="490" y="1053"/>
      <point x="488" y="1039" type="curve" smooth="yes"/>
      <point x="368" y="149" type="line" smooth="yes"/>
      <point x="364" y="133"/>
      <point x="336" y="106"/>
      <point x="228" y="83" type="curve"/>
      <point x="217" y="0" type="line"/>
      <point x="738" y="0" type="line"/>
    </contour>
  </outline>
</glyph>
<glyph name="U" format="2">
  <advance width="1189"/>
  <unicode hex="0055"/>
  <anchor x="577" y="0" name="H"/>
  <anchor x="547" y="-92" name="L"/>
  <anchor x="637" y="0" name="O"/>
  <anchor x="1199" y="986" name="R"/>
  <anchor x="715" y="1214" name="U"/>
  <outline>
    <contour>
      <point x="1254" y="1159" type="line"/>
      <point x="869" y="1159" type="line"/>
      <point x="858" y="1075" type="line"/>
      <point x="937" y="1058"/>
      <point x="959" y="1033"/>
      <point x="956" y="1018" type="curve" smooth="yes"/>
      <point x="874" y="431" type="line"/>
      <point x="849" y="248"/>
      <point x="791" y="122"/>
      <point x="631" y="122" type="curve" smooth="yes"/>
      <point x="482" y="122"/>
      <point x="414" y="194"/>
      <point x="414" y="365" type="curve" smooth="yes"/>
      <point x="414" y="397"/>
      <point x="419" y="433"/>
      <point x="424" y="469" type="curve" smooth="yes"/>
      <point x="505" y="1018" type="line" smooth="yes"/>
      <point x="509" y="1036"/>
      <point x="548" y="1058"/>
      <point x="625" y="1075" type="curve"/>
      <point x="637" y="1159" type="line"/>
      <point x="154" y="1159" type="line"/>
      <point x="143" y="1075" type="line"/>
      <point x="222" y="1058"/>
      <point x="249" y="1033"/>
      <point x="247" y="1018" type="curve" smooth="yes"/>
      <point x="162" y="425" type="line" smooth="yes"/>
      <point x="157" y="388"/>
      <point x="154" y="352"/>
      <point x="154" y="320" type="curve" smooth="yes"/>
      <point x="154" y="95"/>
      <point x="350" y="-28"/>
      <point x="550" y="-28" type="curve" smooth="yes"/>
      <point x="793" y="-28"/>
      <point x="1008" y="149"/>
      <point x="1053" y="471" type="curve" smooth="yes"/>
      <point x="1130" y="1018" type="line" smooth="yes"/>
      <point x="1133" y="1036"/>
      <point x="1166" y="1058"/>
      <point x="1243" y="1075" type="curve"/>
    </contour>
  </outline>
</glyph>
<glyph name="V" format="2">
  <advance width="1155"/>
  <unicode hex="0056"/>
  <anchor x="542" y="0" name="H"/>
  <anchor x="514" y="-92" name="L"/>
  <anchor x="496" y="0" name="O"/>
  <anchor x="684" y="1214" name="U"/>
  <outline>
    <contour>
      <point x="1257" y="1159" type="line"/>
      <point x="885" y="1159" type="line"/>
      <point x="874" y="1082" type="line"/>
      <point x="966" y="1070"/>
      <point x="987" y="1058"/>
      <point x="970" y="1022" type="curve" smooth="yes"/>
      <point x="626" y="287" type="line"/>
      <point x="458" y="1023" type="line" smooth="yes"/>
      <point x="449" y="1058"/>
      <point x="475" y="1075"/>
      <point x="567" y="1082" type="curve"/>
      <point x="577" y="1159" type="line"/>
      <point x="119" y="1159" type="line"/>
      <point x="109" y="1082" type="line"/>
      <point x="179" y="1072"/>
      <point x="206" y="1054"/>
      <point x="214" y="1022" type="curve"/>
      <point x="463" y="-27" type="line"/>
      <point x="530" y="-11"/>
      <point x="633" y="27"/>
      <point x="658" y="81" type="curve"/>
      <point x="1106" y="1022" type="line" smooth="yes"/>
      <point x="1122" y="1056"/>
      <point x="1167" y="1067"/>
      <point x="1247" y="1082" type="curve"/>
    </contour>
  </outline>
</glyph>
<glyph name="W" format="2">
  <advance width="1480"/>
  <unicode hex="0057"/>
  <anchor x="696" y="-92" name="L"/>
  <anchor x="869" y="1214" name="U"/>
  <outline>
    <contour>
      <point x="1593" y="1159" type="line"/>
      <point x="1198" y="1159" type="line"/>
      <point x="1186" y="1075" type="line"/>
      <point x="1262" y="1062"/>
      <point x="1319" y="1047"/>
      <point x="1310" y="1018" type="curve" smooth="yes"/>
      <point x="1105" y="427" type="line"/>
      <point x="926" y="1159" type="line"/>
      <point x="817" y="1159" type="line"/>
      <point x="484" y="427" type="line"/>
      <point x="431" y="1011" type="line" smooth="yes"/>
      <point x="429" y="1038"/>
      <point x="432" y="1063"/>
      <point x="546" y="1075" type="curve"/>
      <point x="557" y="1159" type="line"/>
      <point x="107" y="1159" type="line"/>
      <point x="96" y="1075" type="line"/>
      <point x="174" y="1060"/>
      <point x="204" y="1041"/>
      <point x="204" y="1011" type="curve" smooth="yes"/>
      <point x="286" y="-27" type="line"/>
      <point x="337" y="-15"/>
      <point x="416" y="1"/>
      <point x="439" y="54" type="curve"/>
      <point x="782" y="768" type="line"/>
      <point x="972" y="-27" type="line"/>
      <point x="1011" y="-19"/>
      <point x="1098" y="1"/>
      <point x="1115" y="54" type="curve" smooth="yes"/>
      <point x="1444" y="1018" type="line"/>
      <point x="1448" y="1036"/>
      <point x="1470" y="1052"/>
      <point x="1581" y="1075" type="curve"/>
    </contour>
  </outline>
</glyph>
<glyph name="X" format="2">
  <advance width="1127"/>
  <unicode hex="0058"/>
  <anchor x="493" y="-92" name="L"/>
  <anchor x="662" y="1214" name="U"/>
  <outline>
    <contour>
      <point x="1155" y="1159" type="line"/>
      <point x="768" y="1159" type="line"/>
      <point x="758" y="1082" type="line"/>
      <point x="857" y="1074"/>
      <point x="865" y="1061"/>
      <point x="824" y="1005" type="curve" smooth="yes"/>
      <point x="617" y="719" type="line"/>
      <point x="667" y="584" type="line"/>
      <point x="977" y="1005" type="line" smooth="yes"/>
      <point x="1015" y="1057"/>
      <point x="1060" y="1072"/>
      <point x="1145" y="1082" type="curve"/>
    </contour>
    <contour>
      <point x="1048" y="76" type="line"/>
      <point x="983" y="85"/>
      <point x="959" y="101"/>
      <point x="932" y="153" type="curve" smooth="yes"/>
      <point x="505" y="1005" type="line" smooth="yes"/>
      <point x="478" y="1058"/>
      <point x="509" y="1072"/>
      <point x="608" y="1082" type="curve"/>
      <point x="618" y="1159" type="line"/>
      <point x="129" y="1159" type="line"/>
      <point x="119" y="1082" type="line"/>
      <point x="193" y="1070"/>
      <point x="214" y="1059"/>
      <point x="241" y="1005" type="curve" smooth="yes"/>
      <point x="668" y="153" type="line"/>
      <point x="694" y="104"/>
      <point x="671" y="87"/>
      <point x="569" y="76" type="curve"/>
      <point x="559" y="0" type="line"/>
      <point x="1038" y="0" type="line"/>
    </contour>
    <contour>
      <point x="541" y="476" type="line"/>
      <point x="484" y="609" type="line"/>
      <point x="138" y="153" type="line" smooth="yes"/>
      <point x="101" y="104"/>
      <point x="47" y="81"/>
      <point x="-26" y="76" type="curve"/>
      <point x="-36" y="0" type="line"/>
      <point x="347" y="0" type="line"/>
      <point x="357" y="76" type="line"/>
      <point x="253" y="83"/>
      <point x="251" y="100"/>
      <point x="291" y="153" type="curve" smooth="yes"/>
    </contour>
  </outline>
</glyph>
<glyph name="Y" format="2">
  <advance width="1089"/>
  <unicode hex="0059"/>
  <anchor x="506" y="-92" name="L"/>
  <anchor x="674" y="1214" name="U"/>
  <outline>
    <contour>
      <point x="1192" y="1159" type="line"/>
      <point x="822" y="1159" type="line"/>
      <point x="811" y="1075" type="line"/>
      <point x="897" y="1063"/>
      <point x="917" y="1046"/>
      <point x="897" y="1015" type="curve" smooth="yes"/>
      <point x="659" y="623" type="line"/>
      <point x="600" y="811"/>
      <point x="531" y="998"/>
      <point x="467" y="1120" type="curve" smooth="yes"/>
      <point x="451" y="1149"/>
      <point x="408" y="1167"/>
      <point x="371" y="1167" type="curve" smooth="yes"/>
      <point x="324" y="1167"/>
      <point x="192" y="1150"/>
      <point x="123" y="1140" type="curve"/>
      <point x="114" y="1056" type="line"/>
      <point x="211" y="1054"/>
      <point x="224" y="1039"/>
      <point x="238" y="1014" type="curve" smooth="yes"/>
      <point x="301" y="894"/>
      <point x="405" y="647"/>
      <point x="459" y="438" type="curve"/>
      <point x="687" y="438" type="line"/>
      <point x="1049" y="1015" type="line" smooth="yes"/>
      <point x="1069" y="1045"/>
      <point x="1101" y="1060"/>
      <point x="1181" y="1075" type="curve"/>
    </contour>
    <contour>
      <point x="787" y="83" type="line"/>
      <point x="682" y="106"/>
      <point x="661" y="133"/>
      <point x="663" y="149" type="curve"/>
      <point x="723" y="586" type="line"/>
      <point x="462" y="586" type="line"/>
      <point x="402" y="149" type="line" smooth="yes"/>
      <point x="400" y="132"/>
      <point x="369" y="106"/>
      <point x="263" y="83" type="curve"/>
      <point x="251" y="0" type="line"/>
      <point x="776" y="0" type="line"/>
    </contour>
  </outline>
</glyph>
<glyph name="Z" format="2">
  <advance width="1001"/>
  <unicode hex="005A"/>
  <anchor x="458" y="-92" name="L"/>
  <anchor x="607" y="1214" name="U"/>
  <outline>
    <contour>
      <point x="1026" y="1109" type="line"/>
      <point x="1002" y="1159" type="line"/>
      <point x="403" y="1159" type="line" smooth="yes"/>
      <point x="334" y="1159"/>
      <point x="301" y="1159"/>
      <point x="241" y="1171" type="curve"/>
      <point x="157" y="808" type="line"/>
      <point x="244" y="787" type="line"/>
      <point x="285" y="913"/>
      <point x="361" y="1021"/>
      <point x="398" y="1021" type="curve" smooth="yes"/>
      <point x="700" y="1021" type="line"/>
      <point x="6" y="52" type="line"/>
      <point x="34" y="0" type="line"/>
      <point x="868" y="0" type="line"/>
      <point x="878" y="71"/>
      <point x="912" y="277"/>
      <point x="927" y="356" type="curve"/>
      <point x="841" y="380" type="line"/>
      <point x="776" y="231"/>
      <point x="740" y="135"/>
      <point x="692" y="135" type="curve" smooth="yes"/>
      <point x="336" y="135" type="line"/>
    </contour>
  </outline>
</glyph>
<glyph name="bracketleft" format="2">
  <advance width="708"/>
  <unicode hex="005B"/>
  <outline>
    <contour>
      <point x="800" y="1437" type="curve"/>
      <point x="766" y="1471" type="line"/>
      <point x="310" y="1471" type="line"/>
      <point x="60" y="-309" type="line"/>
      <point x="523" y="-309" type="line"/>
      <point x="535" y="-287"/>
      <point x="566" y="-226"/>
      <point x="574" y="-202" type="curve"/>
      <point x="538" y="-166" type="line"/>
      <point x="302" y="-166" type="line"/>
      <point x="507" y="1331" type="line"/>
      <point x="748" y="1331" type="line"/>
      <point x="758" y="1345"/>
      <point x="793" y="1407"/>
    </contour>
  </outline>
</glyph>
<glyph name="backslash" format="2">
  <advance width="808"/>
  <unicode hex="005C"/>
  <outline>
    <contour>
      <point x="693" y="-274" type="line"/>
      <point x="341" y="1403" type="line"/>
      <point x="311" y="1424"/>
      <point x="201" y="1461"/>
      <point x="167" y="1471" type="curve"/>
      <point x="122" y="1439" type="line"/>
      <point x="476" y="-239" type="line"/>
      <point x="494" y="-256"/>
      <point x="623" y="-299"/>
      <point x="650" y="-309" type="curve"/>
    </contour>
  </outline>
</glyph>
<glyph name="bracketright" format="2">
  <advance width="649"/>
  <unicode hex="005D"/>
  <outline>
    <contour>
      <point x="660" y="1471" type="line"/>
      <point x="199" y="1471" type="line"/>
      <point x="188" y="1450"/>
      <point x="160" y="1391"/>
      <point x="152" y="1364" type="curve"/>
      <point x="188" y="1331" type="line"/>
      <point x="422" y="1331" type="line"/>
      <point x="211" y="-166" type="line"/>
      <point x="-29" y="-166" type="line"/>
      <point x="-38" y="-182"/>
      <point x="-69" y="-244"/>
      <point x="-79" y="-273" type="curve"/>
      <point x="-43" y="-309" type="line"/>
      <point x="412" y="-309" type="line"/>
    </contour>
  </outline>
</glyph>
<glyph name="grave" format="2">
  <advance width="557"/>
  <unicode hex="0060"/>
  <anchor x="484" y="1260" name="U"/>
  <outline>
    <contour>
      <point x="537" y="974" type="curve"/>
      <point x="432" y="1353" type="line"/>
      <point x="400" y="1353"/>
      <point x="231" y="1315"/>
      <point x="202" y="1309" type="curve"/>
      <point x="161" y="1255" type="line"/>
      <point x="446" y="932" type="line"/>
      <point x="468" y="939"/>
      <point x="512" y="959"/>
    </contour>
  </outline>
</glyph>
<glyph name="a" format="2">
  <advance width="942"/>
  <unicode hex="0061"/>
  <anchor x="357" y="0" name="H"/>
  <anchor x="414" y="-92" name="L"/>
  <anchor x="700" y="0" name="O"/>
  <anchor x="1135" y="800" name="R"/>
  <anchor x="552" y="920" name="U"/>
  <outline>
    <contour>
      <point x="944" y="117" type="curve"/>
      <point x="927" y="195" type="line"/>
      <point x="879" y="175"/>
      <point x="858" y="169"/>
      <point x="833" y="169" type="curve" smooth="yes"/>
      <point x="804" y="169"/>
      <point x="782" y="238"/>
      <point x="782" y="290" type="curve" smooth="yes"/>
      <point x="782" y="344"/>
      <point x="799" y="479"/>
      <point x="836" y="655" type="curve"/>
      <point x="853" y="738"/>
      <point x="866" y="751"/>
      <point x="906" y="785" type="curve"/>
      <point x="872" y="861" type="line"/>
      <point x="789" y="821"/>
      <point x="598" y="764"/>
      <point x="586" y="708" type="curve"/>
      <point x="573" y="636"/>
      <point x="516" y="295"/>
      <point x="516" y="224" type="curve" smooth="yes"/>
      <point x="516" y="24"/>
      <point x="622" y="-37"/>
      <point x="667" y="-37" type="curve" smooth="yes"/>
      <point x="714" y="-37"/>
      <point x="842" y="42"/>
    </contour>
    <contour>
      <point x="850" y="741" type="curve"/>
      <point x="808" y="746"/>
      <point x="691" y="861"/>
      <point x="587" y="861" type="curve" smooth="yes"/>
      <point x="467" y="861"/>
      <point x="369" y="819"/>
      <point x="303" y="774" type="curve" smooth="yes"/>
      <point x="130" y="655"/>
      <point x="26" y="474"/>
      <point x="26" y="280" type="curve" smooth="yes"/>
      <point x="26" y="50"/>
      <point x="152" y="-37"/>
      <point x="244" y="-37" type="curve" smooth="yes"/>
      <point x="348" y="-37"/>
      <point x="444" y="44"/>
      <point x="531" y="156" type="curve"/>
      <point x="544" y="343" type="line"/>
      <point x="431" y="195"/>
      <point x="378" y="176"/>
      <point x="349" y="176" type="curve" smooth="yes"/>
      <point x="320" y="176"/>
      <point x="284" y="224"/>
      <point x="284" y="348" type="curve" smooth="yes"/>
      <point x="284" y="494"/>
      <point x="335" y="704"/>
      <point x="482" y="709" type="curve" smooth="yes"/>
      <point x="551" y="711"/>
      <point x="657" y="542"/>
      <point x="689" y="542" type="curve" smooth="yes"/>
      <point x="721" y="542"/>
      <point x="799" y="705"/>
    </contour>
  </outline>
</glyph>
<glyph name="b" format="2">
  <advance width="957"/>
  <unicode hex="0062"/>
  <anchor x="441" y="0" name="H"/>
  <anchor x="434" y="-92" name="L"/>
  <anchor x="978" y="800" name="R"/>
  <anchor x="668" y="1453" name="U"/>
  <outline>
    <contour>
      <point x="910" y="561" type="curve" smooth="yes"/>
      <point x="912" y="755"/>
      <point x="811" y="862"/>
      <point x="687" y="861" type="curve" smooth="yes"/>
      <point x="607" y="860"/>
      <point x="488" y="825"/>
      <point x="330" y="586" type="curve"/>
      <point x="345" y="426" type="line"/>
      <point x="461" y="630"/>
      <point x="546" y="683"/>
      <point x="578" y="683" type="curve" smooth="yes"/>
      <point x="637" y="683"/>
      <point x="667" y="599"/>
      <point x="667" y="487" type="curve" smooth="yes"/>
      <point x="667" y="404"/>
      <point x="647" y="287"/>
      <point x="600" y="219" type="curve" smooth="yes"/>
      <point x="570" y="175"/>
      <point x="533" y="149"/>
      <point x="482" y="152" type="curve" smooth="yes"/>
      <point x="440" y="155"/>
      <point x="355" y="226"/>
      <point x="355" y="290" type="curve" smooth="yes"/>
      <point x="355" y="452"/>
      <point x="494" y="1149"/>
      <point x="494" y="1322" type="curve" smooth="yes"/>
      <point x="494" y="1379"/>
      <point x="483" y="1398"/>
      <point x="439" y="1398" type="curve" smooth="yes"/>
      <point x="391" y="1398"/>
      <point x="192" y="1329"/>
      <point x="79" y="1274" type="curve"/>
      <point x="95" y="1201" type="line"/>
      <point x="95" y="1201"/>
      <point x="156" y="1226"/>
      <point x="178" y="1226" type="curve" smooth="yes"/>
      <point x="199" y="1226"/>
      <point x="227" y="1220"/>
      <point x="227" y="1164" type="curve" smooth="yes"/>
      <point x="227" y="1013"/>
      <point x="100" y="356"/>
      <point x="102" y="227" type="curve" smooth="yes"/>
      <point x="103" y="87"/>
      <point x="288" y="-37"/>
      <point x="374" y="-37" type="curve" smooth="yes"/>
      <point x="529" y="-37"/>
      <point x="666" y="62"/>
      <point x="751" y="172" type="curve" smooth="yes"/>
      <point x="844" y="292"/>
      <point x="908" y="431"/>
    </contour>
  </outline>
</glyph>
<glyph name="c" format="2">
  <advance width="846"/>
  <unicode hex="0063"/>
  <anchor x="406" y="0" name="H"/>
  <anchor x="431" y="-92" name="L"/>
  <anchor x="933" y="800" name="R"/>
  <anchor x="569" y="920" name="U"/>
  <outline>
    <contour>
      <point x="885" y="761" type="curve"/>
      <point x="801" y="787"/>
      <point x="742" y="861"/>
      <point x="636" y="861" type="curve" smooth="yes"/>
      <point x="515" y="861"/>
      <point x="387" y="797"/>
      <point x="319" y="752" type="curve" smooth="yes"/>
      <point x="139" y="631"/>
      <point x="74" y="461"/>
      <point x="74" y="296" type="curve" smooth="yes"/>
      <point x="74" y="37"/>
      <point x="238" y="-37"/>
      <point x="355" y="-37" type="curve" smooth="yes"/>
      <point x="479" y="-37"/>
      <point x="609" y="34"/>
      <point x="801" y="209" type="curve"/>
      <point x="794" y="218"/>
      <point x="755" y="278"/>
      <point x="745" y="291" type="curve"/>
      <point x="614" y="184"/>
      <point x="523" y="124"/>
      <point x="445" y="124" type="curve" smooth="yes"/>
      <point x="384" y="124"/>
      <point x="341" y="214"/>
      <point x="341" y="373" type="curve" smooth="yes"/>
      <point x="341" y="545"/>
      <point x="408" y="709"/>
      <point x="520" y="709" type="curve" smooth="yes"/>
      <point x="588" y="709"/>
      <point x="619" y="585"/>
      <point x="667" y="585" type="curve" smooth="yes"/>
      <point x="711" y="585"/>
      <point x="833" y="700"/>
    </contour>
  </outline>
</glyph>
<glyph name="d" format="2">
  <advance width="951"/>
  <unicode hex="0064"/>
  <anchor x="363" y="0" name="H"/>
  <anchor x="374" y="-92" name="L"/>
  <anchor x="1022" y="800" name="R"/>
  <anchor x="586" y="1508" name="U"/>
  <outline>
    <contour>
      <point x="928" y="106" type="curve"/>
      <point x="911" y="178" type="line"/>
      <point x="868" y="160"/>
      <point x="845" y="154"/>
      <point x="814" y="154" type="curve" smooth="yes"/>
      <point x="785" y="154"/>
      <point x="763" y="201"/>
      <point x="763" y="293" type="curve" smooth="yes"/>
      <point x="763" y="459"/>
      <point x="913" y="1132"/>
      <point x="913" y="1322" type="curve" smooth="yes"/>
      <point x="913" y="1379"/>
      <point x="887" y="1398"/>
      <point x="844" y="1398" type="curve" smooth="yes"/>
      <point x="795" y="1398"/>
      <point x="632" y="1338"/>
      <point x="501" y="1274" type="curve"/>
      <point x="517" y="1201" type="line"/>
      <point x="546" y="1212"/>
      <point x="590" y="1226"/>
      <point x="606" y="1226" type="curve" smooth="yes"/>
      <point x="628" y="1226"/>
      <point x="647" y="1220"/>
      <point x="647" y="1164" type="curve" smooth="yes"/>
      <point x="647" y="992"/>
      <point x="521" y="342"/>
      <point x="521" y="229" type="curve" smooth="yes"/>
      <point x="521" y="26"/>
      <point x="611" y="-37"/>
      <point x="658" y="-37" type="curve" smooth="yes"/>
      <point x="709" y="-37"/>
      <point x="824" y="36"/>
    </contour>
    <contour>
      <point x="812" y="727" type="line"/>
      <point x="741" y="727"/>
      <point x="642" y="861"/>
      <point x="572" y="861" type="curve" smooth="yes"/>
      <point x="478" y="861"/>
      <point x="372" y="818"/>
      <point x="305" y="774" type="curve" smooth="yes"/>
      <point x="130" y="659"/>
      <point x="30" y="483"/>
      <point x="30" y="289" type="curve" smooth="yes"/>
      <point x="30" y="60"/>
      <point x="143" y="-37"/>
      <point x="244" y="-37" type="curve" smooth="yes"/>
      <point x="324" y="-37"/>
      <point x="425" y="24"/>
      <point x="529" y="170" type="curve"/>
      <point x="549" y="361" type="line"/>
      <point x="437" y="193"/>
      <point x="371" y="161"/>
      <point x="345" y="161" type="curve" smooth="yes"/>
      <point x="301" y="161"/>
      <point x="266" y="218"/>
      <point x="266" y="348" type="curve" smooth="yes"/>
      <point x="266" y="494"/>
      <point x="328" y="718"/>
      <point x="477" y="718" type="curve" smooth="yes"/>
      <point x="566" y="718"/>
      <point x="640" y="560"/>
      <point x="685" y="560" type="curve"/>
    </contour>
  </outline>
</glyph>
<glyph name="e" format="2">
  <advance width="829"/>
  <unicode hex="0065"/>
  <anchor x="373" y="0" name="H"/>
  <anchor x="360" y="-92" name="L"/>
  <anchor x="419" y="0" name="O"/>
  <anchor x="1010" y="800" name="R"/>
  <anchor x="513" y="920" name="U"/>
  <outline>
    <contour>
      <point x="800" y="699" type="curve" smooth="yes"/>
      <point x="800" y="778"/>
      <point x="728" y="861"/>
      <point x="569" y="861" type="curve" smooth="yes"/>
      <point x="460" y="861"/>
      <point x="336" y="792"/>
      <point x="282" y="744" type="curve" smooth="yes"/>
      <point x="133" y="615"/>
      <point x="35" y="471"/>
      <point x="35" y="278" type="curve" smooth="yes"/>
      <point x="35" y="46"/>
      <point x="210" y="-37"/>
      <point x="324" y="-37" type="curve" smooth="yes"/>
      <point x="446" y="-37"/>
      <point x="577" y="45"/>
      <point x="778" y="220" type="curve"/>
      <point x="775" y="229"/>
      <point x="742" y="295"/>
      <point x="728" y="303" type="curve"/>
      <point x="580" y="184"/>
      <point x="476" y="124"/>
      <point x="424" y="124" type="curve" smooth="yes"/>
      <point x="352" y="124"/>
      <point x="298" y="220"/>
      <point x="298" y="380" type="curve" smooth="yes"/>
      <point x="298" y="514"/>
      <point x="317" y="575"/>
      <point x="370" y="653" type="curve" smooth="yes"/>
      <point x="399" y="692"/>
      <point x="450" y="720"/>
      <point x="469" y="720" type="curve" smooth="yes"/>
      <point x="499" y="720"/>
      <point x="520" y="691"/>
      <point x="520" y="646" type="curve" smooth="yes"/>
      <point x="520" y="555"/>
      <point x="486" y="498"/>
      <point x="175" y="361" type="curve"/>
      <point x="181" y="248" type="line"/>
      <point x="741" y="422"/>
      <point x="800" y="591"/>
    </contour>
  </outline>
</glyph>
<glyph name="f" format="2">
  <advance width="657"/>
  <unicode hex="0066"/>
  <anchor x="-46" y="-414" name="H"/>
  <anchor x="353" y="-92" name="L"/>
  <anchor x="586" y="1508" name="U"/>
  <outline>
    <contour>
      <point x="733" y="795" type="curve"/>
      <point x="703" y="832" type="line"/>
      <point x="185" y="832" type="line"/>
      <point x="48" y="744" type="line"/>
      <point x="73" y="706" type="line"/>
      <point x="475" y="706" type="line" smooth="yes"/>
      <point x="545" y="706"/>
      <point x="581" y="698"/>
      <point x="593" y="664" type="curve"/>
      <point x="618" y="677"/>
      <point x="709" y="761"/>
    </contour>
    <contour>
      <point x="996" y="1279" type="curve"/>
      <point x="959" y="1292"/>
      <point x="816" y="1398"/>
      <point x="686" y="1398" type="curve" smooth="yes"/>
      <point x="610" y="1398"/>
      <point x="531" y="1360"/>
      <point x="466" y="1312" type="curve" smooth="yes"/>
      <point x="309" y="1196"/>
      <point x="235" y="1026"/>
      <point x="210" y="827" type="curve"/>
      <point x="129" y="127" type="line"/>
      <point x="107" y="-73"/>
      <point x="30" y="-286"/>
      <point x="-92" y="-354" type="curve"/>
      <point x="-45" y="-446" type="line"/>
      <point x="135" y="-335"/>
      <point x="371" y="-92"/>
      <point x="403" y="177" type="curve"/>
      <point x="484" y="875" type="line"/>
      <point x="501" y="1032"/>
      <point x="531" y="1215"/>
      <point x="614" y="1215" type="curve" smooth="yes"/>
      <point x="673" y="1215"/>
      <point x="712" y="1100"/>
      <point x="755" y="1100" type="curve" smooth="yes"/>
      <point x="785" y="1100"/>
      <point x="944" y="1241"/>
    </contour>
  </outline>
</glyph>
<glyph name="g" format="2">
  <advance width="910"/>
  <unicode hex="0067"/>
  <anchor x="317" y="-414" name="H"/>
  <anchor x="308" y="-552" name="L"/>
  <anchor x="1037" y="800" name="R"/>
  <anchor x="510" y="920" name="U"/>
  <outline>
    <contour>
      <point x="844" y="742" type="curve"/>
      <point x="802" y="746"/>
      <point x="670" y="861"/>
      <point x="587" y="861" type="curve" smooth="yes"/>
      <point x="456" y="861"/>
      <point x="362" y="819"/>
      <point x="294" y="774" type="curve" smooth="yes"/>
      <point x="112" y="654"/>
      <point x="14" y="474"/>
      <point x="14" y="280" type="curve" smooth="yes"/>
      <point x="14" y="50"/>
      <point x="152" y="-37"/>
      <point x="233" y="-37" type="curve" smooth="yes"/>
      <point x="343" y="-37"/>
      <point x="436" y="37"/>
      <point x="548" y="189" type="curve"/>
      <point x="557" y="375" type="line"/>
      <point x="410" y="168"/>
      <point x="363" y="176"/>
      <point x="344" y="176" type="curve" smooth="yes"/>
      <point x="303" y="176"/>
      <point x="274" y="224"/>
      <point x="274" y="348" type="curve" smooth="yes"/>
      <point x="274" y="494"/>
      <point x="327" y="709"/>
      <point x="473" y="709" type="curve" smooth="yes"/>
      <point x="540" y="709"/>
      <point x="659" y="534"/>
      <point x="693" y="534" type="curve" smooth="yes"/>
      <point x="722" y="534"/>
      <point x="793" y="706"/>
    </contour>
    <contour>
      <point x="903" y="785" type="curve"/>
      <point x="864" y="861" type="line"/>
      <point x="750" y="810"/>
      <point x="585" y="729"/>
      <point x="568" y="618" type="curve" smooth="yes"/>
      <point x="520" y="330"/>
      <point x="556" y="199"/>
      <point x="512" y="-44" type="curve" smooth="yes"/>
      <point x="475" y="-247"/>
      <point x="415" y="-269"/>
      <point x="341" y="-269" type="curve" smooth="yes"/>
      <point x="212" y="-269"/>
      <point x="149" y="-180"/>
      <point x="121" y="-180" type="curve" smooth="yes"/>
      <point x="104" y="-180"/>
      <point x="-27" y="-318"/>
      <point x="-27" y="-359" type="curve" smooth="yes"/>
      <point x="-27" y="-403"/>
      <point x="112" y="-460"/>
      <point x="249" y="-460" type="curve" smooth="yes"/>
      <point x="441" y="-460"/>
      <point x="729" y="-253"/>
      <point x="775" y="0" type="curve" smooth="yes"/>
      <point x="809" y="189"/>
      <point x="796" y="325"/>
      <point x="828" y="617" type="curve" smooth="yes"/>
      <point x="837" y="706"/>
      <point x="862" y="751"/>
    </contour>
  </outline>
</glyph>
<glyph name="h" format="2">
  <advance width="1025"/>
  <unicode hex="0068"/>
  <anchor x="152" y="0" name="H"/>
  <anchor x="437" y="-92" name="L"/>
  <anchor x="652" y="1453" name="U"/>
  <outline>
    <contour>
      <point x="1007" y="121" type="curve"/>
      <point x="977" y="200" type="line"/>
      <point x="938" y="180"/>
      <point x="917" y="169"/>
      <point x="883" y="169" type="curve" smooth="yes"/>
      <point x="857" y="169"/>
      <point x="850" y="182"/>
      <point x="850" y="224" type="curve" smooth="yes"/>
      <point x="850" y="326"/>
      <point x="926" y="593"/>
      <point x="926" y="721" type="curve" smooth="yes"/>
      <point x="926" y="840"/>
      <point x="878" y="861"/>
      <point x="799" y="861" type="curve" smooth="yes"/>
      <point x="691" y="861"/>
      <point x="570" y="811"/>
      <point x="426" y="689" type="curve"/>
      <point x="448" y="823"/>
      <point x="516" y="1235"/>
      <point x="516" y="1322" type="curve" smooth="yes"/>
      <point x="516" y="1379"/>
      <point x="486" y="1398"/>
      <point x="452" y="1398" type="curve" smooth="yes"/>
      <point x="397" y="1398"/>
      <point x="179" y="1313"/>
      <point x="75" y="1267" type="curve"/>
      <point x="92" y="1186" type="line"/>
      <point x="114" y="1193"/>
      <point x="168" y="1211"/>
      <point x="188" y="1211" type="curve" smooth="yes"/>
      <point x="207" y="1211"/>
      <point x="224" y="1205"/>
      <point x="224" y="1149" type="curve" smooth="yes"/>
      <point x="224" y="993"/>
      <point x="101" y="265"/>
      <point x="56" y="2" type="curve"/>
      <point x="98" y="-37" type="line"/>
      <point x="128" y="-21"/>
      <point x="318" y="64"/>
      <point x="351" y="78" type="curve"/>
      <point x="351" y="109"/>
      <point x="351" y="141"/>
      <point x="372" y="276" type="curve" smooth="yes"/>
      <point x="390" y="386"/>
      <point x="412" y="477"/>
      <point x="447" y="535" type="curve" smooth="yes"/>
      <point x="504" y="627"/>
      <point x="567" y="636"/>
      <point x="598" y="636" type="curve" smooth="yes"/>
      <point x="619" y="636"/>
      <point x="633" y="626"/>
      <point x="633" y="555" type="curve" smooth="yes"/>
      <point x="633" y="472"/>
      <point x="563" y="135"/>
      <point x="563" y="69" type="curve" smooth="yes"/>
      <point x="563" y="3"/>
      <point x="597" y="-37"/>
      <point x="633" y="-37" type="curve" smooth="yes"/>
      <point x="712" y="-37"/>
      <point x="893" y="55"/>
    </contour>
  </outline>
</glyph>
<glyph name="i" format="2">
  <advance width="557"/>
  <unicode hex="0069"/>
  <anchor x="237" y="0" name="H"/>
  <anchor x="236" y="-92" name="L"/>
  <anchor x="258" y="0" name="O"/>
  <anchor x="758" y="800" name="R"/>
  <anchor x="375" y="920" name="U"/>
  <outline>
    <contour>
      <point x="559" y="1161" type="curve" smooth="yes"/>
      <point x="559" y="1202"/>
      <point x="525" y="1248"/>
      <point x="444" y="1248" type="curve" smooth="yes"/>
      <point x="321" y="1248"/>
      <point x="253" y="1147"/>
      <point x="253" y="1081" type="curve" smooth="yes"/>
      <point x="253" y="1040"/>
      <point x="286" y="995"/>
      <point x="368" y="995" type="curve" smooth="yes"/>
      <point x="494" y="995"/>
      <point x="559" y="1092"/>
    </contour>
    <contour>
      <point x="539" y="121" type="curve"/>
      <point x="520" y="200" type="line"/>
      <point x="469" y="177"/>
      <point x="450" y="169"/>
      <point x="412" y="169" type="curve" smooth="yes"/>
      <point x="392" y="169"/>
      <point x="385" y="186"/>
      <point x="385" y="224" type="curve" smooth="yes"/>
      <point x="385" y="331"/>
      <point x="469" y="676"/>
      <point x="469" y="783" type="curve" smooth="yes"/>
      <point x="469" y="839"/>
      <point x="445" y="861"/>
      <point x="411" y="861" type="curve" smooth="yes"/>
      <point x="358" y="861"/>
      <point x="145" y="775"/>
      <point x="42" y="729" type="curve"/>
      <point x="60" y="650" type="line"/>
      <point x="60" y="650"/>
      <point x="121" y="672"/>
      <point x="141" y="672" type="curve" smooth="yes"/>
      <point x="164" y="672"/>
      <point x="179" y="666"/>
      <point x="179" y="610" type="curve" smooth="yes"/>
      <point x="179" y="520"/>
      <point x="98" y="179"/>
      <point x="98" y="69" type="curve" smooth="yes"/>
      <point x="98" y="3"/>
      <point x="136" y="-37"/>
      <point x="177" y="-37" type="curve" smooth="yes"/>
      <point x="254" y="-37"/>
      <point x="424" y="53"/>
    </contour>
  </outline>
</glyph>
<glyph name="j" format="2">
  <advance width="553"/>
  <unicode hex="006A"/>
  <anchor x="146" y="-552" name="L"/>
  <anchor x="348" y="920" name="U"/>
  <outline>
    <contour>
      <point x="535" y="1161" type="curve" smooth="yes"/>
      <point x="535" y="1202"/>
      <point x="501" y="1248"/>
      <point x="420" y="1248" type="curve" smooth="yes"/>
      <point x="297" y="1248"/>
      <point x="229" y="1147"/>
      <point x="229" y="1081" type="curve" smooth="yes"/>
      <point x="229" y="1040"/>
      <point x="263" y="995"/>
      <point x="344" y="995" type="curve" smooth="yes"/>
      <point x="470" y="995"/>
      <point x="535" y="1092"/>
    </contour>
    <contour>
      <point x="460" y="800" type="curve" smooth="yes"/>
      <point x="460" y="851"/>
      <point x="431" y="861"/>
      <point x="397" y="861" type="curve" smooth="yes"/>
      <point x="347" y="861"/>
      <point x="132" y="775"/>
      <point x="28" y="729" type="curve"/>
      <point x="47" y="650" type="line"/>
      <point x="47" y="650"/>
      <point x="107" y="672"/>
      <point x="128" y="672" type="curve" smooth="yes"/>
      <point x="149" y="672"/>
      <point x="166" y="666"/>
      <point x="166" y="610" type="curve" smooth="yes"/>
      <point x="166" y="571"/>
      <point x="159" y="474"/>
      <point x="151" y="414" type="curve" smooth="yes"/>
      <point x="143" y="345"/>
      <point x="124" y="191"/>
      <point x="95" y="10" type="curve" smooth="yes"/>
      <point x="58" y="-219"/>
      <point x="53" y="-274"/>
      <point x="-41" y="-274" type="curve" smooth="yes"/>
      <point x="-115" y="-274"/>
      <point x="-194" y="-178"/>
      <point x="-225" y="-178" type="curve" smooth="yes"/>
      <point x="-249" y="-178"/>
      <point x="-371" y="-325"/>
      <point x="-371" y="-356" type="curve" smooth="yes"/>
      <point x="-371" y="-382"/>
      <point x="-265" y="-460"/>
      <point x="-141" y="-460" type="curve" smooth="yes"/>
      <point x="-53" y="-460"/>
      <point x="31" y="-420"/>
      <point x="98" y="-367" type="curve" smooth="yes"/>
      <point x="198" y="-288"/>
      <point x="347" y="-124"/>
      <point x="379" y="94" type="curve" smooth="yes"/>
      <point x="402" y="247"/>
      <point x="413" y="350"/>
      <point x="422" y="435" type="curve"/>
      <point x="430" y="514"/>
      <point x="460" y="760"/>
    </contour>
  </outline>
</glyph>
<glyph name="k" format="2">
  <advance width="981"/>
  <unicode hex="006B"/>
  <anchor x="178" y="0" name="H"/>
  <anchor x="429" y="-92" name="L"/>
  <anchor x="1115" y="800" name="R"/>
  <anchor x="645" y="1453" name="U"/>
  <outline>
    <contour>
      <point x="1003" y="787" type="curve" smooth="yes"/>
      <point x="1003" y="828"/>
      <point x="982" y="855"/>
      <point x="900" y="855" type="curve" smooth="yes"/>
      <point x="823" y="855"/>
      <point x="699" y="842"/>
      <point x="582" y="825" type="curve"/>
      <point x="592" y="745" type="line"/>
      <point x="723" y="751"/>
      <point x="700" y="719"/>
      <point x="529" y="594" type="curve" smooth="yes"/>
      <point x="350" y="463" type="line"/>
      <point x="519" y="431" type="line"/>
      <point x="709" y="548" type="line" smooth="yes"/>
      <point x="893" y="662"/>
      <point x="1003" y="751"/>
    </contour>
    <contour>
      <point x="514" y="1303" type="curve" smooth="yes"/>
      <point x="514" y="1390"/>
      <point x="494" y="1398"/>
      <point x="460" y="1398" type="curve" smooth="yes"/>
      <point x="408" y="1398"/>
      <point x="177" y="1313"/>
      <point x="74" y="1267" type="curve"/>
      <point x="92" y="1186" type="line"/>
      <point x="113" y="1193"/>
      <point x="165" y="1211"/>
      <point x="180" y="1211" type="curve" smooth="yes"/>
      <point x="210" y="1211"/>
      <point x="224" y="1207"/>
      <point x="224" y="1146" type="curve" smooth="yes"/>
      <point x="224" y="961"/>
      <point x="75" y="144"/>
      <point x="56" y="2" type="curve"/>
      <point x="100" y="-37" type="line"/>
      <point x="130" y="-21"/>
      <point x="324" y="62"/>
      <point x="358" y="79" type="curve"/>
      <point x="322" y="205"/>
      <point x="514" y="1066"/>
    </contour>
    <contour>
      <point x="983" y="128" type="curve"/>
      <point x="945" y="203" type="line"/>
      <point x="892" y="176"/>
      <point x="843" y="169"/>
      <point x="818" y="169" type="curve" smooth="yes"/>
      <point x="735" y="169"/>
      <point x="660" y="445"/>
      <point x="550" y="508" type="curve"/>
      <point x="350" y="463" type="line"/>
      <point x="450" y="391"/>
      <point x="563" y="-35"/>
      <point x="697" y="-35" type="curve" smooth="yes"/>
      <point x="755" y="-35"/>
      <point x="902" y="60"/>
    </contour>
  </outline>
</glyph>
<glyph name="l" format="2">
  <advance width="539"/>
  <unicode hex="006C"/>
  <anchor x="209" y="0" name="H"/>
  <anchor x="188" y="-92" name="L"/>
  <anchor x="645" y="800" name="R"/>
  <anchor x="423" y="1508" name="U"/>
  <outline>
    <contour>
      <point x="520" y="121" type="curve"/>
      <point x="503" y="200" type="line"/>
      <point x="449" y="177"/>
      <point x="424" y="169"/>
      <point x="396" y="169" type="curve" smooth="yes"/>
      <point x="377" y="169"/>
      <point x="364" y="182"/>
      <point x="364" y="224" type="curve" smooth="yes"/>
      <point x="364" y="391"/>
      <point x="513" y="1132"/>
      <point x="513" y="1322" type="curve" smooth="yes"/>
      <point x="513" y="1379"/>
      <point x="490" y="1398"/>
      <point x="456" y="1398" type="curve" smooth="yes"/>
      <point x="402" y="1398"/>
      <point x="175" y="1313"/>
      <point x="71" y="1267" type="curve"/>
      <point x="90" y="1186" type="line"/>
      <point x="90" y="1186"/>
      <point x="155" y="1211"/>
      <point x="175" y="1211" type="curve" smooth="yes"/>
      <point x="198" y="1211"/>
      <point x="222" y="1205"/>
      <point x="222" y="1149" type="curve" smooth="yes"/>
      <point x="222" y="977"/>
      <point x="75" y="194"/>
      <point x="75" y="71" type="curve" smooth="yes"/>
      <point x="75" y="0"/>
      <point x="107" y="-37"/>
      <point x="141" y="-37" type="curve" smooth="yes"/>
      <point x="226" y="-37"/>
      <point x="399" y="45"/>
    </contour>
  </outline>
</glyph>
<glyph name="m" format="2">
  <advance width="1464"/>
  <unicode hex="006D"/>
  <anchor x="1138" y="0" name="H"/>
  <anchor x="661" y="-92" name="L"/>
  <anchor x="800" y="920" name="U"/>
  <outline>
    <contour>
      <point x="1424" y="112" type="curve"/>
      <point x="1410" y="183" type="line"/>
      <point x="1359" y="163"/>
      <point x="1338" y="154"/>
      <point x="1302" y="154" type="curve" smooth="yes"/>
      <point x="1281" y="154"/>
      <point x="1268" y="165"/>
      <point x="1268" y="207" type="curve" smooth="yes"/>
      <point x="1268" y="309"/>
      <point x="1340" y="559"/>
      <point x="1340" y="699" type="curve" smooth="yes"/>
      <point x="1340" y="817"/>
      <point x="1279" y="861"/>
      <point x="1207" y="861" type="curve" smooth="yes"/>
      <point x="1115" y="861"/>
      <point x="1027" y="824"/>
      <point x="885" y="688" type="curve"/>
      <point x="885" y="698"/>
      <point x="885" y="705"/>
      <point x="885" y="708" type="curve" smooth="yes"/>
      <point x="885" y="789"/>
      <point x="850" y="861"/>
      <point x="758" y="861" type="curve" smooth="yes"/>
      <point x="657" y="861"/>
      <point x="557" y="824"/>
      <point x="412" y="678" type="curve"/>
      <point x="415" y="705"/>
      <point x="418" y="737"/>
      <point x="418" y="755" type="curve" smooth="yes"/>
      <point x="418" y="841"/>
      <point x="405" y="861"/>
      <point x="368" y="861" type="curve" smooth="yes"/>
      <point x="319" y="861"/>
      <point x="123" y="782"/>
      <point x="19" y="737" type="curve"/>
      <point x="34" y="665" type="line"/>
      <point x="34" y="665"/>
      <point x="101" y="689"/>
      <point x="124" y="689" type="curve" smooth="yes"/>
      <point x="144" y="689"/>
      <point x="160" y="681"/>
      <point x="160" y="625" type="curve" smooth="yes"/>
      <point x="160" y="519"/>
      <point x="115" y="259"/>
      <point x="65" y="0" type="curve"/>
      <point x="104" y="-37" type="line"/>
      <point x="135" y="-21"/>
      <point x="305" y="51"/>
      <point x="337" y="69" type="curve"/>
      <point x="335" y="98"/>
      <point x="341" y="160"/>
      <point x="358" y="271" type="curve" smooth="yes"/>
      <point x="380" y="414"/>
      <point x="404" y="495"/>
      <point x="447" y="553" type="curve" smooth="yes"/>
      <point x="511" y="641"/>
      <point x="575" y="656"/>
      <point x="588" y="656" type="curve" smooth="yes"/>
      <point x="613" y="656"/>
      <point x="624" y="635"/>
      <point x="624" y="588" type="curve" smooth="yes"/>
      <point x="624" y="498"/>
      <point x="583" y="250"/>
      <point x="529" y="0" type="curve"/>
      <point x="567" y="-37" type="line"/>
      <point x="599" y="-21"/>
      <point x="770" y="51"/>
      <point x="805" y="69" type="curve"/>
      <point x="802" y="97"/>
      <point x="805" y="160"/>
      <point x="821" y="271" type="curve" smooth="yes"/>
      <point x="842" y="419"/>
      <point x="865" y="493"/>
      <point x="906" y="552" type="curve" smooth="yes"/>
      <point x="966" y="641"/>
      <point x="1030" y="656"/>
      <point x="1048" y="656" type="curve" smooth="yes"/>
      <point x="1070" y="656"/>
      <point x="1083" y="635"/>
      <point x="1083" y="587" type="curve" smooth="yes"/>
      <point x="1083" y="465"/>
      <point x="1007" y="135"/>
      <point x="1007" y="69" type="curve" smooth="yes"/>
      <point x="1007" y="3"/>
      <point x="1045" y="-37"/>
      <point x="1081" y="-37" type="curve" smooth="yes"/>
      <point x="1151" y="-37"/>
      <point x="1311" y="46"/>
    </contour>
  </outline>
</glyph>
<glyph name="n" format="2">
  <advance width="1031"/>
  <unicode hex="006E"/>
  <anchor x="706" y="0" name="H"/>
  <anchor x="447" y="-92" name="L"/>
  <anchor x="586" y="920" name="U"/>
  <outline>
    <contour>
      <point x="1017" y="121" type="curve"/>
      <point x="987" y="200" type="line"/>
      <point x="942" y="177"/>
      <point x="924" y="169"/>
      <point x="896" y="169" type="curve" smooth="yes"/>
      <point x="872" y="169"/>
      <point x="861" y="182"/>
      <point x="861" y="224" type="curve" smooth="yes"/>
      <point x="861" y="326"/>
      <point x="938" y="595"/>
      <point x="938" y="723" type="curve" smooth="yes"/>
      <point x="938" y="842"/>
      <point x="892" y="861"/>
      <point x="813" y="861" type="curve" smooth="yes"/>
      <point x="705" y="861"/>
      <point x="573" y="802"/>
      <point x="438" y="689" type="curve"/>
      <point x="442" y="720"/>
      <point x="443" y="731"/>
      <point x="443" y="757" type="curve" smooth="yes"/>
      <point x="443" y="844"/>
      <point x="430" y="861"/>
      <point x="396" y="861" type="curve" smooth="yes"/>
      <point x="354" y="861"/>
      <point x="124" y="775"/>
      <point x="20" y="730" type="curve"/>
      <point x="40" y="650" type="line"/>
      <point x="57" y="657"/>
      <point x="111" y="674"/>
      <point x="128" y="674" type="curve" smooth="yes"/>
      <point x="150" y="674"/>
      <point x="163" y="668"/>
      <point x="163" y="612" type="curve" smooth="yes"/>
      <point x="163" y="525"/>
      <point x="119" y="246"/>
      <point x="68" y="2" type="curve"/>
      <point x="110" y="-37" type="line"/>
      <point x="140" y="-21"/>
      <point x="330" y="64"/>
      <point x="364" y="78" type="curve"/>
      <point x="362" y="129"/>
      <point x="364" y="167"/>
      <point x="385" y="276" type="curve" smooth="yes"/>
      <point x="406" y="395"/>
      <point x="421" y="475"/>
      <point x="457" y="533" type="curve" smooth="yes"/>
      <point x="517" y="623"/>
      <point x="578" y="636"/>
      <point x="610" y="636" type="curve" smooth="yes"/>
      <point x="641" y="636"/>
      <point x="648" y="615"/>
      <point x="648" y="555" type="curve" smooth="yes"/>
      <point x="648" y="472"/>
      <point x="575" y="135"/>
      <point x="575" y="69" type="curve" smooth="yes"/>
      <point x="575" y="3"/>
      <point x="611" y="-37"/>
      <point x="654" y="-37" type="curve" smooth="yes"/>
      <point x="725" y="-37"/>
      <point x="905" y="55"/>
    </contour>
  </outline>
</glyph>
<glyph name="o" format="2">
  <advance width="861"/>
  <unicode hex="006F"/>
  <anchor x="384" y="0" name="H"/>
  <anchor x="359" y="-92" name="L"/>
  <anchor x="428" y="0" name="O"/>
  <anchor x="880" y="800" name="R"/>
  <anchor x="498" y="920" name="U"/>
  <outline>
    <contour>
      <point x="834" y="514" type="curve" smooth="yes"/>
      <point x="834" y="717"/>
      <point x="710" y="861"/>
      <point x="518" y="861" type="curve" smooth="yes"/>
      <point x="432" y="861"/>
      <point x="329" y="821"/>
      <point x="264" y="772" type="curve" smooth="yes"/>
      <point x="98" y="648"/>
      <point x="26" y="492"/>
      <point x="26" y="316" type="curve" smooth="yes"/>
      <point x="26" y="115"/>
      <point x="152" y="-37"/>
      <point x="356" y="-37" type="curve" smooth="yes"/>
      <point x="431" y="-37"/>
      <point x="537" y="5"/>
      <point x="601" y="57" type="curve" smooth="yes"/>
      <point x="738" y="171"/>
      <point x="834" y="350"/>
    </contour>
    <contour>
      <point x="570" y="429" type="curve" smooth="yes"/>
      <point x="570" y="278"/>
      <point x="533" y="98"/>
      <point x="420" y="98" type="curve" smooth="yes"/>
      <point x="361" y="98"/>
      <point x="291" y="235"/>
      <point x="291" y="398" type="curve" smooth="yes"/>
      <point x="291" y="555"/>
      <point x="333" y="719"/>
      <point x="454" y="719" type="curve" smooth="yes"/>
      <point x="504" y="719"/>
      <point x="570" y="615"/>
    </contour>
  </outline>
</glyph>
<glyph name="p" format="2">
  <advance width="976"/>
  <unicode hex="0070"/>
  <anchor x="80" y="-418" name="H"/>
  <anchor x="587" y="-92" name="L"/>
  <anchor x="1032" y="800" name="R"/>
  <anchor x="560" y="920" name="U"/>
  <outline>
    <contour>
      <point x="924" y="576" type="curve" smooth="yes"/>
      <point x="924" y="760"/>
      <point x="823" y="861"/>
      <point x="706" y="861" type="curve" smooth="yes"/>
      <point x="606" y="861"/>
      <point x="521" y="817"/>
      <point x="369" y="658" type="curve"/>
      <point x="375" y="473" type="line"/>
      <point x="455" y="610"/>
      <point x="550" y="674"/>
      <point x="583" y="674" type="curve" smooth="yes"/>
      <point x="620" y="674"/>
      <point x="657" y="584"/>
      <point x="657" y="478" type="curve" smooth="yes"/>
      <point x="657" y="376"/>
      <point x="639" y="291"/>
      <point x="618" y="245" type="curve" smooth="yes"/>
      <point x="599" y="207"/>
      <point x="561" y="174"/>
      <point x="517" y="174" type="curve" smooth="yes"/>
      <point x="476" y="174"/>
      <point x="380" y="203"/>
      <point x="338" y="264" type="curve"/>
      <point x="319" y="114" type="line"/>
      <point x="402" y="-3"/>
      <point x="501" y="-37"/>
      <point x="552" y="-37" type="curve" smooth="yes"/>
      <point x="649" y="-37"/>
      <point x="737" y="52"/>
      <point x="793" y="140" type="curve" smooth="yes"/>
      <point x="854" y="234"/>
      <point x="924" y="419"/>
    </contour>
    <contour>
      <point x="430" y="800" type="curve" smooth="yes"/>
      <point x="430" y="848"/>
      <point x="411" y="861"/>
      <point x="376" y="861" type="curve" smooth="yes"/>
      <point x="323" y="861"/>
      <point x="111" y="782"/>
      <point x="-2" y="729" type="curve"/>
      <point x="17" y="650" type="line"/>
      <point x="35" y="657"/>
      <point x="84" y="672"/>
      <point x="97" y="672" type="curve" smooth="yes"/>
      <point x="120" y="672"/>
      <point x="142" y="666"/>
      <point x="142" y="610" type="curve" smooth="yes"/>
      <point x="142" y="454"/>
      <point x="-8" y="-281"/>
      <point x="-27" y="-422" type="curve"/>
      <point x="12" y="-460" type="line"/>
      <point x="44" y="-445"/>
      <point x="236" y="-365"/>
      <point x="271" y="-356" type="curve"/>
      <point x="259" y="-322"/>
      <point x="267" y="-247"/>
      <point x="307" y="5" type="curve" smooth="yes"/>
      <point x="389" y="515"/>
      <point x="430" y="721"/>
    </contour>
  </outline>
</glyph>
<glyph name="q" format="2">
  <advance width="895"/>
  <unicode hex="0071"/>
  <anchor x="222" y="-92" name="L"/>
  <anchor x="988" y="800" name="R"/>
  <anchor x="507" y="920" name="U"/>
  <outline>
    <contour>
      <point x="831" y="743" type="curve"/>
      <point x="790" y="748"/>
      <point x="682" y="861"/>
      <point x="581" y="861" type="curve" smooth="yes"/>
      <point x="504" y="861"/>
      <point x="375" y="819"/>
      <point x="307" y="774" type="curve" smooth="yes"/>
      <point x="134" y="661"/>
      <point x="30" y="474"/>
      <point x="30" y="280" type="curve" smooth="yes"/>
      <point x="30" y="50"/>
      <point x="154" y="-37"/>
      <point x="244" y="-37" type="curve" smooth="yes"/>
      <point x="324" y="-37"/>
      <point x="395" y="5"/>
      <point x="518" y="149" type="curve"/>
      <point x="551" y="357" type="line"/>
      <point x="438" y="203"/>
      <point x="377" y="161"/>
      <point x="347" y="161" type="curve" smooth="yes"/>
      <point x="303" y="161"/>
      <point x="259" y="218"/>
      <point x="259" y="348" type="curve" smooth="yes"/>
      <point x="259" y="494"/>
      <point x="331" y="718"/>
      <point x="480" y="718" type="curve" smooth="yes"/>
      <point x="554" y="718"/>
      <point x="655" y="562"/>
      <point x="688" y="562" type="curve" smooth="yes"/>
      <point x="717" y="562"/>
      <point x="779" y="707"/>
    </contour>
    <contour>
      <point x="892" y="792" type="curve"/>
      <point x="857" y="861" type="line"/>
      <point x="774" y="827"/>
      <point x="603" y="755"/>
      <point x="594" y="699" type="curve" smooth="yes"/>
      <point x="522" y="269"/>
      <point x="431" y="-283"/>
      <point x="412" y="-424" type="curve"/>
      <point x="453" y="-460" type="line"/>
      <point x="483" y="-445"/>
      <point x="662" y="-376"/>
      <point x="695" y="-365" type="curve"/>
      <point x="655" y="-284"/>
      <point x="733" y="173"/>
      <point x="815" y="662" type="curve" smooth="yes"/>
      <point x="828" y="736"/>
      <point x="846" y="757"/>
    </contour>
  </outline>
</glyph>
<glyph name="r" format="2">
  <advance width="802"/>
  <unicode hex="0072"/>
  <anchor x="179" y="0" name="H"/>
  <anchor x="218" y="-92" name="L"/>
  <anchor x="490" y="920" name="U"/>
  <outline>
    <contour>
      <point x="858" y="782" type="curve"/>
      <point x="804" y="804"/>
      <point x="724" y="861"/>
      <point x="680" y="861" type="curve" smooth="yes"/>
      <point x="601" y="861"/>
      <point x="521" y="819"/>
      <point x="402" y="642" type="curve"/>
      <point x="410" y="688"/>
      <point x="416" y="747"/>
      <point x="416" y="773" type="curve" smooth="yes"/>
      <point x="416" y="841"/>
      <point x="405" y="861"/>
      <point x="371" y="861" type="curve" smooth="yes"/>
      <point x="322" y="861"/>
      <point x="123" y="782"/>
      <point x="19" y="736" type="curve"/>
      <point x="36" y="665" type="line"/>
      <point x="55" y="671"/>
      <point x="104" y="687"/>
      <point x="122" y="687" type="curve" smooth="yes"/>
      <point x="142" y="687"/>
      <point x="160" y="681"/>
      <point x="160" y="625" type="curve" smooth="yes"/>
      <point x="160" y="514"/>
      <point x="119" y="261"/>
      <point x="65" y="0" type="curve"/>
      <point x="104" y="-37" type="line"/>
      <point x="135" y="-21"/>
      <point x="296" y="51"/>
      <point x="337" y="69" type="curve"/>
      <point x="333" y="166"/>
      <point x="352" y="260"/>
      <point x="379" y="352" type="curve" smooth="yes"/>
      <point x="430" y="529"/>
      <point x="524" y="638"/>
      <point x="588" y="638" type="curve" smooth="yes"/>
      <point x="624" y="638"/>
      <point x="668" y="565"/>
      <point x="714" y="565" type="curve" smooth="yes"/>
      <point x="738" y="565"/>
      <point x="828" y="742"/>
    </contour>
  </outline>
</glyph>
<glyph name="s" format="2">
  <advance width="764"/>
  <unicode hex="0073"/>
  <anchor x="321" y="0" name="H"/>
  <anchor x="318" y="-92" name="L"/>
  <anchor x="457" y="920" name="U"/>
  <outline>
    <contour>
      <point x="774" y="776" type="curve"/>
      <point x="683" y="790"/>
      <point x="605" y="861"/>
      <point x="469" y="861" type="curve" smooth="yes"/>
      <point x="314" y="861"/>
      <point x="90" y="755"/>
      <point x="90" y="600" type="curve" smooth="yes"/>
      <point x="90" y="521"/>
      <point x="122" y="447"/>
      <point x="252" y="378" type="curve" smooth="yes"/>
      <point x="344" y="329"/>
      <point x="441" y="271"/>
      <point x="441" y="193" type="curve" smooth="yes"/>
      <point x="441" y="131"/>
      <point x="403" y="94"/>
      <point x="327" y="94" type="curve" smooth="yes"/>
      <point x="177" y="94"/>
      <point x="126" y="315"/>
      <point x="90" y="315" type="curve" smooth="yes"/>
      <point x="64" y="315"/>
      <point x="-26" y="150"/>
      <point x="-26" y="112" type="curve" smooth="yes"/>
      <point x="-26" y="60"/>
      <point x="94" y="-37"/>
      <point x="275" y="-37" type="curve" smooth="yes"/>
      <point x="435" y="-37"/>
      <point x="694" y="95"/>
      <point x="694" y="265" type="curve" smooth="yes"/>
      <point x="694" y="395"/>
      <point x="595" y="460"/>
      <point x="494" y="514" type="curve" smooth="yes"/>
      <point x="396" y="566"/>
      <point x="337" y="597"/>
      <point x="337" y="663" type="curve" smooth="yes"/>
      <point x="337" y="709"/>
      <point x="352" y="740"/>
      <point x="421" y="740" type="curve" smooth="yes"/>
      <point x="513" y="740"/>
      <point x="582" y="604"/>
      <point x="625" y="604" type="curve" smooth="yes"/>
      <point x="652" y="604"/>
      <point x="737" y="721"/>
    </contour>
  </outline>
</glyph>
<glyph name="t" format="2">
  <advance width="672"/>
  <unicode hex="0074"/>
  <anchor x="279" y="0" name="H"/>
  <anchor x="266" y="-92" name="L"/>
  <anchor x="630" y="800" name="R"/>
  <anchor x="436" y="1131" name="U"/>
  <outline>
    <contour>
      <point x="709" y="795" type="curve"/>
      <point x="679" y="832" type="line"/>
      <point x="152" y="832" type="line"/>
      <point x="31" y="744" type="line"/>
      <point x="56" y="706" type="line"/>
      <point x="445" y="706" type="line" smooth="yes"/>
      <point x="516" y="706"/>
      <point x="561" y="698"/>
      <point x="576" y="664" type="curve"/>
      <point x="599" y="677"/>
      <point x="684" y="761"/>
    </contour>
    <contour>
      <point x="654" y="162" type="curve"/>
      <point x="625" y="251" type="line"/>
      <point x="533" y="210"/>
      <point x="483" y="192"/>
      <point x="441" y="192" type="curve" smooth="yes"/>
      <point x="407" y="192"/>
      <point x="386" y="218"/>
      <point x="386" y="292" type="curve" smooth="yes"/>
      <point x="386" y="318"/>
      <point x="390" y="380"/>
      <point x="397" y="427" type="curve" smooth="yes"/>
      <point x="469" y="885" type="line" smooth="yes"/>
      <point x="493" y="1037"/>
      <point x="516" y="1058"/>
      <point x="516" y="1058" type="curve"/>
      <point x="490" y="1081" type="line"/>
      <point x="265" y="983" type="line"/>
      <point x="233" y="958"/>
      <point x="216" y="965"/>
      <point x="202" y="864" type="curve"/>
      <point x="112" y="305" type="line" smooth="yes"/>
      <point x="101" y="237"/>
      <point x="100" y="194"/>
      <point x="100" y="147" type="curve" smooth="yes"/>
      <point x="100" y="39"/>
      <point x="199" y="-37"/>
      <point x="281" y="-37" type="curve" smooth="yes"/>
      <point x="357" y="-37"/>
      <point x="511" y="48"/>
    </contour>
  </outline>
</glyph>
<glyph name="u" format="2">
  <advance width="1055"/>
  <unicode hex="0075"/>
  <anchor x="405" y="0" name="H"/>
  <anchor x="453" y="-92" name="L"/>
  <anchor x="791" y="0" name="O"/>
  <anchor x="1107" y="800" name="R"/>
  <anchor x="592" y="920" name="U"/>
  <outline>
    <contour>
      <point x="1035" y="117" type="curve"/>
      <point x="1016" y="195" type="line"/>
      <point x="972" y="177"/>
      <point x="954" y="169"/>
      <point x="921" y="169" type="curve" smooth="yes"/>
      <point x="891" y="169"/>
      <point x="873" y="199"/>
      <point x="873" y="311" type="curve" smooth="yes"/>
      <point x="873" y="431"/>
      <point x="933" y="676"/>
      <point x="933" y="783" type="curve" smooth="yes"/>
      <point x="933" y="839"/>
      <point x="925" y="861"/>
      <point x="891" y="861" type="curve" smooth="yes"/>
      <point x="837" y="861"/>
      <point x="619" y="775"/>
      <point x="515" y="729" type="curve"/>
      <point x="535" y="650" type="line"/>
      <point x="558" y="659"/>
      <point x="595" y="672"/>
      <point x="610" y="672" type="curve" smooth="yes"/>
      <point x="631" y="672"/>
      <point x="644" y="666"/>
      <point x="644" y="610" type="curve" smooth="yes"/>
      <point x="644" y="542"/>
      <point x="606" y="377"/>
      <point x="597" y="273" type="curve" smooth="yes"/>
      <point x="580" y="75"/>
      <point x="672" y="-37"/>
      <point x="744" y="-37" type="curve" smooth="yes"/>
      <point x="812" y="-37"/>
      <point x="938" y="51"/>
    </contour>
    <contour>
      <point x="608" y="350" type="line"/>
      <point x="511" y="236"/>
      <point x="441" y="183"/>
      <point x="403" y="183" type="curve" smooth="yes"/>
      <point x="391" y="183"/>
      <point x="367" y="212"/>
      <point x="367" y="252" type="curve" smooth="yes"/>
      <point x="367" y="359"/>
      <point x="441" y="676"/>
      <point x="441" y="783" type="curve" smooth="yes"/>
      <point x="441" y="839"/>
      <point x="432" y="861"/>
      <point x="396" y="861" type="curve" smooth="yes"/>
      <point x="344" y="861"/>
      <point x="117" y="775"/>
      <point x="13" y="729" type="curve"/>
      <point x="30" y="650" type="line"/>
      <point x="56" y="659"/>
      <point x="98" y="672"/>
      <point x="113" y="672" type="curve" smooth="yes"/>
      <point x="135" y="672"/>
      <point x="151" y="666"/>
      <point x="151" y="610" type="curve" smooth="yes"/>
      <point x="151" y="520"/>
      <point x="94" y="298"/>
      <point x="94" y="188" type="curve" smooth="yes"/>
      <point x="94" y="39"/>
      <point x="192" y="-37"/>
      <point x="274" y="-37" type="curve" smooth="yes"/>
      <point x="375" y="-37"/>
      <point x="513" y="45"/>
      <point x="603" y="152" type="curve"/>
    </contour>
  </outline>
</glyph>
<glyph name="v" format="2">
  <advance width="934"/>
  <unicode hex="0076"/>
  <anchor x="411" y="0" name="H"/>
  <anchor x="392" y="-92" name="L"/>
  <anchor x="359" y="0" name="O"/>
  <anchor x="531" y="920" name="U"/>
  <outline>
    <contour>
      <point x="937" y="783" type="curve" smooth="yes"/>
      <point x="937" y="841"/>
      <point x="900" y="861"/>
      <point x="857" y="861" type="curve" smooth="yes"/>
      <point x="795" y="861"/>
      <point x="605" y="781"/>
      <point x="524" y="734" type="curve"/>
      <point x="546" y="657" type="line"/>
      <point x="572" y="667"/>
      <point x="588" y="672"/>
      <point x="608" y="672" type="curve" smooth="yes"/>
      <point x="642" y="672"/>
      <point x="655" y="657"/>
      <point x="655" y="623" type="curve" smooth="yes"/>
      <point x="655" y="604"/>
      <point x="661" y="510"/>
      <point x="498" y="262" type="curve"/>
      <point x="494" y="308"/>
      <point x="430" y="650"/>
      <point x="401" y="744" type="curve" smooth="yes"/>
      <point x="373" y="830"/>
      <point x="352" y="861"/>
      <point x="316" y="861" type="curve" smooth="yes"/>
      <point x="275" y="861"/>
      <point x="97" y="772"/>
      <point x="-6" y="717" type="curve"/>
      <point x="21" y="638" type="line"/>
      <point x="46" y="647"/>
      <point x="93" y="662"/>
      <point x="111" y="662" type="curve" smooth="yes"/>
      <point x="132" y="662"/>
      <point x="157" y="651"/>
      <point x="177" y="585" type="curve" smooth="yes"/>
      <point x="212" y="473"/>
      <point x="267" y="209"/>
      <point x="298" y="2" type="curve"/>
      <point x="338" y="-37" type="line"/>
      <point x="363" y="-26"/>
      <point x="508" y="45"/>
      <point x="529" y="56" type="curve"/>
      <point x="830" y="540"/>
      <point x="937" y="704"/>
    </contour>
  </outline>
</glyph>
<glyph name="w" format="2">
  <advance width="1306"/>
  <unicode hex="0077"/>
  <anchor x="613" y="-92" name="L"/>
  <anchor x="752" y="920" name="U"/>
  <outline>
    <contour>
      <point x="1313" y="791" type="curve" smooth="yes"/>
      <point x="1313" y="851"/>
      <point x="1277" y="861"/>
      <point x="1236" y="861" type="curve" smooth="yes"/>
      <point x="1173" y="861"/>
      <point x="1048" y="818"/>
      <point x="954" y="759" type="curve"/>
      <point x="980" y="689" type="line"/>
      <point x="1007" y="697"/>
      <point x="1042" y="702"/>
      <point x="1059" y="702" type="curve" smooth="yes"/>
      <point x="1092" y="702"/>
      <point x="1110" y="687"/>
      <point x="1110" y="661" type="curve" smooth="yes"/>
      <point x="1110" y="594"/>
      <point x="1032" y="447"/>
      <point x="923" y="254" type="curve"/>
      <point x="916" y="330"/>
      <point x="895" y="437"/>
      <point x="876" y="552" type="curve"/>
      <point x="857" y="663"/>
      <point x="810" y="861"/>
      <point x="795" y="861" type="curve" smooth="yes"/>
      <point x="753" y="861"/>
      <point x="645" y="790"/>
      <point x="591" y="739" type="curve"/>
      <point x="587" y="649"/>
      <point x="521" y="455"/>
      <point x="423" y="264" type="curve"/>
      <point x="417" y="356"/>
      <point x="380" y="664"/>
      <point x="365" y="735" type="curve" smooth="yes"/>
      <point x="345" y="823"/>
      <point x="332" y="861"/>
      <point x="298" y="861" type="curve" smooth="yes"/>
      <point x="256" y="861"/>
      <point x="92" y="784"/>
      <point x="-14" y="726" type="curve"/>
      <point x="7" y="655" type="line"/>
      <point x="7" y="655"/>
      <point x="77" y="678"/>
      <point x="98" y="678" type="curve" smooth="yes"/>
      <point x="120" y="678"/>
      <point x="149" y="668"/>
      <point x="163" y="602" type="curve" smooth="yes"/>
      <point x="177" y="543"/>
      <point x="211" y="209"/>
      <point x="232" y="0" type="curve"/>
      <point x="271" y="-37" type="line"/>
      <point x="296" y="-26"/>
      <point x="442" y="53"/>
      <point x="463" y="64" type="curve"/>
      <point x="573" y="261"/>
      <point x="631" y="397"/>
      <point x="658" y="487" type="curve"/>
      <point x="690" y="374"/>
      <point x="715" y="207"/>
      <point x="742" y="0" type="curve"/>
      <point x="782" y="-37" type="line"/>
      <point x="805" y="-26"/>
      <point x="934" y="42"/>
      <point x="955" y="53" type="curve"/>
      <point x="1238" y="563"/>
      <point x="1313" y="693"/>
    </contour>
  </outline>
</glyph>
<glyph name="x" format="2">
  <advance width="895"/>
  <unicode hex="0078"/>
  <anchor x="639" y="0" name="H"/>
  <anchor x="400" y="-92" name="L"/>
  <anchor x="538" y="920" name="U"/>
  <outline>
    <contour>
      <point x="910" y="812" type="curve" smooth="yes"/>
      <point x="910" y="838"/>
      <point x="877" y="861"/>
      <point x="797" y="861" type="curve" smooth="yes"/>
      <point x="734" y="861"/>
      <point x="586" y="843"/>
      <point x="505" y="826" type="curve"/>
      <point x="511" y="745" type="line"/>
      <point x="528" y="747"/>
      <point x="543" y="748"/>
      <point x="554" y="748" type="curve" smooth="yes"/>
      <point x="602" y="748"/>
      <point x="623" y="736"/>
      <point x="623" y="715" type="curve" smooth="yes"/>
      <point x="623" y="696"/>
      <point x="548" y="582"/>
      <point x="439" y="456" type="curve"/>
      <point x="531" y="377" type="line"/>
      <point x="779" y="624"/>
      <point x="910" y="762"/>
    </contour>
    <contour>
      <point x="884" y="110" type="curve"/>
      <point x="857" y="188" type="line"/>
      <point x="812" y="165"/>
      <point x="763" y="158"/>
      <point x="734" y="158" type="curve" smooth="yes"/>
      <point x="621" y="158"/>
      <point x="458" y="861"/>
      <point x="322" y="861" type="curve" smooth="yes"/>
      <point x="273" y="861"/>
      <point x="123" y="787"/>
      <point x="13" y="729" type="curve"/>
      <point x="37" y="648" type="line"/>
      <point x="78" y="659"/>
      <point x="136" y="672"/>
      <point x="158" y="672" type="curve" smooth="yes"/>
      <point x="275" y="672"/>
      <point x="422" y="-37"/>
      <point x="583" y="-37" type="curve" smooth="yes"/>
      <point x="654" y="-37"/>
      <point x="778" y="36"/>
    </contour>
    <contour>
      <point x="480" y="339" type="curve"/>
      <point x="384" y="422" type="line"/>
      <point x="275" y="287"/>
      <point x="71" y="111"/>
      <point x="-49" y="5" type="curve"/>
      <point x="-16" y="-37" type="line"/>
      <point x="28" y="-24"/>
      <point x="212" y="6"/>
      <point x="257" y="13" type="curve"/>
      <point x="354" y="160"/>
      <point x="429" y="265"/>
    </contour>
  </outline>
</glyph>
<glyph name="y" format="2">
  <advance width="929"/>
  <unicode hex="0079"/>
  <anchor x="636" y="-92" name="L"/>
  <anchor x="1113" y="800" name="R"/>
  <anchor x="559" y="920" name="U"/>
  <outline>
    <contour>
      <point x="559" y="54" type="line"/>
      <point x="516" y="301"/>
      <point x="440" y="589"/>
      <point x="385" y="744" type="curve" smooth="yes"/>
      <point x="356" y="828"/>
      <point x="329" y="861"/>
      <point x="295" y="861" type="curve" smooth="yes"/>
      <point x="243" y="861"/>
      <point x="82" y="787"/>
      <point x="-33" y="729" type="curve"/>
      <point x="-11" y="650" type="line"/>
      <point x="18" y="659"/>
      <point x="62" y="672"/>
      <point x="78" y="672" type="curve" smooth="yes"/>
      <point x="100" y="672"/>
      <point x="116" y="659"/>
      <point x="145" y="596" type="curve" smooth="yes"/>
      <point x="199" y="479"/>
      <point x="307" y="82"/>
      <point x="343" y="-129" type="curve"/>
      <point x="373" y="-156" type="line"/>
    </contour>
    <contour>
      <point x="921" y="791" type="curve" smooth="yes"/>
      <point x="921" y="851"/>
      <point x="876" y="861"/>
      <point x="834" y="861" type="curve" smooth="yes"/>
      <point x="759" y="861"/>
      <point x="608" y="796"/>
      <point x="520" y="745" type="curve"/>
      <point x="548" y="666" type="line"/>
      <point x="583" y="682"/>
      <point x="599" y="687"/>
      <point x="620" y="687" type="curve" smooth="yes"/>
      <point x="651" y="687"/>
      <point x="669" y="668"/>
      <point x="669" y="639" type="curve" smooth="yes"/>
      <point x="669" y="565"/>
      <point x="557" y="308"/>
      <point x="429" y="68" type="curve" smooth="yes"/>
      <point x="316" y="-141"/>
      <point x="225" y="-261"/>
      <point x="151" y="-261" type="curve" smooth="yes"/>
      <point x="106" y="-261"/>
      <point x="21" y="-219"/>
      <point x="-36" y="-155" type="curve"/>
      <point x="-70" y="-173"/>
      <point x="-188" y="-318"/>
      <point x="-188" y="-358" type="curve" smooth="yes"/>
      <point x="-188" y="-389"/>
      <point x="-62" y="-460"/>
      <point x="44" y="-460" type="curve" smooth="yes"/>
      <point x="265" y="-460"/>
      <point x="416" y="-239"/>
      <point x="591" y="75" type="curve" smooth="yes"/>
      <point x="752" y="367"/>
      <point x="921" y="708"/>
    </contour>
  </outline>
</glyph>
<glyph name="z" format="2">
  <advance width="713"/>
  <unicode hex="007A"/>
  <anchor x="308" y="0" name="H"/>
  <anchor x="314" y="-92" name="L"/>
  <anchor x="455" y="920" name="U"/>
  <outline>
    <contour>
      <point x="726" y="797" type="curve"/>
      <point x="695" y="841" type="line"/>
      <point x="246" y="841" type="line" smooth="yes"/>
      <point x="203" y="841"/>
      <point x="145" y="855"/>
      <point x="122" y="861" type="curve"/>
      <point x="113" y="808"/>
      <point x="71" y="629"/>
      <point x="48" y="520" type="curve"/>
      <point x="121" y="502" type="line"/>
      <point x="157" y="605"/>
      <point x="188" y="631"/>
      <point x="246" y="631" type="curve" smooth="yes"/>
      <point x="420" y="631" type="line"/>
      <point x="313" y="504"/>
      <point x="159" y="247"/>
      <point x="-23" y="27" type="curve"/>
      <point x="16" y="-28" type="line"/>
      <point x="109" y="18"/>
      <point x="171" y="43"/>
      <point x="211" y="43" type="curve" smooth="yes"/>
      <point x="265" y="43"/>
      <point x="382" y="-18"/>
      <point x="480" y="-18" type="curve" smooth="yes"/>
      <point x="600" y="-18"/>
      <point x="659" y="102"/>
      <point x="727" y="254" type="curve"/>
      <point x="660" y="295" type="line"/>
      <point x="613" y="209"/>
      <point x="583" y="195"/>
      <point x="560" y="195" type="curve" smooth="yes"/>
      <point x="514" y="195"/>
      <point x="417" y="241"/>
      <point x="368" y="241" type="curve" smooth="yes"/>
      <point x="338" y="241"/>
      <point x="292" y="226"/>
      <point x="292" y="226" type="curve"/>
      <point x="486" y="475"/>
      <point x="524" y="580"/>
    </contour>
  </outline>
</glyph>
<glyph name="braceleft" format="2">
  <advance width="659"/>
  <unicode hex="007B"/>
  <outline>
    <contour>
      <point x="751" y="1384" type="curve"/>
      <point x="720" y="1472" type="line"/>
      <point x="507" y="1389"/>
      <point x="325" y="1287"/>
      <point x="303" y="1121" type="curve" smooth="yes"/>
      <point x="284" y="993"/>
      <point x="310" y="920"/>
      <point x="293" y="793" type="curve" smooth="yes"/>
      <point x="280" y="701"/>
      <point x="222" y="642"/>
      <point x="93" y="604" type="curve"/>
      <point x="95" y="511" type="line"/>
      <point x="129" y="516"/>
      <point x="120" y="516"/>
      <point x="152" y="516" type="curve" smooth="yes"/>
      <point x="216" y="516"/>
      <point x="250" y="487"/>
      <point x="236" y="388" type="curve" smooth="yes"/>
      <point x="219" y="257"/>
      <point x="172" y="166"/>
      <point x="155" y="43" type="curve"/>
      <point x="131" y="-133"/>
      <point x="263" y="-207"/>
      <point x="472" y="-289" type="curve"/>
      <point x="527" y="-189" type="line"/>
      <point x="417" y="-118"/>
      <point x="406" y="-63"/>
      <point x="417" y="17" type="curve"/>
      <point x="430" y="118"/>
      <point x="481" y="229"/>
      <point x="498" y="354" type="curve" smooth="yes"/>
      <point x="516" y="489"/>
      <point x="469" y="578"/>
      <point x="357" y="600" type="curve"/>
      <point x="459" y="645"/>
      <point x="552" y="747"/>
      <point x="566" y="849" type="curve" smooth="yes"/>
      <point x="581" y="970"/>
      <point x="557" y="1054"/>
      <point x="575" y="1174" type="curve" smooth="yes"/>
      <point x="585" y="1246"/>
      <point x="654" y="1325"/>
    </contour>
  </outline>
</glyph>
<glyph name="bar" format="2">
  <advance width="400"/>
  <unicode hex="007C"/>
  <outline>
    <contour>
      <point x="414" y="1439" type="line"/>
      <point x="375" y="1471" type="line"/>
      <point x="339" y="1461"/>
      <point x="281" y="1430"/>
      <point x="247" y="1409" type="curve"/>
      <point x="12" y="-244" type="line"/>
      <point x="50" y="-279" type="line"/>
      <point x="79" y="-269"/>
      <point x="155" y="-231"/>
      <point x="179" y="-215" type="curve"/>
    </contour>
  </outline>
</glyph>
<glyph name="braceright" format="2">
  <advance width="645"/>
  <unicode hex="007D"/>
  <outline>
    <contour>
      <point x="568" y="580" type="curve"/>
      <point x="565" y="666" type="line"/>
      <point x="531" y="660"/>
      <point x="540" y="660"/>
      <point x="508" y="660" type="curve" smooth="yes"/>
      <point x="441" y="660"/>
      <point x="405" y="693"/>
      <point x="419" y="793" type="curve" smooth="yes"/>
      <point x="437" y="927"/>
      <point x="483" y="1007"/>
      <point x="500" y="1133" type="curve" smooth="yes"/>
      <point x="525" y="1311"/>
      <point x="403" y="1388"/>
      <point x="199" y="1471" type="curve"/>
      <point x="149" y="1378" type="line"/>
      <point x="260" y="1306"/>
      <point x="272" y="1249"/>
      <point x="259" y="1160" type="curve"/>
      <point x="245" y="1056"/>
      <point x="196" y="955"/>
      <point x="179" y="827" type="curve" smooth="yes"/>
      <point x="161" y="691"/>
      <point x="206" y="602"/>
      <point x="316" y="580" type="curve"/>
      <point x="214" y="535"/>
      <point x="125" y="434"/>
      <point x="111" y="332" type="curve" smooth="yes"/>
      <point x="93" y="207"/>
      <point x="119" y="135"/>
      <point x="102" y="11" type="curve" smooth="yes"/>
      <point x="91" y="-69"/>
      <point x="20" y="-150"/>
      <point x="-75" y="-210" type="curve"/>
      <point x="-48" y="-290" type="line"/>
      <point x="159" y="-207"/>
      <point x="331" y="-102"/>
      <point x="354" y="63" type="curve" smooth="yes"/>
      <point x="372" y="195"/>
      <point x="345" y="256"/>
      <point x="363" y="387" type="curve" smooth="yes"/>
      <point x="376" y="479"/>
      <point x="437" y="542"/>
    </contour>
  </outline>
</glyph>
<glyph name="asciitilde" format="2">
  <advance width="924"/>
  <unicode hex="007E"/>
  <outline>
    <contour>
      <point x="920" y="717" type="curve"/>
      <point x="853" y="753" type="line"/>
      <point x="782" y="644"/>
      <point x="736" y="606"/>
      <point x="682" y="606" type="curve" smooth="yes"/>
      <point x="599" y="606"/>
      <point x="501" y="753"/>
      <point x="386" y="753" type="curve" smooth="yes"/>
      <point x="279" y="753"/>
      <point x="141" y="598"/>
      <point x="69" y="459" type="curve"/>
      <point x="132" y="418" type="line"/>
      <point x="201" y="520"/>
      <point x="245" y="567"/>
      <point x="301" y="567" type="curve" smooth="yes"/>
      <point x="391" y="567"/>
      <point x="492" y="420"/>
      <point x="599" y="420" type="curve" smooth="yes"/>
      <point x="707" y="420"/>
      <point x="845" y="578"/>
    </contour>
  </outline>
</glyph>
<glyph name="exclamdown" format="2">
  <advance width="460"/>
  <unicode hex="00A1"/>
  <outline>
    <contour>
      <point x="267" y="467" type="line"/>
      <point x="244" y="486" type="line"/>
      <point x="216" y="477"/>
      <point x="164" y="458"/>
      <point x="139" y="441" type="curve"/>
      <point x="-57" y="-461" type="line"/>
      <point x="-16" y="-494" type="line"/>
      <point x="32" y="-476"/>
      <point x="170" y="-412"/>
      <point x="226" y="-381" type="curve"/>
    </contour>
    <contour>
      <point x="86" y="673" type="curve" smooth="yes"/>
      <point x="86" y="609"/>
      <point x="124" y="563"/>
      <point x="209" y="563" type="curve" smooth="yes"/>
      <point x="329" y="563"/>
      <point x="391" y="666"/>
      <point x="391" y="750" type="curve" smooth="yes"/>
      <point x="391" y="810"/>
      <point x="352" y="855"/>
      <point x="270" y="855" type="curve" smooth="yes"/>
      <point x="156" y="855"/>
      <point x="86" y="753"/>
    </contour>
  </outline>
</glyph>
<glyph name="cent" format="2">
  <advance width="917"/>
  <unicode hex="00A2"/>
  <outline>
    <contour>
      <point x="927" y="861" type="curve"/>
      <point x="867" y="874"/>
      <point x="752" y="970"/>
      <point x="633" y="970" type="curve" smooth="yes"/>
      <point x="503" y="970"/>
      <point x="430" y="938"/>
      <point x="363" y="895" type="curve"/>
      <point x="182" y="774"/>
      <point x="73" y="598"/>
      <point x="73" y="433" type="curve" smooth="yes"/>
      <point x="73" y="174"/>
      <point x="265" y="102"/>
      <point x="381" y="102" type="curve" smooth="yes"/>
      <point x="537" y="102"/>
      <point x="624" y="177"/>
      <point x="816" y="353" type="curve"/>
      <point x="811" y="364"/>
      <point x="771" y="421"/>
      <point x="761" y="437" type="curve"/>
      <point x="629" y="327"/>
      <point x="563" y="262"/>
      <point x="463" y="262" type="curve" smooth="yes"/>
      <point x="405" y="262"/>
      <point x="328" y="309"/>
      <point x="328" y="469" type="curve" smooth="yes"/>
      <point x="328" y="638"/>
      <point x="416" y="832"/>
      <point x="539" y="832" type="curve" smooth="yes"/>
      <point x="622" y="832"/>
      <point x="670" y="654"/>
      <point x="707" y="654" type="curve" smooth="yes"/>
      <point x="748" y="654"/>
      <point x="886" y="823"/>
    </contour>
    <contour>
      <point x="629" y="1098" type="line"/>
      <point x="610" y="1119" type="line"/>
      <point x="576" y="1109"/>
      <point x="534" y="1079"/>
      <point x="502" y="1057" type="curve"/>
      <point x="353" y="-24" type="line"/>
      <point x="371" y="-45" type="line"/>
      <point x="399" y="-35"/>
      <point x="458" y="-3"/>
      <point x="480" y="16" type="curve"/>
    </contour>
  </outline>
</glyph>
<glyph name="sterling" format="2">
  <advance width="917"/>
  <unicode hex="00A3"/>
  <outline>
    <contour>
      <point x="908" y="1071" type="curve"/>
      <point x="809" y="1129"/>
      <point x="693" y="1136"/>
      <point x="632" y="1136" type="curve" smooth="yes"/>
      <point x="360" y="1136"/>
      <point x="139" y="872"/>
      <point x="120" y="531" type="curve"/>
      <point x="99" y="204"/>
      <point x="62" y="146"/>
      <point x="-60" y="51" type="curve"/>
      <point x="-32" y="-27" type="line"/>
      <point x="152" y="87"/>
      <point x="582" y="-91"/>
      <point x="747" y="0" type="curve"/>
      <point x="762" y="35"/>
      <point x="812" y="205"/>
      <point x="836" y="311" type="curve"/>
      <point x="763" y="338" type="line"/>
      <point x="693" y="195"/>
      <point x="648" y="150"/>
      <point x="540" y="147" type="curve" smooth="yes"/>
      <point x="414" y="144"/>
      <point x="421" y="161"/>
      <point x="263" y="147" type="curve"/>
      <point x="356" y="266"/>
      <point x="395" y="379"/>
      <point x="402" y="547" type="curve"/>
      <point x="420" y="995"/>
      <point x="553" y="1011"/>
      <point x="612" y="1011" type="curve" smooth="yes"/>
      <point x="709" y="1011"/>
      <point x="752" y="902"/>
      <point x="749" y="750" type="curve"/>
      <point x="830" y="750" type="line"/>
      <point x="850" y="797"/>
      <point x="898" y="1009"/>
    </contour>
    <contour>
      <point x="690" y="566" type="line"/>
      <point x="661" y="599" type="line"/>
      <point x="43" y="599" type="line"/>
      <point x="32" y="579"/>
      <point x="-2" y="523"/>
      <point x="-8" y="504" type="curve"/>
      <point x="14" y="470" type="line"/>
      <point x="635" y="470" type="line"/>
    </contour>
  </outline>
</glyph>
<glyph name="currency" format="2">
  <advance width="917"/>
  <unicode hex="00A4"/>
  <outline>
    <contour>
      <point x="489" y="782" type="curve"/>
      <point x="612" y="775"/>
      <point x="677" y="664"/>
      <point x="662" y="553" type="curve" smooth="yes"/>
      <point x="647" y="436"/>
      <point x="544" y="325"/>
      <point x="427" y="325" type="curve" smooth="yes"/>
      <point x="302" y="325"/>
      <point x="237" y="445"/>
      <point x="252" y="552" type="curve" smooth="yes"/>
      <point x="267" y="670"/>
      <point x="370" y="782"/>
    </contour>
    <contour>
      <point x="136" y="551" type="curve"/>
      <point x="115" y="366"/>
      <point x="217" y="196"/>
      <point x="410" y="196" type="curve" smooth="yes"/>
      <point x="605" y="196"/>
      <point x="754" y="377"/>
      <point x="779" y="551" type="curve" smooth="yes"/>
      <point x="803" y="727"/>
      <point x="691" y="914"/>
      <point x="507" y="914" type="curve" smooth="yes"/>
      <point x="302" y="914"/>
      <point x="160" y="715"/>
    </contour>
    <contour>
      <point x="264" y="406" type="line"/>
      <point x="223" y="403" type="line"/>
      <point x="13" y="201" type="line"/>
      <point x="21" y="172"/>
      <point x="31" y="140"/>
      <point x="39" y="116" type="curve"/>
      <point x="80" y="114" type="line"/>
      <point x="289" y="315" type="line"/>
    </contour>
    <contour>
      <point x="344" y="754" type="line"/>
      <point x="348" y="800" type="line"/>
      <point x="203" y="992" type="line"/>
      <point x="174" y="979"/>
      <point x="145" y="963"/>
      <point x="121" y="949" type="curve"/>
      <point x="112" y="903" type="line"/>
      <point x="258" y="712" type="line"/>
    </contour>
    <contour>
      <point x="795" y="157" type="line"/>
      <point x="801" y="204" type="line"/>
      <point x="654" y="395" type="line"/>
      <point x="628" y="383"/>
      <point x="596" y="367"/>
      <point x="572" y="353" type="curve"/>
      <point x="563" y="308" type="line"/>
      <point x="710" y="114" type="line"/>
    </contour>
    <contour>
      <point x="872" y="992" type="line"/>
      <point x="831" y="991" type="line"/>
      <point x="619" y="788" type="line"/>
      <point x="627" y="760"/>
      <point x="637" y="727"/>
      <point x="646" y="703" type="curve"/>
      <point x="688" y="700" type="line"/>
      <point x="896" y="903" type="line"/>
    </contour>
  </outline>
</glyph>
<glyph name="yen" format="2">
  <advance width="917"/>
  <unicode hex="00A5"/>
  <outline>
    <contour>
      <point x="1054" y="1104" type="line"/>
      <point x="675" y="1104" type="line"/>
      <point x="663" y="1020" type="line"/>
      <point x="751" y="1008"/>
      <point x="773" y="991"/>
      <point x="751" y="959" type="curve"/>
      <point x="556" y="644" type="line"/>
      <point x="495" y="832"/>
      <point x="446" y="943"/>
      <point x="378" y="1065" type="curve" smooth="yes"/>
      <point x="363" y="1095"/>
      <point x="321" y="1112"/>
      <point x="284" y="1112" type="curve" smooth="yes"/>
      <point x="236" y="1112"/>
      <point x="90" y="1094"/>
      <point x="20" y="1085" type="curve"/>
      <point x="9" y="1002" type="line"/>
      <point x="108" y="1000"/>
      <point x="123" y="985"/>
      <point x="136" y="958" type="curve" smooth="yes"/>
      <point x="199" y="844"/>
      <point x="274" y="663"/>
      <point x="330" y="467" type="curve"/>
      <point x="329" y="459" type="line"/>
      <point x="83" y="459" type="line"/>
      <point x="73" y="440"/>
      <point x="42" y="372"/>
      <point x="34" y="355" type="curve"/>
      <point x="50" y="333" type="line"/>
      <point x="311" y="333" type="line"/>
      <point x="286" y="150" type="line" smooth="yes"/>
      <point x="284" y="133"/>
      <point x="252" y="107"/>
      <point x="143" y="84" type="curve"/>
      <point x="132" y="0" type="line"/>
      <point x="667" y="0" type="line"/>
      <point x="678" y="84" type="line"/>
      <point x="571" y="107"/>
      <point x="548" y="134"/>
      <point x="552" y="150" type="curve"/>
      <point x="576" y="333" type="line"/>
      <point x="794" y="333" type="line"/>
      <point x="845" y="438" type="line"/>
      <point x="827" y="459" type="line"/>
      <point x="594" y="459" type="line"/>
      <point x="595" y="465" type="line"/>
      <point x="907" y="959" type="line"/>
      <point x="929" y="990"/>
      <point x="960" y="1004"/>
      <point x="1043" y="1020" type="curve"/>
    </contour>
  </outline>
</glyph>
<glyph name="brokenbar" format="2">
  <advance width="483"/>
  <unicode hex="00A6"/>
  <outline>
    <contour>
      <point x="433" y="1439" type="line"/>
      <point x="396" y="1471" type="line"/>
      <point x="360" y="1461"/>
      <point x="292" y="1435"/>
      <point x="256" y="1414" type="curve"/>
      <point x="153" y="698" type="line"/>
      <point x="193" y="666" type="line"/>
      <point x="223" y="676"/>
      <point x="309" y="705"/>
      <point x="334" y="724" type="curve"/>
    </contour>
    <contour>
      <point x="301" y="484" type="line"/>
      <point x="261" y="518" type="line"/>
      <point x="225" y="506"/>
      <point x="157" y="480"/>
      <point x="124" y="459" type="curve"/>
      <point x="23" y="-244" type="line"/>
      <point x="61" y="-279" type="line"/>
      <point x="88" y="-269"/>
      <point x="177" y="-237"/>
      <point x="199" y="-221" type="curve"/>
    </contour>
  </outline>
</glyph>
<glyph name="section" format="2">
  <advance width="865"/>
  <unicode hex="00A7"/>
  <outline>
    <contour>
      <point x="349" y="-27" type="curve" smooth="yes"/>
      <point x="455" y="-27"/>
      <point x="696" y="0"/>
      <point x="731" y="260" type="curve"/>
      <point x="750" y="397"/>
      <point x="620" y="469"/>
      <point x="531" y="523" type="curve"/>
      <point x="398" y="613"/>
      <point x="333" y="656"/>
      <point x="348" y="763" type="curve" smooth="yes"/>
      <point x="357" y="830"/>
      <point x="435" y="908"/>
      <point x="494" y="910" type="curve"/>
      <point x="471" y="942"/>
      <point x="449" y="973"/>
      <point x="426" y="1004" type="curve"/>
      <point x="295" y="979"/>
      <point x="161" y="845"/>
      <point x="143" y="717" type="curve" smooth="yes"/>
      <point x="120" y="545"/>
      <point x="236" y="447"/>
      <point x="321" y="394" type="curve" smooth="yes"/>
      <point x="414" y="335"/>
      <point x="527" y="279"/>
      <point x="513" y="181" type="curve" smooth="yes"/>
      <point x="504" y="113"/>
      <point x="470" y="90"/>
      <point x="391" y="90" type="curve" smooth="yes"/>
      <point x="301" y="90"/>
      <point x="233" y="174"/>
      <point x="222" y="314" type="curve"/>
      <point x="147" y="324" type="line"/>
      <point x="109" y="223"/>
      <point x="88" y="46"/>
      <point x="102" y="39" type="curve"/>
      <point x="170" y="-5"/>
      <point x="272" y="-27"/>
    </contour>
    <contour>
      <point x="597" y="309" type="curve"/>
      <point x="694" y="340"/>
      <point x="808" y="458"/>
      <point x="830" y="619" type="curve" smooth="yes"/>
      <point x="856" y="811"/>
      <point x="737" y="901"/>
      <point x="649" y="955" type="curve"/>
      <point x="534" y="1028"/>
      <point x="448" y="1061"/>
      <point x="458" y="1140" type="curve"/>
      <point x="465" y="1191"/>
      <point x="506" y="1223"/>
      <point x="570" y="1223" type="curve" smooth="yes"/>
      <point x="648" y="1223"/>
      <point x="690" y="1155"/>
      <point x="693" y="1040" type="curve"/>
      <point x="758" y="1033" type="line"/>
      <point x="794" y="1080"/>
      <point x="850" y="1242"/>
      <point x="838" y="1253" type="curve" smooth="yes"/>
      <point x="791" y="1297"/>
      <point x="691" y="1324"/>
      <point x="588" y="1324" type="curve" smooth="yes"/>
      <point x="430" y="1324"/>
      <point x="264" y="1229"/>
      <point x="242" y="1076" type="curve" smooth="yes"/>
      <point x="226" y="959"/>
      <point x="354" y="882"/>
      <point x="438" y="827" type="curve" smooth="yes"/>
      <point x="580" y="735"/>
      <point x="640" y="684"/>
      <point x="623" y="558" type="curve"/>
      <point x="612" y="482"/>
      <point x="547" y="411"/>
      <point x="491" y="404" type="curve"/>
      <point x="526" y="372"/>
      <point x="562" y="341"/>
    </contour>
  </outline>
</glyph>
<glyph name="dieresis" format="2">
  <advance width="958"/>
  <unicode hex="00A8"/>
  <anchor x="570" y="1244" name="U"/>
  <outline>
    <contour>
      <point x="871" y="1172" type="curve" smooth="yes"/>
      <point x="871" y="1224"/>
      <point x="840" y="1281"/>
      <point x="770" y="1281" type="curve" smooth="yes"/>
      <point x="666" y="1281"/>
      <point x="606" y="1169"/>
      <point x="606" y="1093" type="curve" smooth="yes"/>
      <point x="606" y="1040"/>
      <point x="636" y="983"/>
      <point x="706" y="983" type="curve" smooth="yes"/>
      <point x="811" y="983"/>
      <point x="871" y="1092"/>
    </contour>
    <contour>
      <point x="508" y="1172" type="curve" smooth="yes"/>
      <point x="508" y="1224"/>
      <point x="476" y="1281"/>
      <point x="405" y="1281" type="curve" smooth="yes"/>
      <point x="302" y="1281"/>
      <point x="242" y="1169"/>
      <point x="242" y="1093" type="curve" smooth="yes"/>
      <point x="242" y="1040"/>
      <point x="271" y="983"/>
      <point x="343" y="983" type="curve" smooth="yes"/>
      <point x="446" y="983"/>
      <point x="508" y="1092"/>
    </contour>
  </outline>
</glyph>
<glyph name="copyright" format="2">
  <advance width="1251"/>
  <unicode hex="00A9"/>
  <outline>
    <contour>
      <point x="1200" y="691" type="curve" smooth="yes"/>
      <point x="1200" y="974"/>
      <point x="1021" y="1209"/>
      <point x="717" y="1209" type="curve" smooth="yes"/>
      <point x="330" y="1209"/>
      <point x="64" y="827"/>
      <point x="64" y="483" type="curve" smooth="yes"/>
      <point x="64" y="195"/>
      <point x="241" y="-50"/>
      <point x="544" y="-50" type="curve" smooth="yes"/>
      <point x="945" y="-50"/>
      <point x="1200" y="341"/>
    </contour>
    <contour>
      <point x="1081" y="661" type="curve" smooth="yes"/>
      <point x="1081" y="363"/>
      <point x="854" y="73"/>
      <point x="559" y="73" type="curve" smooth="yes"/>
      <point x="335" y="73"/>
      <point x="180" y="252"/>
      <point x="180" y="501" type="curve" smooth="yes"/>
      <point x="180" y="796"/>
      <point x="411" y="1085"/>
      <point x="704" y="1085" type="curve" smooth="yes"/>
      <point x="927" y="1085"/>
      <point x="1081" y="909"/>
    </contour>
    <contour>
      <point x="976" y="866" type="curve"/>
      <point x="932" y="877"/>
      <point x="866" y="961"/>
      <point x="744" y="960" type="curve" smooth="yes"/>
      <point x="624" y="959"/>
      <point x="529" y="910"/>
      <point x="472" y="865" type="curve"/>
      <point x="314" y="744"/>
      <point x="275" y="593"/>
      <point x="275" y="483" type="curve" smooth="yes"/>
      <point x="275" y="267"/>
      <point x="435" y="205"/>
      <point x="556" y="205" type="curve" smooth="yes"/>
      <point x="671" y="205"/>
      <point x="772" y="259"/>
      <point x="925" y="407" type="curve"/>
      <point x="919" y="418"/>
      <point x="887" y="461"/>
      <point x="878" y="474" type="curve"/>
      <point x="780" y="380"/>
      <point x="705" y="344"/>
      <point x="640" y="344" type="curve" smooth="yes"/>
      <point x="558" y="344"/>
      <point x="479" y="374"/>
      <point x="479" y="514" type="curve" smooth="yes"/>
      <point x="479" y="657"/>
      <point x="546" y="863"/>
      <point x="667" y="863" type="curve" smooth="yes"/>
      <point x="727" y="863"/>
      <point x="766" y="747"/>
      <point x="803" y="747" type="curve" smooth="yes"/>
      <point x="830" y="747"/>
      <point x="940" y="836"/>
    </contour>
  </outline>
</glyph>
<glyph name="ordfeminine" format="2">
  <advance width="575"/>
  <unicode hex="00AA"/>
  <outline>
    <contour>
      <point x="573" y="743" type="curve"/>
      <point x="556" y="780" type="line"/>
      <point x="529" y="769"/>
      <point x="522" y="767"/>
      <point x="509" y="767" type="curve" smooth="yes"/>
      <point x="494" y="767"/>
      <point x="486" y="799"/>
      <point x="486" y="830" type="curve" smooth="yes"/>
      <point x="486" y="860"/>
      <point x="493" y="956"/>
      <point x="514" y="1051" type="curve" smooth="yes"/>
      <point x="523" y="1094"/>
      <point x="536" y="1102"/>
      <point x="559" y="1119" type="curve"/>
      <point x="540" y="1156" type="line"/>
      <point x="494" y="1135"/>
      <point x="395" y="1091"/>
      <point x="388" y="1060" type="curve"/>
      <point x="380" y="1021"/>
      <point x="349" y="824"/>
      <point x="349" y="786" type="curve" smooth="yes"/>
      <point x="349" y="709"/>
      <point x="401" y="674"/>
      <point x="425" y="674" type="curve" smooth="yes"/>
      <point x="453" y="674"/>
      <point x="517" y="707"/>
    </contour>
    <contour>
      <point x="525" y="1091" type="curve"/>
      <point x="503" y="1094"/>
      <point x="442" y="1156"/>
      <point x="387" y="1156" type="curve" smooth="yes"/>
      <point x="320" y="1156"/>
      <point x="276" y="1133"/>
      <point x="241" y="1109" type="curve" smooth="yes"/>
      <point x="147" y="1045"/>
      <point x="83" y="949"/>
      <point x="83" y="843" type="curve" smooth="yes"/>
      <point x="83" y="721"/>
      <point x="160" y="674"/>
      <point x="221" y="674" type="curve" smooth="yes"/>
      <point x="260" y="674"/>
      <point x="300" y="702"/>
      <point x="351" y="766" type="curve"/>
      <point x="365" y="882" type="line"/>
      <point x="305" y="800"/>
      <point x="278" y="776"/>
      <point x="253" y="776" type="curve" smooth="yes"/>
      <point x="232" y="776"/>
      <point x="216" y="813"/>
      <point x="216" y="881" type="curve" smooth="yes"/>
      <point x="216" y="958"/>
      <point x="246" y="1085"/>
      <point x="336" y="1085" type="curve" smooth="yes"/>
      <point x="391" y="1085"/>
      <point x="459" y="984"/>
      <point x="477" y="984" type="curve" smooth="yes"/>
      <point x="492" y="984"/>
      <point x="496" y="1071"/>
    </contour>
    <contour>
      <point x="560" y="593" type="curve"/>
      <point x="533" y="624" type="line"/>
      <point x="66" y="624" type="line"/>
      <point x="58" y="606"/>
      <point x="42" y="586"/>
      <point x="35" y="566" type="curve"/>
      <point x="60" y="539" type="line"/>
      <point x="529" y="539" type="line"/>
      <point x="535" y="555"/>
      <point x="554" y="574"/>
    </contour>
  </outline>
</glyph>
<glyph name="guillemotleft" format="2">
  <advance width="939"/>
  <unicode hex="00AB"/>
  <outline>
    <contour>
      <point x="722" y="-4" type="line"/>
      <point x="785" y="45" type="line"/>
      <point x="680" y="432" type="line"/>
      <point x="767" y="586"/>
      <point x="804" y="663"/>
      <point x="889" y="816" type="curve"/>
      <point x="840" y="866" type="line"/>
      <point x="424" y="465" type="line"/>
      <point x="419" y="439"/>
      <point x="416" y="424"/>
      <point x="411" y="398" type="curve"/>
    </contour>
    <contour>
      <point x="350" y="-4" type="line"/>
      <point x="415" y="45" type="line"/>
      <point x="308" y="432" type="line"/>
      <point x="395" y="586"/>
      <point x="433" y="663"/>
      <point x="520" y="816" type="curve"/>
      <point x="470" y="866" type="line"/>
      <point x="53" y="465" type="line"/>
      <point x="49" y="439"/>
      <point x="46" y="424"/>
      <point x="42" y="398" type="curve"/>
    </contour>
  </outline>
</glyph>
<glyph name="logicalnot" format="2">
  <advance width="917"/>
  <unicode hex="00AC"/>
  <outline>
    <contour>
      <point x="823" y="559" type="line"/>
      <point x="793" y="590" type="line"/>
      <point x="793" y="590"/>
      <point x="741" y="590"/>
      <point x="94" y="590" type="curve"/>
      <point x="79" y="567"/>
      <point x="40" y="501"/>
      <point x="32" y="476" type="curve"/>
      <point x="57" y="443" type="line"/>
      <point x="677" y="443" type="line"/>
      <point x="639" y="163" type="line"/>
      <point x="665" y="129" type="line"/>
      <point x="692" y="139"/>
      <point x="749" y="178"/>
      <point x="773" y="197" type="curve"/>
    </contour>
  </outline>
</glyph>
<glyph name="registered" format="2">
  <advance width="647"/>
  <unicode hex="00AE"/>
  <outline>
    <contour>
      <point x="700" y="997" type="curve" smooth="yes"/>
      <point x="726" y="1191"/>
      <point x="624" y="1334"/>
      <point x="448" y="1334" type="curve" smooth="yes"/>
      <point x="271" y="1334"/>
      <point x="132" y="1187"/>
      <point x="106" y="997" type="curve" smooth="yes"/>
      <point x="80" y="803"/>
      <point x="180" y="660"/>
      <point x="358" y="660" type="curve" smooth="yes"/>
      <point x="535" y="660"/>
      <point x="674" y="803"/>
    </contour>
    <contour>
      <point x="628" y="997" type="curve" smooth="yes"/>
      <point x="608" y="851"/>
      <point x="518" y="729"/>
      <point x="368" y="729" type="curve" smooth="yes"/>
      <point x="219" y="729"/>
      <point x="158" y="851"/>
      <point x="178" y="997" type="curve" smooth="yes"/>
      <point x="198" y="1142"/>
      <point x="287" y="1265"/>
      <point x="436" y="1265" type="curve" smooth="yes"/>
      <point x="586" y="1265"/>
      <point x="648" y="1142"/>
    </contour>
    <contour>
      <point x="542" y="1091" type="curve" smooth="yes"/>
      <point x="549" y="1140"/>
      <point x="516" y="1192"/>
      <point x="414" y="1192" type="curve" smooth="yes"/>
      <point x="369" y="1192"/>
      <point x="325" y="1184"/>
      <point x="292" y="1175" type="curve"/>
      <point x="290" y="1139" type="line"/>
      <point x="325" y="1145"/>
      <point x="370" y="1150"/>
      <point x="401" y="1150" type="curve" smooth="yes"/>
      <point x="455" y="1150"/>
      <point x="472" y="1118"/>
      <point x="468" y="1082" type="curve" smooth="yes"/>
      <point x="461" y="1034"/>
      <point x="432" y="1023"/>
      <point x="386" y="1023" type="curve" smooth="yes"/>
      <point x="376" y="1023"/>
      <point x="368" y="1023"/>
      <point x="356" y="1026" type="curve"/>
      <point x="354" y="984" type="line"/>
      <point x="365" y="981"/>
      <point x="375" y="979"/>
      <point x="384" y="979" type="curve" smooth="yes"/>
      <point x="463" y="979"/>
      <point x="532" y="1017"/>
    </contour>
    <contour>
      <point x="560" y="846" type="line"/>
      <point x="557" y="862" type="line"/>
      <point x="533" y="853"/>
      <point x="522" y="855"/>
      <point x="516" y="868" type="curve"/>
      <point x="430" y="1010" type="line"/>
      <point x="383" y="992" type="line"/>
      <point x="451" y="822" type="line" smooth="yes"/>
      <point x="454" y="815"/>
      <point x="464" y="805"/>
      <point x="474" y="805" type="curve" smooth="yes"/>
      <point x="486" y="805"/>
      <point x="537" y="833"/>
      <point x="557" y="844" type="curve" smooth="yes"/>
    </contour>
    <contour>
      <point x="379" y="811" type="line"/>
      <point x="382" y="837" type="line"/>
      <point x="358" y="842"/>
      <point x="349" y="850"/>
      <point x="350" y="854" type="curve" smooth="yes"/>
      <point x="393" y="1172" type="line"/>
      <point x="324" y="1172" type="line"/>
      <point x="281" y="854" type="line" smooth="yes"/>
      <point x="280" y="849"/>
      <point x="271" y="842"/>
      <point x="247" y="837" type="curve"/>
      <point x="244" y="811" type="line"/>
    </contour>
  </outline>
</glyph>
<glyph name="macron" format="2">
  <advance width="888"/>
  <unicode hex="00AF"/>
  <outline>
    <contour>
      <point x="954" y="1189" type="curve"/>
      <point x="927" y="1224" type="line"/>
      <point x="191" y="1224" type="line"/>
      <point x="177" y="1199"/>
      <point x="133" y="1122"/>
      <point x="124" y="1097" type="curve"/>
      <point x="150" y="1064" type="line"/>
      <point x="887" y="1064" type="line"/>
      <point x="899" y="1084"/>
      <point x="946" y="1164"/>
    </contour>
  </outline>
</glyph>
<glyph name="degree" format="2">
  <advance width="637"/>
  <unicode hex="00B0"/>
  <outline>
    <contour>
      <point x="642" y="987" type="curve" smooth="yes"/>
      <point x="642" y="1081"/>
      <point x="588" y="1168"/>
      <point x="476" y="1168" type="curve" smooth="yes"/>
      <point x="335" y="1168"/>
      <point x="174" y="1016"/>
      <point x="174" y="844" type="curve" smooth="yes"/>
      <point x="174" y="762"/>
      <point x="214" y="664"/>
      <point x="340" y="664" type="curve" smooth="yes"/>
      <point x="476" y="664"/>
      <point x="642" y="803"/>
    </contour>
    <contour>
      <point x="399" y="816" type="curve" smooth="yes"/>
      <point x="363" y="816"/>
      <point x="327" y="842"/>
      <point x="327" y="899" type="curve" smooth="yes"/>
      <point x="327" y="965"/>
      <point x="377" y="1018"/>
      <point x="420" y="1018" type="curve" smooth="yes"/>
      <point x="467" y="1018"/>
      <point x="490" y="972"/>
      <point x="490" y="934" type="curve" smooth="yes"/>
      <point x="490" y="876"/>
      <point x="452" y="816"/>
    </contour>
  </outline>
</glyph>
<glyph name="plusminus" format="2">
  <advance width="780"/>
  <unicode hex="00B1"/>
  <outline>
    <contour>
      <point x="523" y="960" type="line"/>
      <point x="496" y="992" type="line"/>
      <point x="467" y="986"/>
      <point x="397" y="962"/>
      <point x="372" y="954" type="curve"/>
      <point x="283" y="321" type="line"/>
      <point x="310" y="290" type="line"/>
      <point x="340" y="295"/>
      <point x="407" y="318"/>
      <point x="434" y="330" type="curve"/>
    </contour>
    <contour>
      <point x="676" y="201" type="curve"/>
      <point x="649" y="235" type="line"/>
      <point x="56" y="235" type="line"/>
      <point x="43" y="211"/>
      <point x="4" y="145"/>
      <point x="-5" y="118" type="curve"/>
      <point x="19" y="85" type="line"/>
      <point x="614" y="85" type="line"/>
      <point x="625" y="105"/>
      <point x="664" y="175"/>
    </contour>
    <contour>
      <point x="742" y="684" type="curve"/>
      <point x="714" y="716" type="line"/>
      <point x="118" y="716" type="line"/>
      <point x="105" y="692"/>
      <point x="66" y="626"/>
      <point x="57" y="600" type="curve"/>
      <point x="82" y="566" type="line"/>
      <point x="680" y="566" type="line"/>
      <point x="691" y="587"/>
      <point x="732" y="656"/>
    </contour>
  </outline>
</glyph>
<glyph name="twosuperior" format="2">
  <advance width="641"/>
  <unicode hex="00B2"/>
  <anchor x="293" y="504" name="L"/>
  <anchor x="426" y="1288" name="U"/>
  <outline>
    <contour>
      <point x="650" y="1128" type="curve" smooth="yes"/>
      <point x="650" y="1215"/>
      <point x="551" y="1241"/>
      <point x="452" y="1241" type="curve" smooth="yes"/>
      <point x="290" y="1242"/>
      <point x="151" y="1147"/>
      <point x="139" y="1070" type="curve"/>
      <point x="157" y="1021" type="line"/>
      <point x="192" y="1025"/>
      <point x="293" y="1047"/>
      <point x="321" y="1061" type="curve"/>
      <point x="315" y="1113"/>
      <point x="333" y="1172"/>
      <point x="396" y="1172" type="curve" smooth="yes"/>
      <point x="439" y="1172"/>
      <point x="462" y="1151"/>
      <point x="462" y="1098" type="curve" smooth="yes"/>
      <point x="462" y="1005"/>
      <point x="337" y="864"/>
      <point x="33" y="597" type="curve"/>
      <point x="44" y="559" type="line"/>
      <point x="559" y="559" type="line"/>
      <point x="604" y="777" type="line"/>
      <point x="547" y="790" type="line"/>
      <point x="547" y="790"/>
      <point x="525" y="670"/>
      <point x="467" y="670" type="curve" smooth="yes"/>
      <point x="239" y="670" type="line"/>
      <point x="579" y="949"/>
      <point x="650" y="1036"/>
    </contour>
  </outline>
</glyph>
<glyph name="threesuperior" format="2">
  <advance width="641"/>
  <unicode hex="00B3"/>
  <anchor x="293" y="504" name="L"/>
  <anchor x="426" y="1288" name="U"/>
  <outline>
    <contour>
      <point x="619" y="1112" type="curve" smooth="yes"/>
      <point x="619" y="1178"/>
      <point x="579" y="1241"/>
      <point x="422" y="1241" type="curve" smooth="yes"/>
      <point x="269" y="1241"/>
      <point x="148" y="1140"/>
      <point x="137" y="1079" type="curve"/>
      <point x="155" y="1034" type="line"/>
      <point x="197" y="1036"/>
      <point x="284" y="1064"/>
      <point x="320" y="1083" type="curve"/>
      <point x="315" y="1139"/>
      <point x="346" y="1172"/>
      <point x="386" y="1172" type="curve" smooth="yes"/>
      <point x="419" y="1172"/>
      <point x="434" y="1153"/>
      <point x="434" y="1107" type="curve" smooth="yes"/>
      <point x="434" y="1023"/>
      <point x="378" y="963"/>
      <point x="256" y="938" type="curve"/>
      <point x="259" y="881" type="line"/>
      <point x="283" y="884"/>
      <point x="293" y="884"/>
      <point x="312" y="884" type="curve" smooth="yes"/>
      <point x="374" y="884"/>
      <point x="416" y="852"/>
      <point x="416" y="781" type="curve" smooth="yes"/>
      <point x="416" y="685"/>
      <point x="348" y="630"/>
      <point x="279" y="630" type="curve" smooth="yes"/>
      <point x="217" y="630"/>
      <point x="152" y="649"/>
      <point x="89" y="700" type="curve"/>
      <point x="48" y="637" type="line"/>
      <point x="105" y="579"/>
      <point x="215" y="541"/>
      <point x="274" y="541" type="curve" smooth="yes"/>
      <point x="447" y="541"/>
      <point x="603" y="657"/>
      <point x="603" y="795" type="curve" smooth="yes"/>
      <point x="603" y="869"/>
      <point x="564" y="935"/>
      <point x="471" y="944" type="curve"/>
      <point x="554" y="974"/>
      <point x="619" y="1032"/>
    </contour>
  </outline>
</glyph>
<glyph name="acute" format="2">
  <advance width="557"/>
  <unicode hex="00B4"/>
  <anchor x="281" y="1260" name="U"/>
  <outline>
    <contour>
      <point x="552" y="1316" type="line"/>
      <point x="528" y="1323"/>
      <point x="367" y="1351"/>
      <point x="337" y="1353" type="curve"/>
      <point x="142" y="987" type="line"/>
      <point x="159" y="966"/>
      <point x="198" y="937"/>
      <point x="217" y="932" type="curve"/>
      <point x="576" y="1252" type="line"/>
    </contour>
  </outline>
</glyph>
